EBGaramond-Bold.sfdir

StartChar: exclam
Encoding: 33 33 66
Width: 321
VWidth: 0
Flags: W
HStem: -14 120<121.837 242.163>
VStem: 81 135<387.419 630.685> 104 156<4.65654 87.3435>
LayerCount: 3
Fore
SplineSet
182 106 m 24xa0
 225 106 260 79 260 46 c 24
 260 13 225 -14 182 -14 c 24
 139 -14 104 13 104 46 c 24
 104 79 139 106 182 106 c 24xa0
81 573 m 0xc0
 81 612 102 649 150 649 c 0
 194 649 216 612 216 575 c 0
 216 488 188 358 169 244 c 0
 165 222 159 205 146 205 c 0
 133 205 126 215 122 244 c 0
 106 358 81 510 81 573 c 0xc0
EndSplineSet
Validated: 1
Substitution2: "sups subtable" exclam.sups
Substitution2: "sinf subtable" exclam.sinf
Substitution2: "ordn subtable" exclam.ordn
Substitution2: "subs subtable" exclam.subs
EndChar

StartChar: quotedbl
Encoding: 34 34 68
Width: 348
VWidth: 0
Flags: W
HStem: 443 232<83.0485 94.9324 236.048 247.932>
VStem: 59 99<552.576 651.461> 212 99<552.576 651.461>
LayerCount: 3
Back
SplineSet
65 467 m 0
 67 520 67 557 62 619 c 0
 61 633 72 648 81 655 c 0
 97 667 108 676 124 676 c 0
 139 676 139 645 136 624 c 4
 126 555 107 505 91 469 c 0
 86 457 77 444 72 444 c 0
 67 444 65 458 65 467 c 0
196 467 m 0
 198 520 198 557 193 619 c 0
 192 633 203 648 212 655 c 0
 228 667 239 676 255 676 c 0
 270 676 270 645 267 624 c 0
 257 555 238 505 222 469 c 0
 217 457 208 444 203 444 c 0
 198 444 196 458 196 467 c 0
EndSplineSet
Fore
SplineSet
212 619 m 0
 212 633 227 647 237 654 c 0
 258 667 272 675 293 675 c 0
 306 675 311 660 311 643 c 0
 311 591 271 504 250 468 c 0
 243 456 232 443 225 443 c 0
 218 443 216 457 216 466 c 0
 217 487 217 505 217 523 c 0
 217 559 212 618 212 619 c 0
59 619 m 0
 59 633 74 647 84 654 c 0
 105 667 119 675 140 675 c 0
 153 675 158 660 158 643 c 0
 158 591 118 504 97 468 c 0
 90 456 79 443 72 443 c 0
 65 443 63 457 63 466 c 0
 64 487 64 505 64 523 c 0
 64 559 59 618 59 619 c 0
EndSplineSet
Validated: 1
Substitution2: "sups subtable" quotedbl.sups
Substitution2: "sinf subtable" quotedbl.sinf
Substitution2: "ordn subtable" quotedbl.ordn
Substitution2: "subs subtable" quotedbl.subs
EndChar

StartChar: numbersign
Encoding: 35 35 94
Width: 475
VWidth: 0
Flags: W
HStem: 204 60<20.8772 93 159 195.5> 214 60<210.5 247 313 378.693> 402 60<68.8772 142 208 251.857> 411 61<259.5 296 362 425.271> 630 20G<232 244 386 398>
LayerCount: 3
Back
SplineSet
134 206 m 1x58
 90 27 l 2
 87 14 73 12 60 12 c 0
 53 12 48 20 50 27 c 2
 94 204 l 1
 31 201 l 2
 24 201 17 207 17 213 c 0
 17 222 20 260 41 261 c 2
 108 264 l 1
 142 402 l 1
 78 399 l 2
 71 399 64 405 64 411 c 0
 64 420 67 458 88 459 c 2
 157 462 l 1xa8
 199 633 l 2
 202 647 218 650 232 650 c 0
 239 650 241 640 239 633 c 2
 198 464 l 1
 311 470 l 1
 354 644 l 2
 357 658 373 661 387 661 c 0
 394 661 396 651 394 644 c 2
 352 472 l 1
 411 475 l 2
 418 475 426 468 424 461 c 0
 418 440 415 416 393 415 c 2
 337 412 l 1
 303 274 l 1
 364 277 l 2
 371 277 379 270 377 263 c 0
 371 242 368 218 346 217 c 2
 288 214 l 1
 245 38 l 2
 242 25 228 23 215 23 c 0
 208 23 203 31 205 38 c 2
 248 212 l 1
 134 206 l 1x58
149 266 m 1
 263 272 l 1
 296 410 l 1
 183 404 l 1
 149 266 l 1
EndSplineSet
Fore
SplineSet
144 206 m 1x58
 95 27 l 2
 92 14 78 12 65 12 c 0
 59 12 55 18 55 24 c 0
 55 25 55 26 55 27 c 2
 93 204 l 1
 30 201 l 2
 23 201 16 206 16 213 c 0
 16 223 19 260 40 261 c 2
 108 264 l 1
 142 402 l 1xa8
 78 399 l 2
 71 399 64 404 64 411 c 0x18
 64 421 67 458 88 459 c 2
 157 462 l 1x28
 200 633 l 2
 204 647 223 650 241 650 c 0
 247 650 251 644 251 638 c 0
 251 636 250 635 250 633 c 2
 208 464 l 1
 311 470 l 1
 354 644 l 2
 358 658 377 661 395 661 c 0
 401 661 405 655 405 649 c 0
 405 647 404 646 404 644 c 2
 362 472 l 1
 421 475 l 2
 428 475 434 471 434 464 c 0
 434 454 425 415 403 414 c 2
 347 411 l 1
 313 274 l 1
 374 277 l 2
 381 277 387 272 387 265 c 0
 387 255 378 218 356 217 c 2
 298 214 l 1
 250 38 l 2
 247 25 233 23 220 23 c 0
 214 23 210 29 210 35 c 0
 210 36 210 37 210 38 c 2
 247 212 l 1
 144 206 l 1x58
159 266 m 1
 262 272 l 1
 296 409 l 1
 193 404 l 1
 159 266 l 1
EndSplineSet
Validated: 1
Substitution2: "sups subtable" numbersign.sups
Substitution2: "sinf subtable" numbersign.sinf
Substitution2: "ordn subtable" numbersign.ordn
Substitution2: "subs subtable" numbersign.subs
EndChar

StartChar: dollar
Encoding: 36 36 97
Width: 498
VWidth: 0
Flags: W
HStem: -19 35<238.781 313.278> -15 41<154.951 183.998>
VStem: 63 100<474.26 562.68> 180 45<-115.068 -52.6364> 191 46<25.0007 70.9474> 243 49<409 431> 366 117<98.7852 205.371> 420 47<493.986 560.373>
LayerCount: 3
Fore
SplineSet
275 270 m 2xae
 237 26 l 2x6e
 237 25 237 24 237 23 c 0
 237 16 242 16 246 16 c 0
 328 21 366 54 366 148 c 0
 366 198 305 258 279 275 c 0
 278 276 277 276 277 276 c 2
 276 276 276 274 275 270 c 2xae
309 396 m 0
 368 357 483 295 483 185 c 0
 483 99 419 -19 247 -19 c 0
 244 -19 237 -20 236 -25 c 2
 225 -101 l 10
 224 -112 206 -116 192 -116 c 16
 186 -116 180 -109 180 -102 c 2
 180 -101 l 1xb6
 184 -22 l 2
 184 -19 181 -15 178 -15 c 0
 142 -9 119 2 95 8 c 0
 81 11 83 15 81 20 c 0
 70 43 52 122 50 158 c 0
 50 166 59 174 70 174 c 0
 79 174 111 62 183 26 c 0
 184 26 186 25 187 25 c 0
 189 25 191 26 191 28 c 2
 226 297 l 2
 226 300 226 305 212 314 c 0
 134 362 63 417 63 497 c 0
 63 555 123 651 262 659 c 0
 269 660 274 662 274 665 c 2
 277 691 l 10
 279 704 297 708 313 708 c 16
 322 708 329 700 329 693 c 2
 329 691 l 1
 326 665 l 2
 326 662 327 659 333 658 c 0
 381 655 411 647 429 644 c 8
 442 642 448 632 450 622 c 0
 457 588 467 550 467 515 c 0
 467 506 461 490 454 490 c 0
 447 490 425 500 420 515 c 0x6d
 401 575 362 605 324 618 c 1
 323 618 l 2
 321 618 319 615 319 613 c 2
 294 416 l 2
 294 413 292 411 292 409 c 0
 292 401 297 404 309 396 c 0
261 627 m 0
 204 622 163 574 163 526 c 0
 163 488 196 456 234 429 c 0
 236 428 237 427 239 427 c 0
 241 427 243 429 243 431 c 2
 268 619 l 2
 268 624 266 627 261 627 c 0
EndSplineSet
Validated: 1
Substitution2: "sups subtable" dollar.sups
Substitution2: "sinf subtable" dollar.sinf
Substitution2: "ordn subtable" dollar.ordn
Substitution2: "subs subtable" dollar.subs
EndChar

StartChar: percent
Encoding: 37 37 1016
Width: 814
VWidth: 0
Flags: W
HStem: -14 24<591.59 640.471> 267 25<182.59 231.471> 320 28<585.112 636.364> 603 27<176.112 227.364> 635 20G<636.5 650>
VStem: 47 91<346.876 534.652> 268 91<360.841 550.459> 456 91<65.1372 253.935> 677 91<80.7051 268.459>
LayerCount: 3
Fore
SplineSet
611 320 m 0
 572 320 547 241 547 180 c 0
 547 109 570 10 615 10 c 0
 659 10 677 95 677 159 c 2
 677 164 l 9
 676 230 651 320 611 320 c 0
623 348 m 16
 719 348 768 262 768 177 c 0
 768 83 712 -14 602 -14 c 8
 503 -14 456 74 456 166 c 0
 456 252 518 348 623 348 c 16
202 603 m 0
 163 603 138 524 138 463 c 0
 138 392 161 292 206 292 c 0
 250 292 268 378 268 442 c 2
 268 447 l 9
 267 513 242 603 202 603 c 0
214 630 m 16
 310 630 359 544 359 459 c 0
 359 365 303 267 193 267 c 8
 94 267 47 355 47 447 c 0
 47 533 109 630 214 630 c 16
155 -11 m 10
 604 638 l 26
 614 652 627 655 646 655 c 16
 654 655 662 648 662 642 c 0
 662 641 661 639 660 638 c 10
 211 -11 l 26
 202 -24 188 -26 172 -26 c 16
 163 -26 154 -20 154 -14 c 0
 154 -13 154 -12 155 -11 c 10
EndSplineSet
Validated: 1
Substitution2: "sups subtable" percent.sups
Substitution2: "sinf subtable" percent.sinf
Substitution2: "ordn subtable" percent.ordn
Substitution2: "subs subtable" percent.subs
EndChar

StartChar: quotesingle
Encoding: 39 39 69
Width: 195
VWidth: 0
Flags: W
HStem: 443 232<83.0485 94.9324>
VStem: 59 99<552.576 651.461>
LayerCount: 3
Fore
SplineSet
59 619 m 0
 59 633 74 647 84 654 c 0
 105 667 119 675 140 675 c 0
 153 675 158 660 158 643 c 0
 158 591 118 504 97 468 c 0
 90 456 79 443 72 443 c 0
 65 443 63 457 63 466 c 0
 64 487 64 505 64 523 c 0
 64 559 59 618 59 619 c 0
EndSplineSet
Validated: 1
Substitution2: "sups subtable" quotesingle.sups
Substitution2: "sinf subtable" quotesingle.sinf
Substitution2: "ordn subtable" quotesingle.ordn
Substitution2: "subs subtable" quotesingle.subs
EndChar

StartChar: parenleft
Encoding: 40 40 107
Width: 328
VWidth: 0
Flags: W
HStem: 685 20G<251.5 261>
VStem: 38 78<127.769 404.284>
LayerCount: 3
Fore
SplineSet
280 -192 m 0
 280 -206 265 -214 251 -214 c 0
 245 -214 237 -212 232 -207 c 0
 155 -136 38 99 38 269 c 0
 38 439 151 623 228 694 c 0
 234 700 246 705 257 705 c 0
 265 705 281 698 281 689 c 0
 281 687 270 672 268 670 c 0
 197 599 116 451 116 281 c 0
 116 111 193 -102 264 -173 c 0
 266 -175 280 -190 280 -192 c 0
EndSplineSet
Validated: 1
Substitution2: "sups subtable" parenleft.sups
Substitution2: "sinf subtable" parenleft.sinf
Substitution2: "ordn subtable" parenleft.ordn
Substitution2: "subs subtable" parenleft.subs
EndChar

StartChar: parenright
Encoding: 41 41 108
Width: 329
VWidth: 0
Flags: W
HStem: 684 20G<61 72.5>
VStem: 204 78<139.141 415.495>
LayerCount: 3
Fore
SplineSet
282 281 m 4
 282 111 162 -136 85 -207 c 4
 81 -211 75 -213 67 -213 c 4
 52 -213 34 -205 34 -195 c 4
 34 -192 41 -184 44 -181 c 4
 115 -110 204 97 204 267 c 4
 204 437 117 608 46 679 c 4
 43 682 38 688 38 691 c 4
 38 700 55 704 67 704 c 12
 78 704 85 701 93 694 c 4
 170 623 282 451 282 281 c 4
EndSplineSet
Validated: 1
Substitution2: "sups subtable" parenright.sups
Substitution2: "sinf subtable" parenright.sinf
Substitution2: "ordn subtable" parenright.ordn
Substitution2: "subs subtable" parenright.subs
EndChar

StartChar: asterisk
Encoding: 42 42 1018
Width: 346
VWidth: 0
Flags: W
HStem: 371 299<164.469 174.531> 427 21G<57 63> 450 21G<296.5 302.5>
VStem: 130 44<614.118 669.947> 165 44<371.053 427.294>
LayerCount: 3
Fore
SplineSet
32 577 m 0x48
 32 587 40 591 48 591 c 0
 51 591 53 591 56 590 c 0
 86 576 113 566 138 555 c 1
 134 583 131 613 130 648 c 0
 130 659 137 669 151 670 c 1
 152 670 l 2x90
 164 670 173 661 174 652 c 2
 191 560 l 1
 215 576 242 592 273 610 c 1
 276 613 281 614 285 614 c 0
 293 614 303 610 303 600 c 0
 303 594 299 588 294 583 c 2
 221 525 l 1
 247 513 272 500 303 482 c 0
 310 479 315 471 315 464 c 0
 315 454 307 450 298 450 c 0x30
 295 450 293 450 290 451 c 0
 257 465 228 476 202 487 c 1
 206 459 208 428 209 393 c 0
 209 382 203 372 189 371 c 1
 187 371 l 2x88
 175 371 166 380 165 389 c 2
 148 482 l 1
 126 466 101 449 72 431 c 1
 69 428 65 427 61 427 c 0
 53 427 43 431 43 441 c 0
 43 447 47 453 52 458 c 2
 119 517 l 1
 95 529 72 541 43 559 c 0
 37 562 32 570 32 577 c 0x48
EndSplineSet
Validated: 1
Substitution2: "sups subtable" asterisk.sups
Substitution2: "sinf subtable" asterisk.sinf
Substitution2: "ordn subtable" asterisk.ordn
Substitution2: "subs subtable" asterisk.subs
EndChar

StartChar: plus
Encoding: 43 43 99
Width: 603
VWidth: 0
Flags: W
HStem: -8 21G<279 289> 222 50<51.1042 268 346 561.676>
VStem: 268 78<-2.33378 222 272 472.745>
LayerCount: 3
Fore
SplineSet
346 278 m 2
 346 273 346 272 348 272 c 0
 416 272 484 272 552 272 c 8
 559 272 566 268 566 262 c 0
 566 245 553 222 534 222 c 18
 350 222 l 2
 347 222 346 221 346 218 c 2
 346 16 l 10
 346 -5 295 -8 283 -8 c 0
 275 -8 268 -1 268 6 c 18
 268 217 l 2
 268 220 267 222 264 222 c 2
 62 222 l 10
 55 222 48 228 48 234 c 0
 48 243 54 272 72 272 c 18
 260 272 l 2
 266 272 268 274 268 280 c 2
 268 451 l 10
 268 473 319 482 327 482 c 0
 336 482 346 476 346 469 c 18
 346 278 l 2
EndSplineSet
Validated: 1
Substitution2: "sups subtable" plus.sups
Substitution2: "sinf subtable" plus.sinf
Substitution2: "ordn subtable" plus.ordn
Substitution2: "subs subtable" plus.subs
EndChar

StartChar: comma
Encoding: 44 44 54
Width: 240
VWidth: 0
Flags: W
HStem: -148 24<17.0911 66.0546> 28 89<51.0293 119.149>
VStem: 127 68<-56.3439 48.6868>
LayerCount: 3
Back
Fore
SplineSet
37 -148 m 0
 24 -148 17 -143 17 -137 c 0
 17 -132 22 -126 31 -124 c 0
 74 -115 127 -86 127 -16 c 0
 127 0 110 26 88 28 c 0
 59 31 41 48 41 70 c 0
 41 97 70 117 102 117 c 0
 156 117 195 76 195 20 c 0
 195 -81 93 -148 37 -148 c 0
EndSplineSet
Validated: 1
Substitution2: "sups subtable" comma.sups
Substitution2: "sinf subtable" comma.sinf
Substitution2: "ordn subtable" comma.ordn
Substitution2: "subs subtable" comma.subs
EndChar

StartChar: period
Encoding: 46 46 39
Width: 257
VWidth: 0
Flags: W
HStem: -14 110<72.2088 184.407>
VStem: 57 143<2.25 79.75>
LayerCount: 3
Fore
SplineSet
128 96 m 24
 167 96 200 71 200 41 c 24
 200 11 167 -14 128 -14 c 24
 89 -14 57 11 57 41 c 24
 57 71 89 96 128 96 c 24
EndSplineSet
Validated: 1
Substitution2: "sups subtable" period.sups
Substitution2: "sinf subtable" period.sinf
Substitution2: "ordn subtable" period.ordn
Substitution2: "subs subtable" period.subs
EndChar

StartChar: slash
Encoding: 47 47 95
Width: 396
VWidth: 0
Flags: W
LayerCount: 3
Fore
SplineSet
29 -47 m 14
 326 648 l 30
 333 663 348 665 365 665 c 20
 372 665 379 659 379 652 c 4
 379 651 378 649 378 648 c 14
 81 -47 l 30
 75 -61 60 -62 45 -62 c 20
 37 -62 28 -57 28 -50 c 4
 28 -49 29 -48 29 -47 c 14
EndSplineSet
Validated: 1
Substitution2: "frac_slash subtable" fraction
Substitution2: "sups subtable" slash.sups
Substitution2: "sinf subtable" slash.sinf
Substitution2: "ordn subtable" slash.ordn
Substitution2: "subs subtable" slash.subs
EndChar

StartChar: zero
Encoding: 48 48 83
Width: 549
VWidth: 0
Flags: W
HStem: -15 41<208.379 341.531> 372 41<210.13 344.082>
VStem: 38 101<114.33 289.877> 410 101<114.137 289.689>
LayerCount: 3
Fore
SplineSet
280 372 m 0
 198 372 139 301 139 204 c 0
 139 119 186 26 268 26 c 0
 350 26 410 78 410 203 c 0
 410 286 364 372 280 372 c 0
273 413 m 0
 404 413 511 320 511 203 c 16
 511 84 406 -15 275 -15 c 0
 142 -15 38 85 38 204 c 16
 38 320 145 413 273 413 c 0
EndSplineSet
Validated: 1
Substitution2: "'tnum' Tabular Numbers lookup 32 subtable" zero.taboldstyle
Substitution2: "'lnum' Lining Figures lookup 30 subtable" zero.lnum
Substitution2: "Single Substitution lookup 29 subtable" zero.ordn
Substitution2: "Single Substitution lookup 28 subtable" zero.subs
Substitution2: "sups subtable" zero.sups
Substitution2: "sinf subtable" zero.sinf
Substitution2: "ordn subtable" zero.ordn
Substitution2: "subs subtable" zero.subs
EndChar

StartChar: one
Encoding: 49 49 50
Width: 308
VWidth: 0
Flags: W
HStem: -3 25<24.0807 89.5827 219.107 285.988> 384 22<38.0015 88.9044 222.295 271.945>
VStem: 108 95<32.9094 374.434>
LayerCount: 3
Fore
SplineSet
108 68 m 2
 108 333 l 2
 108 380 72 380 45 384 c 0
 40 384 38 390 38 395 c 0
 38 401 39 406 45 406 c 0
 111 406 113 403 156 403 c 24
 198 403 199 406 263 406 c 0
 270 406 272 401 272 396 c 0
 272 391 269 385 264 384 c 0
 236 378 204 380 203 333 c 0
 202 295 201 251 201 208 c 0
 201 150 202 95 203 68 c 0
 204 29 230 28 274 22 c 0
 282 21 286 15 286 9 c 0
 286 3 282 -3 273 -3 c 0
 211 -3 201 2 156 2 c 24
 109 2 95 -3 36 -3 c 0
 28 -3 24 4 24 11 c 0
 24 17 27 22 35 22 c 0
 62 24 108 27 108 68 c 2
EndSplineSet
Validated: 1
Substitution2: "'tnum' Tabular Numbers lookup 32 subtable" one.taboldstyle
Substitution2: "'lnum' Lining Figures lookup 30 subtable" one.lnum
Substitution2: "Single Substitution lookup 29 subtable" one.ordn
Substitution2: "Single Substitution lookup 28 subtable" one.subs
Substitution2: "sups subtable" one.sups
Substitution2: "sinf subtable" one.sinf
Substitution2: "ordn subtable" one.ordn
Substitution2: "subs subtable" one.subs
EndChar

StartChar: two
Encoding: 50 50 77
Width: 440
VWidth: 0
Flags: W
HStem: 0 65<130.64 370.67> 345 68<107.243 205.483>
VStem: 225 88<224.011 327.421>
LayerCount: 3
Fore
SplineSet
379 -4 m 0
 364 -4 270 0 200 0 c 24
 133 0 33 -3 28 -3 c 0
 25 -3 21 1 21 5 c 0
 21 9 24 13 28 17 c 0
 45 34 73 61 89 74 c 0
 111 92 225 186 225 267 c 0
 225 314 198 345 160 345 c 0
 115 345 78 335 44 297 c 0
 40 293 37 290 31 290 c 8
 25 290 24 298 24 304 c 0
 24 313 74 413 201 413 c 0
 270 413 313 353 313 290 c 0
 313 258 294 220 267 191 c 0
 233 155 142 80 131 73 c 0
 123 69 135 65 141 65 c 2
 307 65 l 2
 348 65 386 90 406 128 c 0
 409 133 417 138 427 138 c 0
 430 138 431 135 431 132 c 0
 431 130 431 128 430 126 c 0
 413 81 395 22 395 12 c 0
 395 2 381 -4 379 -4 c 0
EndSplineSet
Validated: 1
Substitution2: "'tnum' Tabular Numbers lookup 32 subtable" two.taboldstyle
Substitution2: "'lnum' Lining Figures lookup 30 subtable" two.lnum
Substitution2: "Single Substitution lookup 29 subtable" two.ordn
Substitution2: "Single Substitution lookup 28 subtable" two.subs
Substitution2: "sups subtable" two.sups
Substitution2: "sinf subtable" two.sinf
Substitution2: "ordn subtable" two.ordn
Substitution2: "subs subtable" two.subs
EndChar

StartChar: three
Encoding: 51 51 84
Width: 390
VWidth: 0
Flags: W
HStem: -190 44<58.0269 160.992> 358 55<111.468 194.53>
VStem: 210 91<243.047 344.455> 241 99<-38.6463 84.5313>
LayerCount: 3
Fore
SplineSet
187 413 m 0xe0
 256 413 301 372 301 309 c 0xe0
 301 277 282 212 187 167 c 0
 182 165 182 161 188 161 c 0
 302 159 340 97 340 53 c 0
 340 -68 247 -130 161 -169 c 0
 135 -181 99 -190 86 -190 c 0
 74 -190 56 -186 56 -176 c 0
 56 -164 71 -146 83 -146 c 0
 92 -146 134 -145 151 -136 c 0
 202 -109 241 -79 241 17 c 0xd0
 241 49 229 112 154 112 c 0
 123 112 96 92 92 92 c 0
 84 92 75 94 75 101 c 16
 75 110 92 128 104 135 c 0
 125 148 144 160 172 186 c 0
 189 202 210 239 210 292 c 0
 210 330 187 358 149 358 c 0
 106 358 82 337 56 308 c 0
 53 304 46 300 41 300 c 8
 35 300 34 305 34 312 c 0
 34 333 106 413 187 413 c 0xe0
EndSplineSet
Validated: 1
Substitution2: "'tnum' Tabular Numbers lookup 32 subtable" three.taboldstyle
Substitution2: "'lnum' Lining Figures lookup 30 subtable" three.lnum
Substitution2: "Single Substitution lookup 29 subtable" three.ordn
Substitution2: "Single Substitution lookup 28 subtable" three.subs
Substitution2: "sups subtable" three.sups
Substitution2: "sinf subtable" three.sinf
Substitution2: "ordn subtable" three.ordn
Substitution2: "subs subtable" three.subs
EndChar

StartChar: four
Encoding: 52 52 79
Width: 511
VWidth: 0
Flags: W
HStem: -181 21G<291 300.5> 53 49<115 277 372.065 480.843> 401 20G<367.5 376>
VStem: 277 95<-159.174 48.9258 104.023 282.138>
LayerCount: 3
Fore
SplineSet
265 104 m 2
 270 104 277 108 277 112 c 2
 277 281 l 2
 277 284 270 285 267 282 c 24
 205 218 173 180 115 113 c 24
 112 110 110 104 115 104 c 2
 265 104 l 2
329 377 m 24
 345 394 364 420 371 421 c 1
 372 421 l 2
 380 421 376 414 376 409 c 8
 376 292 371 226 371 109 c 24
 371 106 373 103 376 103 c 16
 391 102 404 102 416 102 c 0
 435 102 453 103 475 104 c 0
 481 104 486 101 486 97 c 0
 486 81 472 52 465 52 c 0
 450 52 432 53 416 53 c 0
 404 53 393 52 385 51 c 0
 380 50 372 46 372 45 c 2
 372 -133 l 2
 372 -158 305 -181 296 -181 c 0
 286 -181 277 -178 277 -168 c 2
 277 40 l 2
 277 46 263 49 262 49 c 0
 180 49 138 44 33 43 c 0
 28 43 20 43 20 48 c 0
 20 49 23 55 24 56 c 0
 94 134 210 252 329 377 c 24
EndSplineSet
Validated: 1
Substitution2: "'tnum' Tabular Numbers lookup 32 subtable" four.taboldstyle
Substitution2: "'lnum' Lining Figures lookup 30 subtable" four.lnum
Substitution2: "Single Substitution lookup 29 subtable" four.ordn
Substitution2: "Single Substitution lookup 28 subtable" four.subs
Substitution2: "sups subtable" four.sups
Substitution2: "sinf subtable" four.sinf
Substitution2: "ordn subtable" four.ordn
Substitution2: "subs subtable" four.subs
EndChar

StartChar: five
Encoding: 53 53 78
Width: 403
VWidth: 0
Flags: W
HStem: -189 29<68.5537 154.336> 312 103<169.728 265.36>
VStem: 55 43<213.5 311.221> 252 104<-64.5539 72.3007>
LayerCount: 3
Fore
SplineSet
106 -189 m 0
 89 -189 68 -186 68 -177 c 0
 68 -167 90 -162 102 -160 c 0
 180 -147 252 -106 252 0 c 0
 252 83 178 134 108 167 c 0
 66 187 55 205 55 222 c 0
 55 276 80 330 89 347 c 0
 99 366 117 376 128 380 c 0
 178 398 224 407 288 415 c 17
 289 415 l 2
 297 415 302 408 302 401 c 0
 302 376 276 330 247 325 c 0
 193 315 151 313 118 312 c 0
 108 312 104 302 99 282 c 0
 98 280 98 278 98 276 c 0
 98 268 105 260 120 252 c 0
 184 220 257 177 288 150 c 0
 318 124 356 69 356 17 c 0
 356 -112 218 -189 106 -189 c 0
EndSplineSet
Validated: 1
Substitution2: "'tnum' Tabular Numbers lookup 32 subtable" five.taboldstyle
Substitution2: "'lnum' Lining Figures lookup 30 subtable" five.lnum
Substitution2: "Single Substitution lookup 29 subtable" five.ordn
Substitution2: "Single Substitution lookup 28 subtable" five.subs
Substitution2: "sups subtable" five.sups
Substitution2: "sinf subtable" five.sinf
Substitution2: "ordn subtable" five.ordn
Substitution2: "subs subtable" five.subs
EndChar

StartChar: six
Encoding: 54 54 81
Width: 531
VWidth: 0
Flags: W
HStem: -14 36<229.913 344.088> 260 53<261.716 351.269>
VStem: 39 108<98.9877 315.307> 393 90<98.8224 215.642>
LayerCount: 3
Fore
SplineSet
252 -14 m 0
 105 -14 39 73 39 193 c 0
 39 342 128 436 167 477 c 0
 221 533 332 607 467 639 c 1
 474 639 l 2
 479 639 486 638 486 635 c 0
 486 623 462 616 458 614 c 0
 362 575 296 529 242 456 c 0
 206 407 147 310 147 190 c 0
 147 140 163 101 181 79 c 0
 198 58 241 22 284 22 c 0
 313 22 334 30 350 43 c 0
 372 60 393 93 393 142 c 0
 393 203 352 260 299 260 c 0
 264 260 242 257 219 245 c 0
 203 239 203 248 212 256 c 0
 223 267 229 272 241 280 c 0
 257 291 307 313 347 313 c 0
 422 313 483 262 483 190 c 0
 483 85 408 -14 252 -14 c 0
EndSplineSet
Validated: 1
Substitution2: "'tnum' Tabular Numbers lookup 32 subtable" six.taboldstyle
Substitution2: "'lnum' Lining Figures lookup 30 subtable" six.lnum
Substitution2: "Single Substitution lookup 29 subtable" six.ordn
Substitution2: "Single Substitution lookup 28 subtable" six.subs
Substitution2: "sups subtable" six.sups
Substitution2: "sinf subtable" six.sinf
Substitution2: "ordn subtable" six.ordn
Substitution2: "subs subtable" six.subs
EndChar

StartChar: seven
Encoding: 55 55 80
Width: 457
VWidth: 0
Flags: W
HStem: 281 21G<26 32.5> 326 75<55.5231 339.016>
LayerCount: 3
Fore
SplineSet
343 313 m 2
 346 318 353 322 333 323 c 0
 294 324 159 326 127 326 c 2
 114 326 l 2
 94 326 70 324 54 303 c 0
 49 297 37 281 28 281 c 0
 24 281 23 284 23 289 c 0
 23 296 26 306 27 311 c 0
 34 340 39 370 39 395 c 0
 39 405 46 406 49 406 c 0
 52 406 87 403 112 402 c 0
 141 401 179 401 219 401 c 0
 308 401 406 403 425 407 c 0
 429 407 432 398 432 393 c 0
 432 377 404 340 394 323 c 2
 114 -166 l 10
 108 -177 99 -193 95 -193 c 0
 80 -193 67 -182 67 -167 c 0
 67 -163 79 -142 88 -126 c 18
 343 313 l 2
EndSplineSet
Validated: 1
Substitution2: "'tnum' Tabular Numbers lookup 32 subtable" seven.taboldstyle
Substitution2: "'lnum' Lining Figures lookup 30 subtable" seven.lnum
Substitution2: "Single Substitution lookup 29 subtable" seven.ordn
Substitution2: "Single Substitution lookup 28 subtable" seven.subs
Substitution2: "sups subtable" seven.sups
Substitution2: "sinf subtable" seven.sinf
Substitution2: "ordn subtable" seven.ordn
Substitution2: "subs subtable" seven.subs
EndChar

StartChar: eight
Encoding: 56 56 85
Width: 492
VWidth: 0
Flags: W
HStem: -13 37<200.906 314.3> 565 24<209.507 293.676>
VStem: 58 91<73.3158 196.219> 72 91<417.195 523.329> 337 91<406.691 527.283> 355 91<82.5135 177.738>
LayerCount: 3
Fore
SplineSet
284 340 m 0xd8
 326 375 337 416 337 472 c 16
 337 519 302 565 256 565 c 8
 209 565 163 532 163 486 c 8
 163 414 208 393 272 340 c 0
 276 337 280 337 284 340 c 0xd8
305 315 m 0
 390 269 446 232 446 157 c 8
 446 60 345 -13 241 -13 c 8
 145 -13 58 47 58 132 c 16xe4
 58 214 146 256 203 282 c 0
 215 287 210 289 200 295 c 0
 133 342 72 388 72 467 c 16
 72 543 171 589 263 589 c 16
 346 589 428 540 428 465 c 16
 428 420 396 393 370 374 c 0
 348 358 337 351 311 335 c 0
 290 323 292 322 305 315 c 0
216 261 m 0
 175 229 149 207 149 147 c 8
 149 84 192 24 256 24 c 16
 313 24 355 65 355 118 c 16
 355 176 298 222 243 259 c 0
 236 264 232 267 227 267 c 0
 224 267 221 265 216 261 c 0
EndSplineSet
Validated: 1
Substitution2: "'tnum' Tabular Numbers lookup 32 subtable" eight.taboldstyle
Substitution2: "'lnum' Lining Figures lookup 30 subtable" eight.lnum
Substitution2: "Single Substitution lookup 29 subtable" eight.ordn
Substitution2: "Single Substitution lookup 28 subtable" eight.subs
Substitution2: "sups subtable" eight.sups
Substitution2: "sinf subtable" eight.sinf
Substitution2: "ordn subtable" eight.ordn
Substitution2: "subs subtable" eight.subs
EndChar

StartChar: nine
Encoding: 57 57 82
Width: 506
VWidth: 0
Flags: W
HStem: -186 18<40.0542 76.0908> 89 53<187.084 270.724> 378 36<184.985 297.201>
VStem: 51 90<192.647 296.355> 365 104<110.58 305.172>
LayerCount: 3
Fore
SplineSet
273 414 m 0
 382 414 469 328 469 210 c 0
 469 96 388 6 328 -47 c 0
 266 -101 131 -176 54 -186 c 1
 48 -186 l 2
 43 -186 39 -185 39 -181 c 8
 39 -174 47 -170 54 -168 c 0
 115 -150 239 -56 284 0 c 0
 322 48 365 114 365 227 c 0
 365 310 310 378 237 378 c 0
 172 378 141 316 141 267 c 0
 141 206 186 142 239 142 c 0
 280 142 294 156 319 168 c 0
 324 170 329 161 326 157 c 0
 318 144 302 130 290 122 c 0
 274 111 231 89 191 89 c 0
 116 89 51 143 51 215 c 4
 51 306 137 414 273 414 c 0
EndSplineSet
Validated: 1
Substitution2: "'tnum' Tabular Numbers lookup 32 subtable" nine.taboldstyle
Substitution2: "'lnum' Lining Figures lookup 30 subtable" nine.lnum
Substitution2: "Single Substitution lookup 29 subtable" nine.ordn
Substitution2: "Single Substitution lookup 28 subtable" nine.subs
Substitution2: "sups subtable" nine.sups
Substitution2: "sinf subtable" nine.sinf
Substitution2: "ordn subtable" nine.ordn
Substitution2: "subs subtable" nine.subs
EndChar

StartChar: colon
Encoding: 58 58 70
Width: 274
VWidth: 0
Flags: W
HStem: -14 110<81.5926 194.407> 263 110<81.5926 194.407>
VStem: 66 144<2.25 79.75 279.25 356.75>
LayerCount: 3
Fore
SplineSet
138 96 m 24
 177 96 210 71 210 41 c 28
 210 11 177 -14 138 -14 c 24
 99 -14 66 11 66 41 c 24
 66 71 99 96 138 96 c 24
138 373 m 24
 177 373 210 348 210 318 c 24
 210 288 177 263 138 263 c 24
 99 263 66 288 66 318 c 24
 66 348 99 373 138 373 c 24
EndSplineSet
Validated: 1
Substitution2: "sups subtable" colon.sups
Substitution2: "sinf subtable" colon.sinf
Substitution2: "ordn subtable" colon.ordn
Substitution2: "subs subtable" colon.subs
EndChar

StartChar: semicolon
Encoding: 59 59 71
Width: 240
VWidth: 0
Flags: W
HStem: -148 24<17.0911 66.0546> 28 89<35.0989 115.92> 262 111<42.5926 154.791>
VStem: 27 143<278.75 356.75> 127 68<-56.3439 48>
LayerCount: 3
Fore
SplineSet
37 -148 m 0xe8
 24 -148 17 -143 17 -137 c 0
 17 -132 22 -126 31 -124 c 0
 74 -115 127 -86 127 -16 c 0
 127 0 107 26 81 28 c 0
 46 31 24 48 24 70 c 0
 24 97 56 117 92 117 c 0
 151 117 195 76 195 20 c 0
 195 -81 93 -148 37 -148 c 0xe8
99 373 m 24
 138 373 170 348 170 318 c 24
 170 288 138 262 99 262 c 24
 60 262 27 288 27 318 c 24xf0
 27 348 60 373 99 373 c 24
EndSplineSet
Validated: 1
Substitution2: "sups subtable" semicolon.sups
Substitution2: "sinf subtable" semicolon.sinf
Substitution2: "ordn subtable" semicolon.ordn
Substitution2: "subs subtable" semicolon.subs
EndChar

StartChar: less
Encoding: 60 60 100
Width: 584
VWidth: 0
Flags: W
HStem: -6 21G<522.5 526>
LayerCount: 3
Fore
SplineSet
130 229 m 2
 510 55 l 10
 529 46 534 16 534 7 c 0
 534 2 529 -6 523 -6 c 0
 522 -6 521 -5 520 -5 c 10
 91 195 l 26
 74 203 50 216 50 222 c 0
 50 231 63 259 83 268 c 26
 520 468 l 18
 521 468 522 469 523 469 c 0
 529 469 533 465 533 459 c 0
 533 447 522 417 502 408 c 18
 129 234 l 2
 125 233 126 230 130 229 c 2
EndSplineSet
Validated: 1
Substitution2: "sups subtable" less.sups
Substitution2: "sinf subtable" less.sinf
Substitution2: "ordn subtable" less.ordn
Substitution2: "subs subtable" less.subs
EndChar

StartChar: equal
Encoding: 61 61 98
Width: 585
VWidth: 0
Flags: W
HStem: 142 51<51.212 532.104> 313 51<51.212 532.104>
LayerCount: 3
Fore
SplineSet
72 193 m 26
 524 193 l 18
 530 193 538 188 538 182 c 0
 538 181 538 180 538 179 c 8
 532 162 525 142 506 142 c 26
 62 142 l 26
 55 142 48 148 48 154 c 0
 48 163 54 193 72 193 c 26
72 364 m 26
 524 364 l 18
 530 364 538 359 538 353 c 0
 538 352 538 351 538 350 c 8
 532 333 525 313 506 313 c 26
 62 313 l 26
 55 313 48 319 48 325 c 0
 48 334 54 364 72 364 c 26
EndSplineSet
Validated: 1
Substitution2: "sups subtable" equal.sups
Substitution2: "sinf subtable" equal.sinf
Substitution2: "ordn subtable" equal.ordn
Substitution2: "subs subtable" equal.subs
EndChar

StartChar: greater
Encoding: 62 62 101
Width: 584
VWidth: 0
Flags: W
HStem: -6 21G<58 61.5>
LayerCount: 3
Fore
SplineSet
454 234 m 2
 74 408 l 10
 55 417 50 447 50 456 c 0
 50 461 55 469 61 469 c 0
 62 469 63 468 64 468 c 10
 493 268 l 26
 510 260 534 247 534 241 c 0
 534 232 521 204 501 195 c 26
 64 -5 l 18
 63 -5 62 -6 61 -6 c 0
 55 -6 51 -1 51 4 c 0
 51 16 62 46 82 55 c 18
 455 229 l 2
 459 230 458 233 454 234 c 2
EndSplineSet
Validated: 1
Substitution2: "sups subtable" greater.sups
Substitution2: "sinf subtable" greater.sinf
Substitution2: "ordn subtable" greater.ordn
Substitution2: "subs subtable" greater.subs
EndChar

StartChar: question
Encoding: 63 63 86
Width: 400
VWidth: 0
Flags: W
HStem: -14 120<102.837 223.163> 569 92<78.0733 198.455>
VStem: 85 156<4.65654 87.3435> 95 69<207.771 271.768> 291 66<393.5 493.081>
LayerCount: 3
Fore
SplineSet
163 106 m 24xe8
 206 106 241 79 241 46 c 24
 241 13 206 -14 163 -14 c 24
 120 -14 85 13 85 46 c 24
 85 79 120 106 163 106 c 24xe8
113 661 m 0
 153 661 204 644 244 611 c 0
 312 555 357 469 357 418 c 0
 357 369 330 345 306 334 c 0
 253 310 241 304 202 283 c 0
 168 265 165 236 164 204 c 0
 164 194 157 181 144 181 c 0
 135 181 121 194 116 210 c 0
 108 231 95 252 95 297 c 0xd8
 95 331 141 355 217 387 c 0
 251 401 291 429 291 458 c 0
 291 524 251 572 170 573 c 0
 147 573 138 569 115 569 c 0
 90 569 65 598 65 625 c 0
 65 644 92 661 113 661 c 0
EndSplineSet
Validated: 1
Substitution2: "sups subtable" question.sups
Substitution2: "sinf subtable" question.sinf
Substitution2: "ordn subtable" question.ordn
Substitution2: "subs subtable" question.subs
EndChar

StartChar: at
Encoding: 64 64 1021
Width: 793
VWidth: 0
Flags: W
HStem: -132 41<304.896 506.473> 46 35<337.524 420.977 502 612.937> 324 31<368.707 467.058> 466 41<299.836 519.568>
VStem: 48 60<91.1555 290.589> 216 92<105.624 242.454> 486 55<133.419 256.672> 684 62<151.325 315.801>
LayerCount: 3
Back
SplineSet
524 395 m 0xd7d0
 459 395 304 249 304 124 c 0
 304 97 317 84 336 84 c 0
 407 84 574 323 574 363 c 0
 574 381 548 395 524 395 c 0xd7d0
582 70 m 1xafd0
 717 70 820 172 820 301 c 16
 820 470 663 578 496 578 c 8
 269 578 115 361 115 138 c 0
 115 -32 270 -180 450 -180 c 16
 603 -180 685 -124 739 -64 c 0
 745 -57 752 -55 757 -55 c 0
 764 -55 768 -59 765 -66 c 0
 757 -86 644 -226 448 -226 c 0
 248 -226 50 -71 50 140 c 16
 50 388 244 612 498 612 c 16
 687 612 866 496 866 307 c 0
 866 135 706 27 525 27 c 2
 518 27 l 2xafd0
 499 27 487 49 487 71 c 0
 487 75 487 79 488 82 c 0
 494 110 503 150 518 191 c 0
 525 210 517 209 511 202 c 0
 427 89 342 24 261 24 c 0
 244 24 226 32 226 67 c 0
 226 205 449 444 551 444 c 0
 566 444 574 439 587 428 c 0
 596 420 600 420 602 426 c 0xd7b0
 608 448 619 464 629 464 c 0
 646 464 663 454 663 444 c 0
 663 439 660 430 656 419 c 2
 558 114 l 2
 556 108 555 103 555 98 c 0
 555 81 566 71 582 70 c 1xafd0
527 363 m 0xdf80
 454 363 290 143 290 94 c 0
 290 89 287 68 298 68 c 16
 360 68 557 311 557 351 c 0
 557 356 540 363 527 363 c 0xdf80
500 18 m 8xbf80
 478 18 468 44 470 66 c 16
 473 96 494 168 514 206 c 0
 523 224 518 237 512 230 c 8
 425 129 318 8 253 8 c 0xdf80
 236 8 211 34 211 60 c 16
 211 94 440 405 538 405 c 0
 559 405 570 388 576 394 c 0
 580 398 594 436 617 436 c 16
 634 436 634 430 640 422 c 16
 643 418 640 405 636 394 c 8
 598 288 579 228 541 122 c 8
 531 95 547 56 576 56 c 16
 711 56 820 160 820 292 c 16
 820 461 663 578 496 578 c 8
 275 578 115 381 115 158 c 0
 115 -12 267 -171 450 -171 c 16
 603 -171 685 -124 739 -64 c 0
 753 -49 770 -54 765 -66 c 0
 757 -86 736 -107 723 -120 c 0
 701 -142 644 -217 448 -217 c 0
 248 -217 50 -54 50 160 c 16
 50 408 250 612 498 612 c 16
 687 612 866 487 866 298 c 8
 866 118 683 18 500 18 c 8xbf80
EndSplineSet
Fore
SplineSet
524 46 m 0
 480 46 477 84 466 84 c 0
 455 84 409 46 342 46 c 0
 271 46 216 85 216 155 c 0
 216 276 325 355 445 355 c 0
 467 355 502 351 515 347 c 0
 531 342 536 341 540 341 c 0
 551 341 557 360 568 360 c 0
 572 360 591 356 587 352 c 0
 578 328 568 287 565 271 c 10
 544 140 l 18
 543 131 541 122 541 113 c 0
 541 98 545 84 558 84 c 0
 624 84 684 137 684 220 c 8
 684 359 561 466 417 466 c 8
 253 466 108 359 108 190 c 8
 108 31 251 -91 416 -91 c 16
 484 -91 579 -57 631 -15 c 8
 637 -10 645 -5 650 -5 c 0
 659 -5 664 -9 664 -18 c 0
 664 -42 513 -132 399 -132 c 8
 210 -132 48 -4 48 180 c 0
 48 394 234 507 439 507 c 16
 599 507 746 383 746 234 c 0
 746 117 639 46 524 46 c 0
418 324 m 0
 364 324 308 273 308 175 c 0
 308 103 350 81 386 81 c 0
 409 81 424 89 443 103 c 0
 454 111 463 121 469 152 c 2
 485 254 l 2
 486 258 486 262 486 266 c 0
 486 303 458 324 418 324 c 0
EndSplineSet
Validated: 1
Substitution2: "sups subtable" at.sups
Substitution2: "sinf subtable" at.sinf
Substitution2: "ordn subtable" at.ordn
Substitution2: "subs subtable" at.subs
Substitution2: "at_alternates subtable" at.01
EndChar

StartChar: D
Encoding: 68 68 43
Width: 803
VWidth: 0
Flags: W
HStem: -7 35<29.1115 111.208 226.137 474.118> 628 31<28.2342 94.1585 252.157 451.24>
VStem: 128 104<62.1482 605.889> 647 124<228.12 444.954>
AnchorPoint: "cedilla" 435 8 basechar 0
AnchorPoint: "below_accent" 393 -100 basechar 0
AnchorPoint: "top_accent" 365 700 basechar 0
LayerCount: 3
Back
Fore
SplineSet
396 -7 m 0
 374 -7 257 0 172 0 c 0
 129 0 116 -5 59 -5 c 0
 41 -5 28 -2 28 6 c 0
 28 15 38 20 61 24 c 0
 111 33 128 51 128 99 c 2
 128 549 l 2
 128 597 111 613 61 622 c 0
 38 626 28 633 28 642 c 0
 28 650 41 653 59 653 c 0
 117 653 127 651 171 651 c 2
 178 651 l 2
 224 651 333 659 362 659 c 0
 654 659 771 517 771 342 c 8
 771 150 602 -7 396 -7 c 0
232 121 m 2
 232 40 307 28 382 28 c 0
 538 28 647 151 647 325 c 0
 647 517 505 628 368 628 c 0
 281 628 232 627 232 567 c 2
 232 121 l 2
EndSplineSet
Validated: 1
Substitution2: "c2sc subtable" D.sc
Substitution2: "sups subtable" D.sups
Substitution2: "sinf subtable" D.sinf
Substitution2: "ordn subtable" D.ordn
Substitution2: "subs subtable" D.subs
EndChar

StartChar: K
Encoding: 75 75 61
Width: 703
VWidth: 0
Flags: W
HStem: -5 29<29.6367 103.863 268.436 334.406 630.044 709.308> 322 23<233.242 254.136> 622 31<30.0745 106.441 248.967 318.926 430.311 478.01 598.716 694.827>
VStem: 129 111<45.0373 298.058> 129 104<113.727 321.99 345.01 605.863>
AnchorPoint: "below_accent" 377 -100 basechar 0
AnchorPoint: "top_accent" 365 700 basechar 0
LayerCount: 3
Fore
SplineSet
681 -5 m 0xe8
 622 -5 597 0 542 0 c 0
 517 0 506 -1 461 -1 c 0
 444 -1 432 2 432 10 c 0
 432 19 440 23 459 27 c 0
 479 32 487 39 487 47 c 0
 487 55 480 63 472 72 c 2
 260 305 l 26
 252 313 242 322 237 322 c 0
 231 322 233 308 233 301 c 0xe8
 233 238 236 190 240 110 c 0
 242 67 254 33 303 24 c 0
 326 20 335 15 335 6 c 0
 335 -2 322 -5 304 -5 c 0
 245 -5 239 2 198 2 c 24
 145 2 120 -5 61 -5 c 0
 43 -5 29 -2 29 6 c 0
 29 15 39 20 62 24 c 0
 112 33 129 51 129 101 c 2xf0
 129 551 l 2
 129 597 112 613 62 622 c 0
 39 626 29 633 29 642 c 0
 29 650 42 653 61 653 c 0
 120 653 135 651 183 651 c 24
 224 651 230 653 289 653 c 0
 308 653 320 650 320 642 c 0
 320 633 310 626 287 622 c 0
 237 613 233 590 233 551 c 2
 233 364 l 2
 233 359 233 345 238 345 c 0
 245 345 258 355 265 363 c 2
 465 567 l 2
 475 577 480 588 480 597 c 0
 480 608 473 617 461 620 c 0
 438 626 430 631 430 640 c 0
 430 648 442 651 459 651 c 2
 513 651 l 2
 566 651 636 652 668 655 c 1
 675 655 l 2
 688 655 697 651 697 644 c 0
 697 635 687 628 664 624 c 0
 614 615 558 597 512 558 c 0
 440 497 390 448 320 371 c 24
 314 366 316 360 325 353 c 2
 567 95 l 1
 610 47 620 36 677 24 c 0
 700 19 710 15 710 6 c 0
 710 -2 698 -5 681 -5 c 0xe8
EndSplineSet
Validated: 1
Substitution2: "c2sc subtable" K.sc
Substitution2: "sups subtable" K.sups
Substitution2: "sinf subtable" K.sinf
Substitution2: "ordn subtable" K.ordn
Substitution2: "subs subtable" K.subs
EndChar

StartChar: U
Encoding: 85 85 48
Width: 776
VWidth: 0
Flags: W
HStem: -14 50<332.818 509.819> 620 33<24.5505 82.9594 225.114 279.84 537.111 588.939 701.499 765.313>
VStem: 102 104<160.023 606.064> 615 56<161.769 469.913>
AnchorPoint: "cedilla" 434 8 basechar 0
AnchorPoint: "ogonek" 512 18 basechar 0
AnchorPoint: "below_accent" 392 -100 basechar 0
AnchorPoint: "top_accent" 412 700 basechar 0
LayerCount: 3
Back
SplineSet
380 -14 m 20xb4
 188 -14 103 128 103 322 c 4
 103 381 103 498 103 540 c 4
 103 602 78 610 46 620 c 4
 35 624 29 652 42 652 c 20
 89 652 103 649 142 649 c 28
 181 649 185 652 241 652 c 4
 252 652 253 624 241 622 c 4
 199 616 185 586 183 530 c 4
 180 444 183 344 183 294 c 12
 183 162 271 36 403 36 c 20
 530 36 592 144 592 300 c 4xd4
 592 344 590 471 588 510 c 4
 584 602 574 610 527 622 c 4
 515 625 516 654 529 654 c 20
 577 654 579 654 611 654 c 20
 656 654 664 656 709 656 c 12
 720 656 716 630 709 628 c 12
 670 617 648 598 644 546 c 4xb8
 642 515 635 342 635 254 c 4
 635 99 524 -14 380 -14 c 20xb4
EndSplineSet
Fore
SplineSet
684 547 m 0
 675 432 675 342 671 250 c 0
 666 95 551 -14 398 -14 c 16
 193 -14 102 87 102 281 c 2
 102 547 l 2
 102 595 78 614 56 620 c 0
 33 626 23 633 23 642 c 0
 23 650 36 653 55 653 c 0
 88 653 120 650 161 650 c 24
 195 650 226 652 249 652 c 0
 268 652 281 649 281 641 c 0
 281 632 270 628 248 621 c 0
 232 616 206 589 206 549 c 2
 206 253 l 10
 206 132 305 36 426 36 c 16
 553 36 615 140 615 296 c 0
 615 340 612 434 610 511 c 0
 609 562 597 612 569 620 c 0
 555 624 536 631 536 640 c 0
 536 648 549 651 567 651 c 0
 599 651 617 650 648 650 c 24
 683 650 711 653 736 653 c 0
 754 653 767 650 767 642 c 0
 767 633 757 627 734 622 c 0
 699 615 686 587 684 547 c 0
EndSplineSet
Validated: 1
Substitution2: "c2sc subtable" U.sc
Substitution2: "sups subtable" U.sups
Substitution2: "sinf subtable" U.sinf
Substitution2: "ordn subtable" U.ordn
Substitution2: "subs subtable" U.subs
Substitution2: "loclLAT subtable" U.LAT
EndChar

StartChar: V
Encoding: 86 86 37
Width: 672
VWidth: 0
Flags: W
HStem: -15 21G<307.5 317> 620 33<-11.3506 51.0233 204.045 280.926 408.06 481.202 603.579 676.313>
AnchorPoint: "below_accent" 297 -100 basechar 0
AnchorPoint: "top_accent" 323 700 basechar 0
LayerCount: 3
Back
SplineSet
535 650 m 0
 574 650 623 653 649 653 c 0
 666 653 678 650 678 642 c 0
 678 633 668 627 645 622 c 0
 596 611 556 556 541 520 c 10
 351 60 l 10
 339 30 323 -15 316 -15 c 0
 311 -15 297 28 286 56 c 18
 112 522 l 10
 95 568 67 610 33 620 c 0
 11 627 0 633 0 642 c 0
 0 650 12 653 29 653 c 0
 60 653 105 650 151 650 c 0
 191 650 233 652 253 652 c 0
 270 652 282 649 282 641 c 0
 282 632 272 627 249 621 c 0
 212 612 183 565 206 504 c 2
 322 197 l 2
 329 178 335 169 340 169 c 0
 345 169 350 178 358 197 c 2
 489 521 l 10
 505 561 468 612 440 620 c 0
 426 624 407 631 407 640 c 0
 407 648 419 651 436 651 c 0
 462 651 497 650 535 650 c 0
EndSplineSet
Fore
SplineSet
535 650 m 0
 574 650 623 653 649 653 c 0
 666 653 678 650 678 642 c 0
 678 633 668 627 645 622 c 0
 596 611 562 571 547 535 c 10
 359 79 l 2
 354 66 324 -15 310 -15 c 4
 305 -15 283.905273438 26.7421875 273 56 c 18
 90 547 l 10
 76.224609375 583.959960938 54 610 20 620 c 0
 -2 627 -13 633 -13 642 c 0
 -13 650 -1 653 16 653 c 0
 47 653 105 650 151 650 c 0
 191 650 233 652 253 652 c 0
 270 652 282 649 282 641 c 0
 282 632 272 625 249 621 c 0
 219 615 186 598 186 580 c 0
 186 572 192 542 195 533 c 2
 322 197 l 2
 329 178 335 169 340 169 c 0
 345 169 350 178 358 197 c 2
 499 547 l 2
 501 551 507 575 507 579 c 0
 507 595 464 613 440 620 c 0
 426 624 407 631 407 640 c 0
 407 648 419 651 436 651 c 0
 462 651 497 650 535 650 c 0
EndSplineSet
Validated: 1
Substitution2: "c2sc subtable" V.sc
Substitution2: "sups subtable" V.sups
Substitution2: "sinf subtable" V.sinf
Substitution2: "ordn subtable" V.ordn
Substitution2: "subs subtable" V.subs
EndChar

StartChar: X
Encoding: 88 88 63
Width: 732
VWidth: 0
Flags: W
HStem: -5 33<-3.35062 67.7724 203.123 267.861 420.055 478.73 664.961 735.313> 622 33<19.6494 91.1203 255.769 330.637 481.217 551.033 664.824 731.56>
AnchorPoint: "cedilla" 452 8 basechar 0
AnchorPoint: "below_accent" 430 -100 basechar 0
AnchorPoint: "top_accent" 402 700 basechar 0
LayerCount: 3
Fore
SplineSet
591 650 m 4
 630 650 678 656 705 656 c 4
 722 656 734 653 734 645 c 4
 734 636 724 631 701 625 c 4
 663 615 614.70703125 561.688476562 571 510 c 22
 456 374 l 6
 445 361 438 352 438 344 c 4
 438 341 440 338 442 334 c 6
 597 111 l 14
 627.416992188 67.23828125 666 36 704 26 c 4
 727 20 737 15 737 6 c 4
 737 -2 725 -5 708 -5 c 4
 680 -5 611 1 564 1 c 4
 523 1 473 0 449 0 c 0
 432 0 420 3 420 11 c 0
 420 20 439 27 453 31 c 0
 473 37 498 53 498 78 c 0
 498 88 495 99 485 111 c 2
 372 262 l 2
 361 276 356 276 348 267 c 2
 200 93 l 2
 193 85 190 77 190 70 c 0
 190 51 208 36 235 30 c 0
 258 24 268 19 268 10 c 0
 268 2 256 -1 239 -1 c 0
 221 -1 186 1 150 1 c 0
 105 1 57 -5 24 -5 c 0
 7 -5 -5 -2 -5 6 c 0
 -5 15 6 21 28 28 c 0
 62 38 128.997070312 71.580078125 171 124 c 18
 296 280 l 2
 307 295 314 308 314 317 c 0
 314 320 314 323 312 325 c 2
 167 529 l 2
 117 599 85 612 51 622 c 0
 29 629 18 635 18 644 c 0
 18 652 30 655 47 655 c 0
 80 655 141 650 191 650 c 0
 231 650 284 652 302 652 c 4
 319 652 331 649 331 641 c 4
 331 632 321 628 298 621 c 4
 265 611 246 606 246 590 c 4
 246 578 257 560 282 528 c 6
 381 400 l 6
 389 390 395 385 399 385 c 4
 403 385 407 389 414 397 c 6
 531 538 l 6
 548 558 559 576 559 589 c 4
 559 604 546 614 514 620 c 4
 500 623 481 631 481 640 c 4
 481 648 493 651 510 651 c 4
 534 651 561 650 591 650 c 4
EndSplineSet
Validated: 1
Substitution2: "c2sc subtable" X.sc
Substitution2: "sups subtable" X.sups
Substitution2: "sinf subtable" X.sinf
Substitution2: "ordn subtable" X.ordn
Substitution2: "subs subtable" X.subs
EndChar

StartChar: Y
Encoding: 89 89 49
Width: 653
VWidth: 0
Flags: W
HStem: -5 29<153.602 226.247 406.521 479.398> 620 33<1.64938 59.1406 191.55 253.781 409.06 476.318 599.7 690.099>
VStem: 264 104<52.5 323.576> 482 212<579 646>
AnchorPoint: "below_accent" 313 -100 basechar 0
AnchorPoint: "top_accent" 337 700 basechar 0
LayerCount: 3
Fore
SplineSet
264 108 m 2
 264 256 l 2
 264 283 244 321 239 330 c 2
 122 522 l 2
 107 546 67 610 33 620 c 0
 11 627 0 633 0 642 c 0
 0 650 12 653 29 653 c 0
 59 653 100 650 146 650 c 24
 177 650 205 652 226 652 c 0
 243 652 255 649 255 641 c 0
 255 632 244 626 222 621 c 0
 203 616 190 611 190 596 c 0
 190 588 194 576 204 560 c 2
 304 395 l 2
 320 369 328 357 335 357 c 0
 344 357 351 367 371 395 c 0
 405 442 425 474 462 534 c 0
 476 556 482 573 482 585 c 0
 482 610 460 617 441 620 c 0
 427 622 408 631 408 640 c 0
 408 648 422 651 443 651 c 0
 479 651 499 650 534 650 c 24
 583 650 631 653 659 653 c 0
 680 653 694 650 694 642 c 0
 694 633 665 625 632 617 c 0
 591 607 570 581 528 526 c 0
 464 443 451 425 397 346 c 0
 368 303 368 295 368 256 c 2
 368 108 l 2
 368 63 397 33 447 24 c 0
 470 20 480 15 480 6 c 0
 480 -2 467 -5 449 -5 c 0
 391 -5 372 0 322 0 c 24
 268 0 242 -5 184 -5 c 0
 166 -5 153 -2 153 6 c 0
 153 15 163 20 186 24 c 0
 236 33 264 60 264 108 c 2
EndSplineSet
Validated: 1
Substitution2: "c2sc subtable" Y.sc
Substitution2: "sups subtable" Y.sups
Substitution2: "sinf subtable" Y.sinf
Substitution2: "ordn subtable" Y.ordn
Substitution2: "subs subtable" Y.subs
EndChar

StartChar: Z
Encoding: 90 90 64
Width: 611
VWidth: 0
Flags: W
HStem: -2 38<190.367 489.543> 604 42<119.089 441.997>
AnchorPoint: "below_accent" 316 -100 basechar 0
AnchorPoint: "top_accent" 325 700 basechar 0
LayerCount: 3
Fore
SplineSet
234 -2 m 0
 193 -2 151 -3 112 -3 c 2
 34 -3 l 10
 28 -3 27 11 27 11 c 1
 27 21 62 73 86 104 c 0
 226 290 307 395 437 588 c 16
 439 591 442 593 442 596 c 0
 442 600 438 603 423 604 c 0
 387 605 330 606 277 606 c 0
 238 606 200 606 175 604 c 0
 143 602 101 584 83 535 c 0
 77 523 65 503 46 503 c 0
 38 503 35 508 35 514 c 0
 35 522 39 533 42 541 c 0
 49 562 65 610 69 652 c 0
 70 667 80 669 85 669 c 0
 90 669 100 663 110 655 c 0
 118 649 155 647 185 647 c 16
 238 646 287 646 333 646 c 0
 418 646 492 647 568 649 c 0
 574 649 585 636 580 631 c 2
 519 550 l 1
 381 364 305 262 181 70 c 16
 179 67 178 62 178 58 c 0
 178 50 182 42 189 41 c 0
 218 38 258 36 302 36 c 0
 347 36 396 38 443 41 c 0
 491 45 539 76 567 142 c 0
 570 150 579 163 589 163 c 0
 595 163 598 159 598 150 c 0
 598 139 571 36 560 12 c 0
 556 4 552 -5 542 -5 c 0
 426 -5 325 -2 234 -2 c 0
EndSplineSet
Validated: 1
Substitution2: "c2sc subtable" Z.sc
Substitution2: "sups subtable" Z.sups
Substitution2: "sinf subtable" Z.sinf
Substitution2: "ordn subtable" Z.ordn
Substitution2: "subs subtable" Z.subs
EndChar

StartChar: backslash
Encoding: 92 92 96
Width: 396
VWidth: 0
Flags: W
LayerCount: 3
Fore
SplineSet
377 -47 m 18
 377 -48 378 -49 378 -50 c 0
 378 -57 369 -62 361 -62 c 8
 346 -62 331 -61 325 -47 c 26
 28 648 l 18
 28 649 27 651 27 652 c 0
 27 659 34 665 41 665 c 8
 58 665 73 663 80 648 c 26
 377 -47 l 18
EndSplineSet
Validated: 1
Substitution2: "sups subtable" backslash.sups
Substitution2: "sinf subtable" backslash.sinf
Substitution2: "ordn subtable" backslash.ordn
Substitution2: "subs subtable" backslash.subs
EndChar

StartChar: bracketright
Encoding: 93 93 52
Width: 379
VWidth: 0
Flags: W
HStem: -200 33<34.0971 120.308> 673 28<34.0844 186.127>
VStem: 207 62<-149.297 659.67>
LayerCount: 3
Fore
SplineSet
229 702 m 18
 263 702 269 702 269 668 c 2
 269 -175 l 2
 269 -199 260 -200 236 -200 c 10
 62 -200 l 26
 49 -200 34 -197 34 -185 c 24
 34 -173 47 -169 60 -167 c 2
 172 -154 l 2
 190 -152 207 -132 207 -105 c 2
 207 624 l 2
 207 643 183 667 168 667 c 2
 60 673 l 2
 47 674 34 678 34 688 c 0
 34 698 43 701 53 701 c 26
 229 702 l 18
EndSplineSet
Validated: 1
Substitution2: "sups subtable" bracketright.sups
Substitution2: "sinf subtable" bracketright.sinf
Substitution2: "ordn subtable" bracketright.ordn
Substitution2: "subs subtable" bracketright.subs
EndChar

StartChar: asciicircum
Encoding: 94 94 89
Width: 495
VWidth: 0
Flags: W
HStem: 283 320
LayerCount: 3
Fore
SplineSet
248 603 m 1
 274 566 406 374 447 304 c 0
 449 301 450 297 450 294 c 0
 450 288 446 283 441 283 c 2
 439 283 l 1
 427 286 408 294 402 301 c 0
 366 340 282 470 252 514 c 0
 247 520 246 520 242 514 c 0
 212 470 121 331 94 301 c 0
 87 294 69 286 57 283 c 1
 55 283 l 2
 50 283 46 288 46 294 c 0
 46 297 47 301 49 304 c 0
 87 368 220 564 248 603 c 1
EndSplineSet
Validated: 1
Substitution2: "sups subtable" asciicircum.sups
Substitution2: "sinf subtable" asciicircum.sinf
Substitution2: "ordn subtable" asciicircum.ordn
Substitution2: "subs subtable" asciicircum.subs
EndChar

StartChar: underscore
Encoding: 95 95 102
Width: 500
VWidth: 0
Flags: W
HStem: -183 50<3.10421 494.632>
LayerCount: 3
Fore
SplineSet
24 -133 m 26
 487 -133 l 18
 493 -133 501 -138 501 -144 c 0
 501 -145 500 -146 500 -147 c 8
 494 -164 488 -183 469 -183 c 26
 14 -183 l 26
 7 -183 0 -177 0 -171 c 0
 0 -162 6 -133 24 -133 c 26
EndSplineSet
Validated: 1
Substitution2: "sups subtable" underscore.sups
Substitution2: "sinf subtable" underscore.sinf
Substitution2: "ordn subtable" underscore.ordn
Substitution2: "subs subtable" underscore.subs
EndChar

StartChar: grave
Encoding: 96 96 87
Width: 326
VWidth: 0
Flags: W
HStem: 449 215
VStem: 38 231
LayerCount: 3
Fore
SplineSet
38 636 m 0
 38 650 60 664 83 664 c 0
 112 664 134 655 148 637 c 0
 175 603 269 477 269 462 c 0
 269 453 264 449 252 449 c 0
 240 449 223 464 217 471 c 0
 113 582 38 617 38 636 c 0
EndSplineSet
Validated: 1
Substitution2: "sups subtable" grave.sups
Substitution2: "sinf subtable" grave.sinf
Substitution2: "ordn subtable" grave.ordn
Substitution2: "subs subtable" grave.subs
EndChar

StartChar: e
Encoding: 101 101 13
Width: 423
VWidth: 0
Flags: W
HStem: -14 60<191.323 317.393> 256 32<128.621 301.015> 383 31<178.878 283.565>
VStem: 28 82<132.671 255.226> 312 82<292.5 362.835> 368 22<78.3477 89.6221>
AnchorPoint: "cedilla" 270 8 basechar 0
AnchorPoint: "ogonek" 310 18 basechar 0
AnchorPoint: "below_accent" 232 -100 basechar 0
AnchorPoint: "top_accent" 236 550 basechar 0
LayerCount: 3
Back
SplineSet
229 414 m 0xf4
 310 414 358 376 358 323 c 0xf8
 358 290 351 275 337 268 c 0
 323 261 303 257 281 257 c 18
 117 257 l 2
 101 257 92 254 92 220 c 0
 92 124 154 48 243 48 c 16
 268 48 307 54 333 88 c 0
 336 91 339 93 342 93 c 0
 349 93 356 85 354 77 c 0
 344 42 290 -14 198 -14 c 0
 107 -14 33 51 33 184 c 8
 33 299 119 414 229 414 c 0xf4
115 318 m 4
 112 313 111 308 111 303 c 0
 111 295 116 288 130 288 c 2
 212 288 l 10
 240 288 264 289 285 293 c 0
 292 294 293 308 293 319 c 2
 293 333 l 1
 290 365 256 383 213 383 c 0
 157 383 127 340 115 318 c 4
EndSplineSet
Fore
SplineSet
251 414 m 16xf4
 341 414 394 375 394 322 c 0
 394 289 387 274 372 267 c 0
 357 260 336 256 312 256 c 18xf8
 136 256 l 2
 119 256 110 253 110 219 c 8
 110 129 174 46 269 46 c 16
 295 46 341 56 368 90 c 0
 372 93 378 97 382 97 c 0
 391 97 393 85 390 77 c 0
 379 42 319 -14 216 -14 c 0
 115 -14 28 70 28 203 c 8
 28 316 125 414 251 414 c 16xf4
230 383 m 0
 174 383 128 329 128 303 c 0
 128 295 134 288 148 288 c 2
 230 288 l 10
 259 288 281 289 302 293 c 0
 309 294 312 310 312 321 c 8
 312 361 269 383 230 383 c 0
EndSplineSet
Validated: 1
Substitution2: "Smallcaps subtable" e.sc
Substitution2: "sups subtable" e.sups
Substitution2: "sinf subtable" e.sinf
Substitution2: "ordn subtable" e.ordn
Substitution2: "subs subtable" e.subs
EndChar

StartChar: g
Encoding: 103 103 25
Width: 501
VWidth: 0
Flags: W
HStem: -290 40<159.427 316.582> 105 36<189.005 280.236> 348 37<421.772 500.953> 386 30<188.664 273.597>
VStem: 10 92<-199.426 -120.656> 41 101<193.716 329.329> 48 77<19.5 76.1364> 324 91<207.182 339.478> 405 79<-152.394 -72.5865>
AnchorPoint: "top_accent" 235 550 basechar 0
LayerCount: 3
Back
SplineSet
106 -153 m 0xf880
 106 -223 151 -245 230 -245 c 0
 308 -245 367 -190 367 -107 c 0
 367 -70 319 -51 286 -44 c 0
 261 -39 211 -33 188 -32 c 0
 161 -31 142 -54 129 -70 c 0
 112 -90 106 -119 106 -153 c 0xf880
206 388 m 8
 153 388 122 328 122 280 c 8
 122 213 168 141 225 141 c 8
 282 141 302 200 302 265 c 8xf5
 302 326 262 388 206 388 c 8
374 295 m 0
 374 198 308 106 211 106 c 16
 189 106 160 108 142 118 c 1
 121 102 108 82 108 69 c 0xf3
 108 41 172 36 204 33 c 0
 331 21 433 9 433 -75 c 0
 433 -197 328 -290 206 -290 c 8
 121 -290 20 -264 20 -176 c 0xf880
 20 -116 56 -98 72 -86 c 0
 125 -45 132 -38 142 -32 c 1
 109 -23 55 -3 55 44 c 0xf2
 55 59 57 66 71 77 c 0
 91 93 103 105 121 127 c 1
 113 129 44 172 45 257 c 0
 46 344 134 416 221 416 c 8
 261 416 280 397 319 390 c 24
 345 385 367 384 387 384 c 8
 415 384 433 386 459 384 c 0
 471 383 474 352 461 352 c 0
 404 352 392 346 378 344 c 1
 374 333 374 310 374 295 c 0
EndSplineSet
Fore
SplineSet
102 -134 m 0xf880
 102 -200 155 -250 242 -250 c 0
 328 -250 405 -192 405 -109 c 0
 405 -72 354 -52 318 -45 c 0
 291 -40 236 -36 211 -35 c 0
 203 -35 192 -33 185 -35 c 1
 173 -43 147 -67 134 -80 c 1
 112 -100 102 -118 102 -134 c 0xf880
229 386 m 8
 172 386 142 318 142 270 c 8
 142 208 179 141 236 141 c 0
 286 141 324 200 324 265 c 8xf5
 324 325 285 386 229 386 c 8
415 294 m 0
 415 197 340 105 232 105 c 16
 208 105 192 107 172 117 c 1
 150 101 125 81 125 68 c 0xf3
 125 40 197 30 233 27 c 0
 376 15 484 7 484 -77 c 0
 484 -187 343 -290 225 -290 c 0
 127 -290 10 -264 10 -176 c 0xf880
 10 -129 51 -100 72 -90 c 0
 107 -72 140 -56 159 -32 c 1
 117 -25 48 -4 48 43 c 0xf2
 48 58 59 70 77 81 c 0
 101 95 132 104 151 127 c 1
 141 129 41 173 41 258 c 0
 41 358 146 416 246 416 c 8
 295 416 321 399 369 391 c 24
 392 387 407 385 430 385 c 0
 446 385 454 386 467 386 c 0
 474 386 481 386 491 385 c 0
 498 384 501 374 501 365 c 0
 501 356 497 348 490 348 c 0
 420 348 438 342 421 340 c 1
 416 329 415 309 415 294 c 0
EndSplineSet
Validated: 1
Substitution2: "Smallcaps subtable" g.sc
Substitution2: "sups subtable" g.sups
Substitution2: "sinf subtable" g.sinf
Substitution2: "ordn subtable" g.ordn
Substitution2: "subs subtable" g.subs
EndChar

StartChar: j
Encoding: 106 106 16
Width: 233
VWidth: 0
Flags: W
HStem: -287 27<-32.3398 5.48842> 352 25<19.0088 51.6717> 513 101<64.9638 172.256>
VStem: 53 131<525.854 601.043> 73 95<-113.275 340.129>
LayerCount: 3
Fore
SplineSet
53 563 m 0xf0
 53 592 82 614 118 614 c 0
 156 614 184 592 184 563 c 0
 184 535 156 513 118 513 c 0
 82 513 53 535 53 563 c 0xf0
EndSplineSet
Refer: 344 567 N 1 0 0 1 0 0 3
Validated: 1
Substitution2: "Smallcaps subtable" j.sc
Substitution2: "sups subtable" j.sups
Substitution2: "sinf subtable" j.sinf
Substitution2: "ordn subtable" j.ordn
Substitution2: "subs subtable" j.subs
Substitution2: "Single Substitution lookup 9 subtable" dotlessj
EndChar

StartChar: k
Encoding: 107 107 62
Width: 489
VWidth: 0
Flags: W
HStem: -3 27<19.092 70.766 184.421 231.962 441.448 496.704> 378 22<293.492 328.089> 384 28<409.276 465.679> 639 25<30.0088 64.3913> 685 20G<176.5 178.5>
VStem: 84 91<32.0327 205.138 223.955 627.924>
AnchorPoint: "below_accent" 253 -100 basechar 0
AnchorPoint: "top_accent" 300 708 basechar 0
LayerCount: 3
Fore
SplineSet
274 9 m 0xbc
 274 30 318 26 318 46 c 0
 318 50 315 55 311 60 c 2
 185 205 l 2
 182 208 175 207 175 199 c 0
 174 180 174 158 174 135 c 0
 174 112 174 88 175 65 c 1
 175 38 190 30 210 24 c 0
 221 20 233 16 233 6 c 0
 233 -4 214 -3 208 -3 c 0
 165 -3 169 2 130 2 c 0
 91 2 87 -3 44 -3 c 0
 38 -3 18 -4 18 6 c 0
 18 16 30 20 41 24 c 0
 61 30 84 38 84 65 c 2
 84 566 l 2
 84 613 71 632 38 639 c 0
 33 640 30 646 30 652 c 0
 30 658 33 663 38 664 c 0
 97 676 138 692 175 704 c 0
 176 704 176 705 177 705 c 0
 180 705 184 700 184 696 c 0
 184 682 175 647 175 562 c 2
 175 231 l 2
 175 224 177 223 181 224 c 0
 190 226 201 232 216 245 c 0
 270 292 319 342 330 358 c 0
 331 359 331 360 331 361 c 0
 331 368 319 375 305 378 c 0
 302 379 293 383 293 386 c 0
 293 398 311 400 315 400 c 10
 364 400 l 2xdc
 400 400 433 409 460 412 c 0
 463 412 468 409 468 405 c 0
 468 397 457 386 448 384 c 0
 423 379 396 364 378 353 c 0
 365 345 298 289 250 247 c 0
 244 243 242 234 247 230 c 0
 299 167 373 89 394 70 c 0
 416 49 456 28 476 22 c 0
 487 18 499 14 499 4 c 0
 499 -4 486 -5 479 -5 c 0
 427 -5 360 0 297 0 c 0
 292 0 274 -1 274 9 c 0xbc
EndSplineSet
Validated: 1
Substitution2: "Smallcaps subtable" k.sc
Substitution2: "sups subtable" k.sups
Substitution2: "sinf subtable" k.sinf
Substitution2: "ordn subtable" k.ordn
Substitution2: "subs subtable" k.subs
EndChar

StartChar: l
Encoding: 108 108 2
Width: 260
VWidth: 0
Flags: W
HStem: -3 27<18.9975 72.9702 186.03 240.003> 639 25<30.0088 61.7542> 685 20G<174.5 176.5>
VStem: 84 91<31.1488 627.687>
AnchorPoint: "below_accent" 130 -100 basechar 0
AnchorPoint: "top_accent" 113 782 basechar 0
LayerCount: 3
Fore
SplineSet
175 62 m 6
 175 35 198 30 218 24 c 4
 229 20 241 16 241 6 c 4
 241 -2 227 -3 219 -3 c 4
 176 -3 169 2 130 2 c 4
 91 2 83 -3 40 -3 c 4
 32 -3 18 -2 18 6 c 4
 18 16 30 20 41 24 c 4
 61 30 84 35 84 62 c 6
 84 566 l 6
 84 605 71 632 38 639 c 4
 33 640 30 646 30 652 c 4
 30 658 33 663 38 664 c 4
 97 676 136 692 173 704 c 4
 174 704 174 705 175 705 c 4
 178 705 182 701 182 698 c 4
 182 686 175 652 175 562 c 6
 175 62 l 6
EndSplineSet
Validated: 1
Substitution2: "Smallcaps subtable" l.sc
Substitution2: "sups subtable" l.sups
Substitution2: "sinf subtable" l.sinf
Substitution2: "ordn subtable" l.ordn
Substitution2: "subs subtable" l.subs
Substitution2: "loclCAT subtable" l.CAT
EndChar

StartChar: p
Encoding: 112 112 8
Width: 561
VWidth: 0
Flags: W
HStem: -285 27<19.0147 72.9702 192.131 254.981> -14 31<216.255 342.603> 360 25<30.0088 59.1094> 369 45<256.453 359.171> 406 20G<174.5 176.5>
VStem: 84 91<-246.875 17.9674 48.5384 335.047> 424 104<132.017 298.226>
AnchorPoint: "top_accent" 281 550 basechar 0
LayerCount: 3
Back
SplineSet
271 20 m 0
 310 20 401 59 401 193 c 0
 401 347 308 369 265 369 c 0
 231 369 204 353 179 334 c 0
 164 323 155 310 153 269 c 0
 150 187 150 169 154 96 c 0
 155 78 167 50 178 42 c 0
 195 30 227 20 271 20 c 0
152 -205 m 0
 152 -221 154 -236 165 -248 c 0
 174 -258 199 -257 206 -261 c 8
 214 -266 215 -285 206 -285 c 0
 167 -285 151 -280 116 -280 c 0
 81 -280 66 -285 27 -285 c 0
 18 -285 18 -266 27 -261 c 0
 34 -257 57 -260 69 -248 c 8
 81 -236 82 -224 82 -208 c 0
 82 -62 82 94 82 287 c 0
 82 302 69 353 36 360 c 8
 26 362 26 383 35 385 c 16
 86 397 119 412 151 425 c 0
 155 427 158 423 159 419 c 0
 160 407 150 354 155 348 c 1
 174 367 254 414 317 414 c 0
 421 414 481 333 481 225 c 0
 481 108 377 -16 227 -14 c 0
 199 -14 175 -10 156 0 c 0
 152 2 152 -27 152 -33 c 0
 152 -106 152 -153 152 -205 c 0
EndSplineSet
Fore
SplineSet
84 -220 m 6xd6
 84 287 l 6
 84 302 71 353 38 360 c 4
 33 361 30 367 30 373 c 4
 30 379 33 384 38 385 c 4
 97 397 136 412 173 425 c 4
 174 425 174 426 175 426 c 4xee
 178 426 182 421 182 417 c 4
 182 405 178 373 178 357 c 4
 178 353 178 349 178 348 c 5
 198 367 284 414 352 414 c 4
 463 414 528 319 528 225 c 4
 528 106 421 -14 286 -14 c 4
 256 -14 200 0 179 18 c 5
 176 18 175 -27 175 -33 c 6
 175 -220 l 6
 175 -247 213 -252 233 -258 c 4
 244 -262 256 -266 256 -276 c 4
 256 -284 241 -285 232 -285 c 4
 189 -285 167 -280 129 -280 c 4
 91 -280 84 -285 41 -285 c 4
 33 -285 18 -284 18 -276 c 4
 18 -266 30 -262 41 -258 c 4
 61 -252 84 -247 84 -220 c 6xd6
294 17 m 4
 333 17 424 59 424 193 c 4
 424 347 331 369 288 369 c 4xd6
 254 369 227 359 202 340 c 4
 187 329 178 310 176 269 c 4
 176 252 175 229 175 205 c 4
 175 171 177 136 178 115 c 4
 179 97 183 60 202 42 c 4
 217 28 250 17 294 17 c 4
EndSplineSet
Validated: 1
Substitution2: "Smallcaps subtable" p.sc
Substitution2: "sups subtable" p.sups
Substitution2: "sinf subtable" p.sinf
Substitution2: "ordn subtable" p.ordn
Substitution2: "subs subtable" p.subs
EndChar

StartChar: r
Encoding: 114 114 12
Width: 357
VWidth: 0
Flags: W
HStem: -3 27<31.9975 82.5886 203.901 259.924> 348 66<242.02 331.412> 349 25<28.0116 68.3854>
VStem: 92 91<36.7083 329.52>
AnchorPoint: "below_accent" 145 -100 basechar 0
AnchorPoint: "top_accent" 214 550 basechar 0
LayerCount: 3
Back
SplineSet
155 264 m 0xd0
 155 214 155 125 155 77 c 0
 155 61 157 46 168 34 c 0
 177 24 201 25 208 21 c 8
 216 16 217 -3 208 -3 c 0
 169 -3 154 2 119 2 c 0
 84 2 71 -3 32 -3 c 0
 23 -3 23 16 32 21 c 0
 39 25 60 22 72 34 c 8
 84 46 85 58 85 74 c 0
 85 123 85 225 85 277 c 0
 85 313 77 342 44 349 c 8
 34 351 34 372 43 374 c 16xb0
 94 386 127 413 154 429 c 0
 158 431 161 427 162 423 c 0
 162 416 161 392 159 360 c 0
 159 350 176 364 184 371 c 0
 215 399 244 414 285 414 c 0
 313 414 335 394 335 367 c 0
 335 347 309 322 289 322 c 0
 267 322 255 338 235 338 c 0
 203 338 193 333 174 316 c 24
 158 301 155 271 155 264 c 0xd0
EndSplineSet
Fore
SplineSet
183 264 m 2xd0
 183 67 l 1
 184 40 217 30 237 24 c 0
 248 20 261 16 261 6 c 0
 261 -2 246 -3 238 -3 c 0
 194 -3 181 2 142 2 c 0
 103 2 97 -3 53 -3 c 4
 45 -3 31 -2 31 6 c 0
 31 16 43 20 54 24 c 0
 74 30 91 35 92 62 c 1
 92 277 l 2
 92 313 81 342 38 349 c 0
 31 350 28 356 28 362 c 0
 28 368 32 373 37 374 c 0xb0
 103 386 146 413 181 429 c 0
 182 429 183 430 184 430 c 0
 188 430 190 426 191 423 c 1
 191 416 191 380 188 348 c 0
 188 346 188 346 189 346 c 0
 193 346 206 365 213 371 c 0
 244 399 281 414 305 414 c 0
 333 414 353 400 353 382 c 0
 353 362 333 330 313 330 c 0
 296 330 273 348 253 348 c 0
 221 348 183 331 183 264 c 2xd0
EndSplineSet
Validated: 1
Substitution2: "Smallcaps subtable" r.sc
Substitution2: "sups subtable" r.sups
Substitution2: "sinf subtable" r.sinf
Substitution2: "ordn subtable" r.ordn
Substitution2: "subs subtable" r.subs
EndChar

StartChar: w
Encoding: 119 119 23
Width: 755
VWidth: 0
Flags: W
HStem: 378 27<-5.91898 45.2252 181.927 218.997 272.066 316.989 449.984 497.003 707.926 753.851>
VStem: 344 97<275.812 359.977> 622 133<321.5 400>
AnchorPoint: "below_accent" 356 -100 basechar 0
AnchorPoint: "top_accent" 347 550 basechar 0
LayerCount: 3
Back
SplineSet
310 329 m 8
 295 355 280 366 253 381 c 8
 245 386 243 405 253 405 c 8
 288 405 308 400 344 400 c 24
 380 400 415 405 436 405 c 0
 445 405 444 386 436 381 c 8
 419 372 403 373 394 357 c 24
 385 342 390 328 397 312 c 18
 467 136 l 2
 483 94 484 110 495 138 c 2
 558 295 l 10
 566 316 572 327 564 352 c 0
 559 367 535 373 521 381 c 8
 513 386 513 405 521 405 c 8
 553 405 575 400 603 400 c 8
 630 400 646 405 673 405 c 8
 682 405 680 385 673 381 c 8
 658 373 648 371 636 359 c 16
 625 349 616 331 608 311 c 26
 469 -16 l 2
 465 -25 455 -25 452 -16 c 2
 348 242 l 2
 342 256 341 255 335 241 c 2
 226 -16 l 2
 222 -25 207 -25 204 -16 c 2
 65 329 l 10
 53 358 32 366 5 381 c 8
 -3 386 -5 405 5 405 c 8
 40 405 60 400 96 400 c 24
 131 400 166 405 187 405 c 0
 196 405 195 386 187 381 c 8
 170 372 153 374 145 357 c 24
 137 341 147 329 154 312 c 18
 224 136 l 2
 240 94 240 110 252 138 c 2
 311 278 l 2
 325 313 310 329 310 329 c 8
EndSplineSet
Fore
SplineSet
673 312 m 26
 524 -16 l 2
 522 -20 510 -23 506 -23 c 0
 503 -23 499 -20 497 -16 c 2
 384 242 l 2
 380 252 376 255 370 241 c 2
 252 -16 l 2
 250 -20 235 -23 232 -23 c 0
 229 -23 225 -20 224 -16 c 2
 74 329 l 10
 62.4287109375 355.61328125 40 372 18 378 c 0
 6 382 -7 386 -7 396 c 0
 -7 404 6 405 13 405 c 0
 19 405 86 400 86 400 c 0
 86 400 193 405 200 405 c 0
 205 405 220 404 220 396 c 0
 220 386 208 382 197 378 c 0
 183 374 176 357 176 338 c 0
 176 329 178 320 181 312 c 2
 257 116 l 2
 262 102 266 103 272 117 c 2
 338 278 l 2
 342 289 344 299 344 308 c 0
 344 345 315 372 294 378 c 0
 283 381 271 386 271 396 c 0
 271 404 284 405 293 405 c 0
 313 405 316 400 357 400 c 0
 398 400 452 405 476 405 c 0
 484 405 498 404 498 396 c 0
 498 386 486 382 475 378 c 0
 460 373 441 366 441 342 c 0
 441 334 443 324 448 312 c 2
 523 119 l 2
 529 105 533 104 539 118 c 2
 615 295 l 2
 620 306 622 317 622 326 c 0
 622 355 602 373 587 378 c 0
 576 382 564 386 564 396 c 0
 564 404 580 405 588 405 c 0
 623 405 618 400 661 400 c 0
 705 400 705 405 731 405 c 0
 741 405 755 404 755 396 c 0
 755 386 742 382 730 378 c 0
 708 372 687.06640625 342.965820312 673 312 c 26
EndSplineSet
Validated: 1
Substitution2: "Smallcaps subtable" w.sc
Substitution2: "sups subtable" w.sups
Substitution2: "sinf subtable" w.sinf
Substitution2: "ordn subtable" w.ordn
Substitution2: "subs subtable" w.subs
EndChar

StartChar: y
Encoding: 121 121 24
Width: 474
VWidth: 0
Flags: W
HStem: -285 66<17.522 104.761> 378 27<6.05563 50.0315 169.137 210.546 430.234 477.919>
VStem: 347 132<327 400>
AnchorPoint: "top_accent" 234 550 basechar 0
LayerCount: 3
Back
SplineSet
188 5 m 2
 65 329 l 10
 54 358 32 366 5 381 c 8
 -3 386 -5 405 5 405 c 8
 40 405 60 400 96 400 c 24
 131 400 166 405 187 405 c 0
 196 405 195 386 187 381 c 8
 170 372 153 374 145 357 c 24
 137 341 147 329 154 312 c 18
 224 136 l 2
 240 94 241 110 252 138 c 2
 315 295 l 10
 323 316 321 328 313 353 c 0
 308 368 292 373 278 381 c 8
 270 386 270 405 278 405 c 8
 310 405 332 400 360 400 c 8
 387 400 403 405 430 405 c 8
 439 405 437 385 430 381 c 8
 415 373 405 371 393 359 c 16
 382 349 370 332 362 311 c 26
 226 -13 l 2
 222 -22 171 -148 130 -244 c 0
 118 -271 94 -285 65 -285 c 8
 40 -285 14 -271 14 -249 c 8
 14 -234 20 -220 39 -219 c 0
 65 -218 88 -236 100 -214 c 0
 143 -133 157 -107 186 -30 c 0
 191 -17 193 -9 188 5 c 2
EndSplineSet
Fore
SplineSet
13 -249 m 8
 13 -233.258789062 20 -219 40 -219 c 0
 55 -219 69 -225 80 -225 c 0
 88 -225 100 -222 105 -214 c 4
 126 -178 172 -93 201 -16 c 0
 203 -10 204 -2 204 7 c 0
 204 18 192 28 189 36 c 2
 73 329 l 10
 63.44921875 353.124023438 48 372 28 378 c 0
 17 382 5 386 5 396 c 0
 5 404 18 405 25 405 c 0
 65 405 63 400 98 400 c 0
 133 400 151 405 191 405 c 0
 199 405 211 402 211 394 c 0
 211 384 193 375 182 372 c 0
 168 368 162 359 162 340 c 0
 162 332 167 319 170 312 c 2
 249 116 l 2
 255 102 258.227539062 103.299804688 264 117 c 2
 339 295 l 2
 343 304 347 322 347 332 c 0
 347 357 339 365 327 370 c 0
 316 375 298 384 298 394 c 0
 298 402 314 405 322 405 c 0
 344 405 338 400 383 400 c 0
 428 400 428 405 455 405 c 0
 463 405 479 404 479 396 c 0
 479 386 466 382 454 378 c 0
 432 372 405.013671875 343.869140625 390 311 c 26
 242 -13 l 2
 238 -22 182 -148 138 -244 c 0
 125 -271 99 -285 68 -285 c 8
 42.36328125 -285 13 -271 13 -249 c 8
EndSplineSet
Validated: 1
Substitution2: "Smallcaps subtable" y.sc
Substitution2: "sups subtable" y.sups
Substitution2: "sinf subtable" y.sinf
Substitution2: "ordn subtable" y.ordn
Substitution2: "subs subtable" y.subs
EndChar

StartChar: z
Encoding: 122 122 65
Width: 385
VWidth: 0
Flags: W
HStem: -5 40<135.732 305.375> 285 21G<38 50.5> 364 37<105.545 249.953> 396 20G<67 70.5>
AnchorPoint: "below_accent" 187 -100 basechar 0
AnchorPoint: "top_accent" 210 550 basechar 0
LayerCount: 3
Fore
SplineSet
265 35 m 2xe0
 295 35 321 69 351 112 c 0
 354 117 361 136 373 136 c 0
 385 136 381 117 381 113 c 0
 381 105 357 25 352 9 c 0
 351 4 344 -5 338 -5 c 0
 308 -5 232 0 120 0 c 0
 91 0 55 -5 38 -5 c 0
 33 -5 24 7 24 12 c 0
 24 17 47 51 62 70 c 0
 132 166 181 238 257 354 c 0
 261 358 268 364 248 364 c 2
 131 364 l 2xe0
 113 364 99 336 79 310 c 0
 72 304 57 285 44 285 c 0
 32 285 31 299 36 307 c 0
 44 326 53 373 53 398 c 0
 53 408 65 416 69 416 c 0xd0
 72 416 78 412 84 407 c 0
 90 402 110 401 129 401 c 0
 144 401 159 402 168 402 c 0
 239 402 297 403 360 405 c 0
 365 405 371 397 367 393 c 0
 353 376 343 363 329 343 c 2
 136 50 l 2
 130 42 142 35 148 35 c 2
 265 35 l 2xe0
EndSplineSet
Validated: 1
Substitution2: "Smallcaps subtable" z.sc
Substitution2: "sups subtable" z.sups
Substitution2: "sinf subtable" z.sinf
Substitution2: "ordn subtable" z.ordn
Substitution2: "subs subtable" z.subs
EndChar

StartChar: braceleft
Encoding: 123 123 1019
Width: 394
VWidth: 0
Flags: W
HStem: -155 28<262.125 360.818> 687 28<262.125 360.818>
VStem: 117 85<-83.1813 148.697 411.303 643.181> 134 85<-20.782 203.479 356.109 580.782>
LayerCount: 3
Fore
SplineSet
89 279 m 0xd0
 129 270 219 213 219 147 c 16xd0
 219 89 202 42 202 -26 c 16
 202 -99 268 -127 334 -127 c 16
 345 -127 361 -128 361 -139 c 16
 361 -148 351 -155 341 -155 c 8
 237 -155 117 -116 117 -22 c 8xe0
 117 48 134 94 134 156 c 8
 134 214 91 252 35 272 c 8
 30 274 24 276 24 282 c 0
 24 288 30 286 35 288 c 16
 91 308 134 346 134 404 c 16xd0
 134 466 117 512 117 582 c 16
 117 676 237 715 341 715 c 16
 351 715 361 708 361 699 c 8
 361 688 345 687 334 687 c 8
 268 687 202 659 202 586 c 8xe0
 202 518 219 471 219 413 c 8
 219 347 138 299 87 282 c 0
 82 280 85 280 89 279 c 0xd0
EndSplineSet
Validated: 1
Substitution2: "sups subtable" braceleft.sups
Substitution2: "sinf subtable" braceleft.sinf
Substitution2: "ordn subtable" braceleft.ordn
Substitution2: "subs subtable" braceleft.subs
EndChar

StartChar: bar
Encoding: 124 124 105
Width: 268
VWidth: 0
Flags: W
HStem: -289 21G<107 117>
VStem: 95 78<-283.483 697.745>
LayerCount: 3
Fore
SplineSet
95 676 m 10
 95 698 147 707 155 707 c 0
 164 707 173 701 173 694 c 18
 173 -265 l 10
 173 -286 123 -289 111 -289 c 0
 103 -289 95 -282 95 -275 c 18
 95 676 l 10
EndSplineSet
Validated: 1
Substitution2: "sups subtable" bar.sups
Substitution2: "sinf subtable" bar.sinf
Substitution2: "ordn subtable" bar.ordn
Substitution2: "subs subtable" bar.subs
EndChar

StartChar: braceright
Encoding: 125 125 1020
Width: 390
VWidth: 0
Flags: W
HStem: -155 28<33.1783 130.524> 687 28<33.1783 130.524>
VStem: 171 85<-20.782 203.479 356.109 580.782> 188 85<-83.1813 148.697 411.303 643.181>
LayerCount: 3
Fore
SplineSet
301 279 m 0xe0
 303 280 307 280 303 282 c 0
 252 299 171 347 171 413 c 16xe0
 171 471 188 518 188 586 c 16
 188 659 123 687 59 687 c 16
 48 687 33 688 33 699 c 16
 33 708 43 715 53 715 c 8
 156 715 273 676 273 582 c 8xd0
 273 512 256 466 256 404 c 8
 256 346 298 308 355 288 c 8
 360 286 366 288 366 282 c 0
 366 276 360 274 355 272 c 16
 298 252 256 214 256 156 c 16xe0
 256 94 273 48 273 -22 c 16
 273 -116 156 -155 53 -155 c 16
 43 -155 33 -148 33 -139 c 8
 33 -128 48 -127 59 -127 c 8
 123 -127 188 -99 188 -26 c 8xd0
 188 42 171 89 171 147 c 8
 171 213 261 270 301 279 c 0xe0
EndSplineSet
Validated: 1
Substitution2: "sups subtable" braceright.sups
Substitution2: "sinf subtable" braceright.sinf
Substitution2: "ordn subtable" braceright.ordn
Substitution2: "subs subtable" braceright.subs
EndChar

StartChar: exclamdown
Encoding: 161 161 67
Width: 309
VWidth: 0
Flags: W
HStem: -180 21G<140.5 185.5> 374 120<104.837 225.163>
VStem: 87 156<392.657 475.343> 96 130<-162.498 113.77>
LayerCount: 3
Fore
SplineSet
165 374 m 24xe0
 122 374 87 401 87 434 c 24
 87 467 122 494 165 494 c 24
 208 494 243 467 243 434 c 24
 243 401 208 374 165 374 c 24xe0
164 -180 m 0
 117 -180 96 -145 96 -106 c 0
 96 -43 113 87 126 205 c 0
 129 234 143 263 163 263 c 0
 176 263 188 233 191 211 c 0
 207 95 226 -21 226 -108 c 0xd0
 226 -144 207 -180 164 -180 c 0
EndSplineSet
Validated: 1
EndChar

StartChar: cent
Encoding: 162 162 1022
Width: 435
VWidth: 0
Flags: W
HStem: -14 59<259.234 341.67> 384 28<202.561 252>
VStem: 33 87<121.334 278.761>
LayerCount: 3
Fore
SplineSet
207 -12 m 1
 114 3 33 89 33 188 c 0
 33 301 125 401 255 412 c 1
 261 462 l 2
 262 473 275 479 289 479 c 0
 299 479 307 470 306 462 c 2
 301 413 l 1
 340 411 381 398 408 365 c 0
 411 361 412 357 412 353 c 0
 412 341 399 331 388 323 c 0
 384 321 379 319 375 319 c 0
 366 319 357 323 354 329 c 0
 340 354 324 372 297 379 c 1
 259 46 l 1
 264 45 269 45 274 45 c 0
 316 45 364 50 389 88 c 0
 391 91 394 93 398 93 c 0
 405 93 411 87 411 81 c 0
 411 80 411 78 410 77 c 0
 373 15 324 -12 252 -14 c 1
 246 -65 l 2
 245 -74 234 -80 222 -80 c 0
 210 -80 200 -74 201 -65 c 2
 207 -12 l 1
214 53 m 1
 252 384 l 1
 250 384 l 2
 171 384 120 297 120 222 c 0
 120 135 158 75 214 53 c 1
EndSplineSet
Validated: 1
EndChar

StartChar: sterling
Encoding: 163 163 1089
Width: 529
VWidth: 0
Flags: W
HStem: -36 68<313.898 436.456> -14 21G<14 30.5> 55 38<109 165> 600 29<310.004 377.581>
VStem: 131 114<223.921 298 343 460.732> 410 69<508.875 575.48> 461 56<44.4657 141.051>
LayerCount: 3
Fore
SplineSet
131 340 m 2x7a
 131 475 207 629 368 629 c 0
 453 629 479 593 479 547 c 0
 479 520 441 491 424 491 c 0
 411 491 408 496 408 505 c 0
 408 511 410 519 410 527 c 0x7c
 409 560 377 600 345 600 c 0
 284 600 246 504 245 343 c 1
 369 351 l 2
 377 351 383 344 383 339 c 0
 383 332 367 313 352 313 c 1
 242 306 l 1
 232 218 186 123 161 102 c 0
 157 100 156 93 165 93 c 0
 285 93 307 32 404 32 c 0
 434 32 461 57 461 87 c 0
 461 106 445 118 444 138 c 0
 444 147 444 159 456 158 c 0
 494 155 517 133 517 105 c 0
 517 28 439 -36 351 -36 c 0xba
 279 -36 238 -12 179 26 c 0
 155 42 120 55 109 55 c 0
 103 55 77 32 62 6 c 0
 53 -9 38 -14 23 -14 c 0
 5 -14 -10 0 -10 17 c 0
 -10 37 35 81 86 91 c 0
 92 92 95 97 98 103 c 0
 115 134 127 217 130 298 c 1
 46 293 l 2
 39 293 32 299 32 305 c 0
 32 314 43 330 56 331 c 2
 131 335 l 1
 131 340 l 2x7a
EndSplineSet
Validated: 1
EndChar

StartChar: currency
Encoding: 164 164 1076
Width: 509
VWidth: 0
Flags: W
HStem: 74 51<179.617 328.383> 414 51<179.512 328.383>
VStem: 47 65<194.664 345.635> 396 65<194.664 344.868>
LayerCount: 3
Fore
SplineSet
40 434 m 2
 38 436 36 438 36 441 c 0
 36 454 58 472 73 472 c 0
 77 472 80 471 82 469 c 2
 135 423 l 1
 168 449 209 465 254 465 c 0
 299 465 340 450 372 423 c 1
 426 470 l 2
 428 472 432 473 436 473 c 0
 450 473 471 457 471 443 c 0
 471 439 470 436 466 433 c 2
 410 387 l 1
 442 354 461 314 461 270 c 0
 461 226 442 185 410 152 c 1
 468 104 l 2
 470 102 472 100 472 97 c 0
 472 84 451 66 436 66 c 0
 432 66 428 67 426 69 c 2
 372 116 l 1
 340 89 299 74 254 74 c 0
 209 74 168 89 136 116 c 1
 81 69 l 2
 79 67 75 66 71 66 c 0
 56 66 36 83 36 96 c 0
 36 99 38 102 40 104 c 2
 98 152 l 1
 66 185 47 226 47 270 c 0
 47 314 66 354 98 386 c 1
 40 434 l 2
254 414 m 24
 175 414 112 349 112 270 c 24
 112 191 175 125 254 125 c 24
 333 125 396 191 396 270 c 24
 396 349 333 414 254 414 c 24
EndSplineSet
Validated: 1
EndChar

StartChar: yen
Encoding: 165 165 1023
Width: 700
VWidth: 0
Flags: W
HStem: -5 29<203.806 284.318 469.753 542.361> 196 36<168.543 328 432 568.881> 279 36<168.543 318 437 569.881> 620 33<6.93649 76.4311 472.06 524.621 634.286 698.313>
VStem: 328 104<54.0338 196 232 279>
LayerCount: 3
Fore
SplineSet
154 522 m 2
 129 552 83 611 45 620 c 0
 18 627 5 633 5 642 c 0
 5 650 19 653 40 653 c 0
 77 653 128 650 184 650 c 24
 222 650 256 652 282 652 c 0
 303 652 318 649 318 641 c 0
 318 632 307 628 285 621 c 0
 274 617 257 608 257 588 c 0
 257 580 259 571 267 560 c 2
 368 395 l 2
 384 369 393 356 401 356 c 0
 410 356 419 370 435 395 c 2
 435 395 496 477 526 534 c 0
 531 545 534 557 534 568 c 0
 534 593 523 615 504 620 c 0
 490 624 471 631 471 640 c 0
 471 648 483 651 500 651 c 0
 530 651 546 650 575 650 c 24
 612 650 648 653 671 653 c 0
 688 653 700 650 700 642 c 0
 700 633 690 627 667 622 c 0
 632 615 588 557 567 526 c 0
 513 444 455 346 455 346 c 2
 447 334 440 323 437 315 c 1
 559 315 l 2
 566 315 572 310 572 304 c 0
 572 294 556 279 541 279 c 2
 432 279 l 1
 432 232 l 1
 558 232 l 2
 565 232 571 229 571 221 c 0
 571 211 555 196 540 196 c 2
 432 196 l 1
 432 108 l 2
 432 63 460 33 510 24 c 0
 533 20 543 15 543 6 c 0
 543 -2 529 -5 510 -5 c 0
 450 -5 431 0 379 0 c 24
 323 0 296 -5 236 -5 c 0
 217 -5 203 -2 203 6 c 0
 203 15 215 20 240 24 c 0
 295 33 326 60 326 108 c 2
 328 196 l 1
 183 196 l 2
 175 196 167 202 167 208 c 0
 167 217 180 232 195 232 c 2
 328 232 l 1
 328 256 l 2
 328 265 326 272 325 279 c 1
 183 279 l 2
 175 279 167 285 167 291 c 0
 167 300 180 315 195 315 c 2
 318 315 l 1
 313 322 311 326 307 330 c 2
 154 522 l 2
EndSplineSet
Validated: 1
EndChar

StartChar: brokenbar
Encoding: 166 166 106
Width: 268
VWidth: 0
Flags: W
HStem: -290 21G<107 117> 275 21G<107 117> 685 20G<151 159.5>
VStem: 95 78<-284.483 168.239 283.306 695.745>
LayerCount: 3
Fore
SplineSet
111 275 m 0
 103 275 95 288 95 298 c 2
 95 674 l 10
 95 696 147 705 155 705 c 0
 164 705 173 699 173 692 c 18
 173 296 l 2
 173 286 123 275 111 275 c 0
155 178 m 0
 164 178 173 166 173 156 c 2
 173 -266 l 10
 173 -287 123 -290 111 -290 c 0
 103 -290 95 -283 95 -276 c 18
 95 155 l 2
 95 165 147 178 155 178 c 0
EndSplineSet
Validated: 1
Substitution2: "sups subtable" brokenbar.sups
Substitution2: "sinf subtable" brokenbar.sinf
Substitution2: "ordn subtable" brokenbar.ordn
Substitution2: "subs subtable" brokenbar.subs
EndChar

StartChar: dieresis
Encoding: 168 168 72
Width: 375
VWidth: 0
Flags: W
HStem: 473 100<33.0593 134.941 240.059 341.941>
VStem: 19 130<487.755 558.245> 226 130<487.755 558.245>
LayerCount: 3
Fore
SplineSet
291 573 m 0
 323 573 356 548 356 523 c 0
 356 498 323 473 291 473 c 0
 259 473 226 498 226 523 c 0
 226 548 259 573 291 573 c 0
84 573 m 0
 116 573 149 548 149 523 c 0
 149 498 116 473 84 473 c 0
 52 473 19 498 19 523 c 0
 19 548 52 573 84 573 c 0
EndSplineSet
Validated: 1
EndChar

StartChar: copyright
Encoding: 169 169 1036
Width: 714
VWidth: 0
Flags: W
HStem: 24 34<276.366 462.035> 154 30<355.862 475.484> 398 80<484.309 516.134> 464 30<348.573 457.951> 590 40<266.588 473.412>
VStem: 41 52<223.165 426.657> 198 91<250.689 400.973> 647 52<222.954 426.657>
LayerCount: 3
Fore
SplineSet
370 590 m 24xcf
 217 590 93 472 93 327 c 24
 93 181 215 58 369 58 c 24
 524 58 647 180 647 327 c 24
 647 472 523 590 370 590 c 24xcf
370 630 m 24
 551 630 699 494 699 327 c 24
 699 160 550 24 369 24 c 24
 188 24 41 160 41 327 c 24
 41 494 189 630 370 630 c 24
499 225 m 0
 504 235 513 240 517 240 c 0
 521 240 522 236 522 227 c 0
 522 214 508 184 500 176 c 0
 480 158 432 154 385 154 c 8
 281 154 198 239 198 328 c 8
 198 427 300 494 409 494 c 16xdf
 427 494 457 490 467 488 c 1
 476 485 498 481 508 478 c 0
 517 475 517 445 517 432 c 0
 517 425 517 417 516 409 c 0
 516 405 510 397 503 398 c 1xef
 495 398 491 405 487 413 c 0
 477 441 448 464 402 464 c 8xdf
 334 464 289 404 289 331 c 8
 289 258 331 184 411 184 c 8
 449 184 483 193 499 225 c 0
EndSplineSet
Validated: 1
EndChar

StartChar: ordfeminine
Encoding: 170 170 572
Width: 302
VWidth: 0
Flags: W
HStem: 160 36<25.5434 298.263> 267 41<224 288.156> 490 34<106.099 194>
VStem: 24 72<310.432 369.178 442.086 471.406> 176 72<317.086 387.993 407.002 486.289>
LayerCount: 3
Back
SplineSet
49 196 m 26
 255 196 l 26
 262 196 271 189 268 182 c 24
 261 169 252 161 237 161 c 26
 39 161 l 26
 32 161 25 167 25 173 c 0
 25 182 36 196 49 196 c 26
80 342 m 0
 80 319 99 308 112 308 c 0
 129 308 142 319 152 327 c 0
 157 331 159 335 159 350 c 10
 160 379 l 18
 160 391 156 393 145 390 c 0
 95 376 80 356 80 342 c 0
219 268 m 0
 182 268 169 299 164 299 c 0
 155 299 137 268 84 268 c 0
 57 268 25 304 25 327 c 0
 25 352 31 368 63 380 c 10
 142 408 l 18
 159 414 160 416 160 432 c 2
 160 455 l 26
 160 475 147 491 123 491 c 0
 107 491 85 486 80 478 c 0
 77 472 77 460 78 453 c 0
 79 445 48 438 33 434 c 0
 29 433 26 437 29 444 c 0
 35 459 38 469 54 482 c 0
 74 499 120 524 154 524 c 0
 185 524 217 499 216 471 c 10
 213 347 l 26
 213 330 215 308 234 308 c 0
 246 308 251 310 255 316 c 0
 260 323 270 307 268 301 c 0
 267 298 243 268 219 268 c 0
EndSplineSet
Fore
SplineSet
51 196 m 26
 286 196 l 18
 293 196 302 191 302 185 c 0
 302 184 301 183 301 182 c 8
 293 169 282 160 265 160 c 26
 40 160 l 26
 32 160 24 166 24 172 c 0
 24 181 36 196 51 196 c 26
96 342 m 0
 96 319 115 308 128 308 c 0
 142 308 158 319 168 327 c 0
 172 330 176 335 176 350 c 10
 176 379 l 18
 176 391 172 393 161 390 c 0
 111 376 96 356 96 342 c 0
245 267 m 0
 203 267 188 299 182 299 c 0
 172 299 151 267 91 267 c 0
 60 267 24 303 24 326 c 0
 24 351 31 367 67 379 c 10
 155 407 l 18
 174 413 176 415 176 431 c 2
 176 454 l 26
 176 474 162 490 138 490 c 0
 122 490 99 484 94 476 c 0
 90 470 93 455 93 452 c 0
 93 444 38 433 34 433 c 0
 29 433 28 435 28 438 c 0
 28 446 39 469 58 482 c 0
 82 499 136 524 176 524 c 0
 212 524 248 499 248 471 c 10
 248 347 l 18
 248 330 248 308 267 308 c 0
 285 308 290 318 292 318 c 0
 295 318 301 311 301 302 c 0
 301 298 272 267 245 267 c 0
EndSplineSet
Validated: 1
EndChar

StartChar: guillemotleft
Encoding: 171 171 116
Width: 666
VWidth: 0
Flags: W
HStem: 380 20G<347.5 355 559.5 567>
LayerCount: 3
Back
SplineSet
419 217 m 0
 411 211 411 209 419 203 c 0
 463 169 515 125 571 40 c 0
 572.876431485 36.872614191 573.677003351 33.647422962 573.677003351 30.691476652 c 0
 573.677003351 24.19561084 569.810829934 19 565 19 c 0
 564 19 564 19 563 19 c 0
 551 22 541 31 535 37 c 0
 466 104 389 155 330 182 c 0
 320.221524057 186.513142743 312.140419566 201.776304678 312.140419566 211.191779902 c 0
 312.140419566 214.293713181 313.017523657 216.760952286 315 218 c 0
 417 279 472 316 541 382 c 0
 547 388 557 397 569 400 c 1
 570 400 l 2
 573.748737342 400 575.776695297 395.984848098 575.776695297 390.719151413 c 0
 575.776695297 386.152236891 574.251262658 380.644660941 571 376 c 0
 515 291 463 251 419 217 c 0
207 217 m 0
 199 211 199 209 207 203 c 0
 251 169 303 125 359 40 c 0
 360.876431485 36.872614191 361.677003351 33.647422962 361.677003351 30.691476652 c 0
 361.677003351 24.19561084 357.810829934 19 353 19 c 0
 352 19 352 19 351 19 c 0
 339 22 329 31 323 37 c 0
 254 104 177 155 118 182 c 0
 108.221524057 186.513142743 100.140419566 201.776304678 100.140419566 211.191779902 c 0
 100.140419566 214.293713181 101.017523657 216.760952286 103 218 c 0
 205 279 260 316 329 382 c 0
 335 388 345 397 357 400 c 1
 358 400 l 2
 361.748737342 400 363.776695297 395.984848098 363.776695297 390.719151413 c 0
 363.776695297 386.152236891 362.251262658 380.644660941 359 376 c 0
 303 291 251 251 207 217 c 0
EndSplineSet
Fore
SplineSet
530 37 m 0
 461 106 384 155 325 182 c 0
 315 187 307 202 307 211 c 0
 307 214 308 217 310 218 c 0
 412 279 467 316 536 382 c 0
 542 388 554 400 565 400 c 0
 569 400 571 397 571 391 c 0
 571 362 489 275 414 217 c 0
 404 211 404 209 414 203 c 0
 486 147 569 55 569 31 c 0
 569 25 565 19 560 19 c 0
 552 19 543 24 530 37 c 0
318 37 m 0
 249 106 172 155 113 182 c 0
 103 187 95 202 95 211 c 0
 95 214 96 217 98 218 c 0
 200 279 255 316 324 382 c 0
 330 388 342 400 353 400 c 0
 357 400 359 397 359 391 c 0
 359 362 277 275 202 217 c 0
 192 211 192 209 202 203 c 0
 274 147 357 55 357 31 c 0
 357 25 353 19 348 19 c 0
 340 19 331 24 318 37 c 0
EndSplineSet
Validated: 1
EndChar

StartChar: logicalnot
Encoding: 172 172 1069
Width: 613
VWidth: 0
Flags: W
HStem: 321 61<51.75 488>
VStem: 488 78<47.6662 321>
LayerCount: 3
Fore
SplineSet
62 321 m 10
 55 321 48 327 48 333 c 0
 48 342 50 382 72 382 c 18
 552 382 l 10
 559 382 566 375 566 368 c 18
 566 66 l 10
 566 45 515 42 503 42 c 0
 495 42 488 49 488 56 c 18
 488 303 l 2
 488 313 484 321 474 321 c 10
 62 321 l 10
EndSplineSet
Validated: 1
EndChar

StartChar: registered
Encoding: 174 174 1070
Width: 358
VWidth: 0
Flags: W
HStem: 436 20<128.642 213.358> 487 10<109.003 119.235 162 173.142> 533 18<159 172.117> 588 15<159.156 182.397> 630 20<128.642 213.358>
VStem: 50 26<500.554 585.446> 126 33<498.094 532.999 551 583.903> 187 33<551.476 587.896> 266 26<500.554 585.446>
LayerCount: 3
Fore
SplineSet
171 630 m 24
 119 630 76 591 76 543 c 24
 76 495 119 456 171 456 c 24
 223 456 266 495 266 543 c 24
 266 591 223 630 171 630 c 24
171 650 m 24
 238 650 292 602 292 543 c 24
 292 484 238 436 171 436 c 24
 104 436 50 484 50 543 c 24
 50 602 104 650 171 650 c 24
187 567 m 0
 187 578 179 588 170 588 c 0
 161 588 159 584 159 579 c 2
 159 557 l 2
 159 551 161 551 166 551 c 0
 176 551 187 558 187 567 c 0
111 487 m 2
 110 487 109 489 109 491 c 0
 109 494 109 497 110 497 c 0
 115 499 126 505 126 509 c 2
 126 571 l 2
 126 576 120 582 114 584 c 0
 111 584 109 596 114 597 c 0
 138 602 147 603 170 603 c 0
 201 603 220 590 220 572 c 0
 220 555 200 548 195 547 c 1
 195 547 194 547 194 546 c 0
 194 540 215 507 229 499 c 0
 232 497 243 489 243 487 c 0
 243 484 233 484 228 484 c 0
 195 484 179 509 171 527 c 0
 170 531 166 533 164 533 c 0
 162 533 159 532 159 530 c 2
 159 509 l 2
 159 503 163 500 171 498 c 0
 174 497 174 487 171 487 c 2
 111 487 l 2
EndSplineSet
Validated: 1
EndChar

StartChar: degree
Encoding: 176 176 972
Width: 315
VWidth: 0
Flags: W
HStem: 401 48<107.016 208.984> 596 49<107.016 208.984>
VStem: 24 61<470.343 573.828> 231 61<470.343 573.828>
LayerCount: 3
Fore
SplineSet
158 645 m 0
 228 645 292 592 292 528 c 0
 292 464 228 401 158 401 c 0
 88 401 24 464 24 528 c 0
 24 592 88 645 158 645 c 0
85 522 m 0
 85 482 118 449 158 449 c 0
 198 449 231 482 231 522 c 0
 231 563 198 596 158 596 c 0
 118 596 85 563 85 522 c 0
EndSplineSet
Validated: 1
EndChar

StartChar: plusminus
Encoding: 177 177 1029
Width: 600
VWidth: 0
Flags: W
HStem: 38 50<50.8253 546.689> 351 50<51.1042 268 332 546.78>
VStem: 268 64<125.905 351 401.011 603.558>
LayerCount: 3
Fore
SplineSet
62 38 m 10
 55 38 48 44 48 50 c 0
 48 59 53 88 72 88 c 18
 539 88 l 2
 545 88 554 83 554 77 c 0
 554 76 552 75 552 74 c 8
 546 57 541 38 521 38 c 18
 62 38 l 10
332 407 m 2
 332 400 333 401 336 401 c 2
 540 401 l 2
 546 401 554 396 554 390 c 0
 554 389 552 388 552 387 c 8
 546 370 541 351 522 351 c 18
 336 351 l 2
 333 351 332 350 332 347 c 2
 332 145 l 10
 332 127 295 121 283 121 c 0
 275 121 268 128 268 135 c 18
 268 346 l 2
 268 349 267 351 264 351 c 2
 62 351 l 10
 55 351 48 357 48 363 c 0
 48 372 54 401 72 401 c 18
 260 401 l 2
 266 401 268 403 268 409 c 2
 268 580 l 10
 268 599 306 611 314 611 c 0
 323 611 332 605 332 598 c 18
 332 407 l 2
EndSplineSet
Validated: 1
EndChar

StartChar: uni00B2
Encoding: 178 178 573
Width: 314
VWidth: 0
Flags: W
HStem: 439 53<99.7794 247.247> 715 55<79.983 161.889>
VStem: 177 73<620.153 700.724>
LayerCount: 3
Fore
SplineSet
41 677 m 1
 36 667 25 671 25 682 c 0
 25 702 75 770 151 770 c 0
 206 770 250 728 250 677 c 16
 250 643 231 623 212 598 c 0
 187 565 108 506 100 498 c 0
 95 494 109 492 113 492 c 2
 189 492 l 2
 222 492 254 512 270 542 c 0
 272 547 279 551 286 550 c 16
 289 550 291 548 291 545 c 0
 291 544 290 542 290 541 c 0
 276 505 267 480 261 449 c 0
 259 438 254 436 251 436 c 0
 250 436 249 436 248 436 c 0
 194 439 193 439 158 439 c 24
 107 439 81 439 27 437 c 0
 24 436 22 439 22 443 c 0
 22 446 24 450 27 453 c 2
 66 493 l 2
 82 509 177 587 177 652 c 0
 177 689 150 715 120 715 c 0
 84 715 69 707 41 677 c 1
EndSplineSet
Validated: 1
EndChar

StartChar: uni00B3
Encoding: 179 179 574
Width: 311
VWidth: 0
Flags: W
HStem: 434 34<83.0961 178.943> 586 11<80 85.752> 723 47<93.3686 175.329>
VStem: 181 73<662.861 714.96> 199 68<490.018 578.384>
LayerCount: 3
Fore
SplineSet
115 434 m 0xe8
 84 434 44 439 44 467 c 0
 44 475 53 495 62 495 c 0
 68 495 73 492 75 490 c 0
 87 482 110 468 140 468 c 0
 153 468 199 478 199 536 c 8xe8
 199 570 169 593 131 593 c 0
 121 593 105 589 94 586 c 0
 88 584 74 592 80 597 c 24
 95 612 113 615 127 622 c 0
 160 640 181 653 181 686 c 16
 181 707 152 723 135 723 c 0
 113 723 87 716 65 693 c 0
 63 691 59 687 57 687 c 0
 54 687 47 694 50 698 c 0
 67 729 103 770 160 770 c 0
 215 770 254 750 254 699 c 0xf0
 254 674 224 651 178 633 c 0
 173 631 173 625 178 625 c 8
 230 625 267 590 267 550 c 16
 267 469 172 434 115 434 c 0xe8
EndSplineSet
Validated: 1
EndChar

StartChar: uni00B5
Encoding: 181 181 1075
Width: 567
VWidth: 0
Flags: W
HStem: -285 21G<107 139> -15 79<419.6 514.956> -13 63<149.683 260.289> 398 20G<71.5 116 384 428>
VStem: 29 118<231.47 399.299> 29 38<-92.1501 61.7751> 38 69<84.5198 240.805> 48 114<-263.76 -210.969> 342 114<286.358 396.481>
LayerCount: 3
Fore
SplineSet
464 64 m 16xd280
 498 64 522 78 536 104 c 0
 541 113 561 108 561 100 c 16
 561 98 561 96 561 94 c 0
 561 71 550 46 544 39 c 0
 509 -9 484 -15 447 -15 c 0xd280
 409 -15 392 0 369 48 c 0
 367 54 356 93 354 114 c 1
 346 98 283 -13 229 -13 c 0
 177 -13 151 6 108 38 c 0
 97 46 86 62 78 62 c 0
 70 62 67 49 67 28 c 0xb480
 67 -1 75 -43 82 -78 c 0
 98 -156 162 -236 162 -254 c 0
 162 -274 151 -285 127 -285 c 8
 87 -285 63 -265 48 -234 c 0xb180
 37 -210 29 -75 29 0 c 0xb480
 29 17 38 60 38 92 c 0xb280
 38 125 29 288 29 332 c 0
 29 374 46 418 97 418 c 16
 135 418 147 391 147 343 c 0xb880
 147 301 107 172 107 132 c 0
 107 106 143 50 189 50 c 16xb280
 244 50 278 77 303 122 c 16
 339 189 342 245 342 313 c 2
 342 332 l 2
 342 371 362 415 406 415 c 0
 450 415 456 374 456 352 c 0
 456 315 394 215 394 162 c 0
 394 125 414 64 464 64 c 16xd280
EndSplineSet
Validated: 1
EndChar

StartChar: periodcentered
Encoding: 183 183 112
Width: 228
VWidth: 0
Flags: W
HStem: 149 110<58.2088 170.407>
VStem: 43 143<165.25 242.75>
LayerCount: 3
Fore
SplineSet
114 259 m 24
 153 259 186 234 186 204 c 24
 186 174 153 149 114 149 c 24
 75 149 43 174 43 204 c 24
 43 234 75 259 114 259 c 24
EndSplineSet
Validated: 1
EndChar

StartChar: uni00B9
Encoding: 185 185 575
Width: 312
VWidth: 0
Flags: W
HStem: 439 25<55.0807 108.148 205.486 259.988>
VStem: 120 78<470.298 695.082>
LayerCount: 3
Fore
SplineSet
192 784 m 0
 199 784 203 778 202 770 c 0
 200 757 198 738 198 716 c 0
 198 671 197 617 197 589 c 0
 197 559 197 534 198 510 c 0
 200 471 204 470 248 464 c 0
 256 463 260 457 260 451 c 0
 260 445 256 439 247 439 c 0
 185 439 192 444 157 444 c 24
 122 444 126 439 67 439 c 0
 59 439 55 446 55 453 c 0
 55 459 58 464 66 464 c 0
 92 466 120 469 120 510 c 2
 120 663 l 2
 120 690 83 704 66 710 c 0
 58 713 55 718 55 723 c 0
 55 730 60 736 66 737 c 0
 124 742 185 784 192 784 c 0
EndSplineSet
Validated: 1
EndChar

StartChar: ordmasculine
Encoding: 186 186 576
Width: 342
VWidth: 0
Flags: W
HStem: 160 36<25.5434 316.263> 267 32<138.399 214.427> 490 34<125.881 206.509>
VStem: 24 79<328.749 455.378> 240 79<330.343 460.687>
LayerCount: 3
Fore
SplineSet
51 196 m 26
 304 196 l 18
 311 196 320 191 320 185 c 0
 320 184 319 183 319 182 c 8
 311 169 300 160 283 160 c 26
 40 160 l 26
 32 160 24 166 24 172 c 0
 24 181 36 196 51 196 c 26
166 490 m 0
 121 490 103 447 103 401 c 0
 103 346 133 299 177 299 c 0
 221 299 240 341 240 389 c 0
 240 441 211 490 166 490 c 0
178 524 m 0
 252 524 319 469 319 404 c 0
 319 334 267 267 164 267 c 0
 88 267 24 315 24 387 c 0
 24 461 94 524 178 524 c 0
EndSplineSet
Validated: 1
EndChar

StartChar: guillemotright
Encoding: 187 187 115
Width: 666
VWidth: 0
Flags: W
HStem: 380 20G<99 106.5 311 318.5>
LayerCount: 3
Fore
SplineSet
136 37 m 0
 123 24 114 19 106 19 c 0
 101 19 97 25 97 31 c 0
 97 55 180 147 252 203 c 0
 262 209 262 211 252 217 c 0
 177 275 95 362 95 391 c 0
 95 397 97 400 101 400 c 0
 112 400 124 388 130 382 c 0
 199 316 254 279 356 218 c 0
 358 217 359 214 359 211 c 0
 359 202 351 187 341 182 c 0
 282 155 205 106 136 37 c 0
348 37 m 0
 335 24 326 19 318 19 c 0
 313 19 309 25 309 31 c 0
 309 55 392 147 464 203 c 0
 474 209 474 211 464 217 c 0
 389 275 307 362 307 391 c 0
 307 397 309 400 313 400 c 0
 324 400 336 388 342 382 c 0
 411 316 466 279 568 218 c 0
 570 217 571 214 571 211 c 0
 571 202 563 187 553 182 c 0
 494 155 417 106 348 37 c 0
EndSplineSet
Validated: 1
EndChar

StartChar: onequarter
Encoding: 188 188 1072
Width: 672
VWidth: 0
Flags: W
HStem: -10 21G<534.5 540.5> 106 42<427 526 594 660.146> 282 26<39.1436 92.4421 189.08 243.953> 608 20G<175 179.5> 635 20G<594 607.5>
VStem: 104 78<313.843 539.082> 526 68<0.975342 103.947 148.046 264.092>
LayerCount: 3
Fore
SplineSet
123 -11 m 26
 562 638 l 26
 572 652 585 655 603 655 c 24
 612 655 622 645 617 638 c 26
 179 -11 l 26
 170 -24 156 -26 140 -26 c 24
 130 -26 117 -18 123 -11 c 26
518 148 m 2
 521 148 526 150 526 153 c 2
 526 263 l 2
 526 265 522 266 520 264 c 24
 482 222 456 190 427 153 c 0
 426 151 424 148 427 148 c 2
 518 148 l 2
616 107 m 0
 609 107 594 106 594 102 c 2
 594 19 l 2
 594 4 543 -10 538 -10 c 0
 531 -10 526 -8 526 -2 c 2
 526 99 l 2
 526 103 518 104 517 104 c 0
 468 104 434 101 371 100 c 0
 367 100 362 106 365 108 c 0
 410 164 459 219 506 273 c 0
 519 288 543 313 568 338 c 24
 573 343 580 349 584 350 c 0
 588 351 591 345 591 342 c 0
 591 316 591 225 594 151 c 24
 594 149 595 147 597 147 c 18
 615 147 l 2
 629 147 640 147 656 148 c 0
 659 148 663 146 663 143 c 0
 663 129 653 106 650 106 c 0
 639 106 626 107 616 107 c 0
168 626 m 0
 171 627 174 628 176 628 c 0
 183 628 187 622 186 614 c 0
 184 600 182 576 182 544 c 0
 182 500 181 464 181 433 c 0
 181 403 182 378 182 354 c 0
 183 315 188 314 232 308 c 0
 240 307 244 300 244 294 c 0
 244 288 240 282 231 282 c 0
 169 282 176 287 141 287 c 24
 106 287 110 282 51 282 c 0
 43 282 39 290 39 297 c 0
 39 303 42 308 50 308 c 0
 77 310 104 313 104 354 c 2
 104 507 l 2
 104 534 67 548 50 554 c 0
 42 557 39 562 39 567 c 0
 39 574 44 580 50 581 c 0
 108 586 154 620 168 626 c 0
EndSplineSet
Validated: 1
EndChar

StartChar: onehalf
Encoding: 189 189 1074
Width: 730
VWidth: 0
Flags: W
HStem: -6 52<517.779 665.236> 270 54<498.336 580.383> 282 26<39.1436 92.4421 189.08 243.953> 608 20G<175 179.5> 635 20G<581 593.5>
VStem: 104 78<313.843 539.082> 595 73<174.653 256.329>
LayerCount: 3
Fore
SplineSet
459 232 m 1xde
 454 222 443 226 443 237 c 0
 443 257 494 324 570 324 c 0
 625 324 668 282 668 231 c 16
 668 197 649 177 630 152 c 0
 605 119 526 60 518 52 c 0
 513 48 527 46 531 46 c 2
 607 46 l 2
 640 46 672 66 688 96 c 0
 690 101 698 105 705 104 c 16
 708 104 709 102 709 99 c 0
 709 98 708 96 708 95 c 0
 693 59 683 35 676 4 c 0
 674 -10 667 -10 662 -9 c 0
 605 -6 605 -6 568 -6 c 24
 520 -6 496 -6 445 -8 c 0
 439 -9 436 1 445 8 c 2
 484 48 l 2
 500 64 595 142 595 207 c 0
 595 244 568 270 538 270 c 0
 502 270 487 262 459 232 c 1xde
123 -11 m 26
 549 638 l 26
 558 652 572 655 590 655 c 16
 597 655 604 648 604 642 c 0
 604 641 604 639 603 638 c 10
 177 -11 l 26
 169 -24 156 -26 140 -26 c 24
 131 -26 117 -18 123 -11 c 26
168 626 m 0
 171 627 174 628 176 628 c 0
 183 628 187 622 186 614 c 0
 184 600 182 576 182 544 c 0
 182 500 181 464 181 433 c 0
 181 403 182 378 182 354 c 0
 183 315 188 314 232 308 c 0
 240 307 244 300 244 294 c 0
 244 288 240 282 231 282 c 0
 169 282 176 287 141 287 c 24
 106 287 110 282 51 282 c 0
 43 282 39 290 39 297 c 0
 39 303 42 308 50 308 c 0xbe
 77 310 104 313 104 354 c 2
 104 507 l 2
 104 534 67 548 50 554 c 0
 42 557 39 562 39 567 c 0
 39 574 44 580 50 581 c 0
 108 586 154 620 168 626 c 0
EndSplineSet
Validated: 1
EndChar

StartChar: threequarters
Encoding: 190 190 1073
Width: 669
VWidth: 0
Flags: W
HStem: -10 21G<531.5 537.5> 100 8<362.115 364.112> 106 42<424 523 591 657.146> 273 35<88.9331 184.547> 450 11<88 93.8359> 456 33<140 186> 584 48<98.7422 183.045> 635 20G<591 604.5>
VStem: 189 73<524.788 576.71> 207 68<338.279 435.298> 523 68<0.975342 103.947 148.046 264.092>
LayerCount: 3
Fore
SplineSet
124 273 m 0x9760
 92 273 50 278 50 307 c 0
 50 315 59 335 68 335 c 0
 74 335 79 332 81 330 c 0
 93 322 118 308 148 308 c 0
 161 308 207 323 207 381 c 8
 207 420 178 456 140 456 c 0x9760
 130 456 113 453 102 450 c 0
 96 448 82 456 88 461 c 24
 103 476 123 477 136 486 c 0
 165 506 189 515 189 547 c 16
 189 568 161 584 144 584 c 0
 122 584 97 574 74 554 c 0
 71 551 68 547 64 548 c 24
 60 550 55 555 58 559 c 0
 74 590 106 632 158 632 c 1
 218 631 262 612 262 561 c 0x9ba0
 262 536 232 512 186 494 c 0
 181 492 181 489 186 489 c 8
 243 487 275 445 275 401 c 16
 275 320 181 273 124 273 c 0x9760
117 -11 m 10
 559 638 l 26
 569 652 582 655 600 655 c 24
 609 655 619 645 614 638 c 26
 172 -11 l 26
 163 -24 150 -26 134 -26 c 16
 125 -26 115 -20 115 -14 c 0
 115 -13 116 -12 117 -11 c 10
515 148 m 2xb320
 518 148 523 150 523 153 c 2
 523 263 l 2
 523 265 519 266 517 264 c 24
 479 222 453 190 424 153 c 0
 423 151 421 148 424 148 c 2
 515 148 l 2xb320
613 107 m 0
 606 107 591 106 591 102 c 2
 591 19 l 2
 591 4 540 -10 535 -10 c 0
 528 -10 523 -8 523 -2 c 2
 523 99 l 2
 523 103 515 104 514 104 c 0
 465 104 431 101 368 100 c 0
 365 100 361 104 361 107 c 0
 361 108 362 108 362 108 c 1xd320
 407 164 455 219 502 273 c 0
 515 288 540 313 564 338 c 24
 569 343 576 349 580 350 c 1
 581 350 l 2
 585 350 589 345 589 342 c 0
 589 316 588 225 591 151 c 24
 591 149 592 147 594 147 c 18
 612 147 l 2
 626 147 637 147 653 148 c 0
 656 148 660 146 660 143 c 0
 660 129 650 106 647 106 c 0
 636 106 623 107 613 107 c 0
EndSplineSet
Validated: 33
EndChar

StartChar: questiondown
Encoding: 191 191 1030
Width: 402
VWidth: 0
Flags: W
HStem: -181 92<228.588 349.927> 374 120<204.837 325.163>
VStem: 65 72<-7.71861 89.5> 187 156<392.657 475.343> 264 69<222.756 272.229>
LayerCount: 3
Fore
SplineSet
265 374 m 24xf0
 222 374 187 401 187 434 c 24
 187 467 222 494 265 494 c 24
 308 494 343 467 343 434 c 24
 343 401 308 374 265 374 c 24xf0
314 -181 m 0
 274 -181 223 -164 183 -131 c 0
 115 -75 65 14 65 65 c 0
 65 114 94 149 118 160 c 0
 171 184 188 192 227 213 c 0
 261 231 263 244 264 276 c 0
 264 286 270 299 283 299 c 0
 292 299 307 286 312 270 c 0
 320 249 333 228 333 183 c 0xe8
 333 149 286 125 210 93 c 0
 176 79 137 51 137 22 c 0
 137 -44 176 -92 257 -93 c 0
 280 -93 290 -89 313 -89 c 0
 338 -89 363 -118 363 -145 c 0
 363 -164 335 -181 314 -181 c 0
EndSplineSet
Validated: 1
EndChar

StartChar: AE
Encoding: 198 198 1001
Width: 960
VWidth: 0
Flags: W
HStem: -5 33<-2.95135 68.5954 402.687 486.53> 1 34<237.941 317.143 633.466 866.732> 284 44<351.004 507 610.382 773.003> 598 50<488.875 507> 618 35<612.472 841.422> 626 25<343.02 394.067>
VStem: -5 228<2 86.5> 507 103<53.6382 283.888 332.239 597.55> 783 42<223.771 275.2>
AnchorPoint: "top_accent" 617 700 basechar 0
LayerCount: 3
Fore
SplineSet
610 354 m 2x2b80
 610 343 618 332 628 332 c 0
 671 332 701 333 725 334 c 0
 744 335 758 336 770 347 c 0
 779 355 783 359 788 371 c 0
 790 376 801 388 806 388 c 0
 811 388 820 381 819 372 c 0
 820 349 821 331 821 313 c 0
 821 290 822 268 825 239 c 0
 825 230 823 222 813 222 c 8
 796 222 786 238 783 245 c 0
 773 276 752 283 736 284 c 0
 694 286 672 286 633 286 c 0
 621 286 610 279 610 263 c 2
 610 111 l 2
 610 73 631 35 679 35 c 2
 789 35 l 2x6b80
 794 35 855 43 869 53 c 0
 888 67 906 99 914 116 c 0
 918 124 922 127 929 126 c 16
 936 125 942 121 942 115 c 0
 942 77 933 43 924 12 c 0
 922 4 920 -5 909 -5 c 0xa380
 781 -5 681 1 579 1 c 2
 557 1 l 10x6380
 508 1 492 -5 433 -5 c 0xa380
 415 -5 401 -2 401 6 c 0
 401 15 411 20 434 24 c 0
 483 33 507 50 507 96 c 2
 507 266 l 2
 507 276 505 284 485 284 c 2
 344 284 l 10
 329 284 321 274 314 261 c 0
 288 217 264 174 232 112 c 0
 226 101 223 91 223 82 c 0
 223 50 259 37 288 30 c 0
 311 24 321 19 321 10 c 0
 321 2 307 -1 287 -1 c 0
 266 -1 223 1 180 1 c 0x6380
 126 1 69 -5 30 -5 c 0
 10 -5 -5 -2 -5 6 c 0
 -5 15 8 21 33 28 c 0
 71 38 118 78 150 126 c 2
 458 594 l 2
 464 602 454 610 441 611 c 1
 353 626 l 1
 346 629 343 634 343 639 c 0
 343 645 348 651 354 651 c 0xa780
 399 651 470 648 543 648 c 16x3380
 664 648 822 653 868 653 c 2
 877 653 l 2
 885 653 895 651 896 644 c 0
 904 606 908 576 909 541 c 0
 909 535 899 532 891 532 c 0
 882 532 879 535 876 542 c 0
 869 564 861 581 852 591 c 0
 832 612 809 618 783 618 c 2
 647 618 l 2
 636 618 610 610 610 592 c 2
 610 354 l 2x2b80
491 581 m 2
 355 343 l 2
 352 338 351 335 351 333 c 0
 351 329 356 328 367 328 c 2
 491 328 l 2
 506 328 507 328 507 343 c 2
 507 580 l 2
 507 592 507 598 504 598 c 0x3380
 501 598 497 592 491 581 c 2
EndSplineSet
Validated: 1
Substitution2: "c2sc subtable" AE.sc
EndChar

StartChar: multiply
Encoding: 215 215 1028
Width: 588
VWidth: 0
Flags: W
LayerCount: 3
Fore
SplineSet
285 299 m 2
 290 294 290 296 292 298 c 2
 436 441 l 2
 439 444 442 446 446 446 c 0
 449 446 453 444 455 441 c 0
 462 428 472 413 472 401 c 0
 472 396 470 391 465 386 c 2
 334 255 l 2
 331 253 331 252 334 250 c 2
 477 107 l 2
 480 104 482 100 482 95 c 0
 482 77 463 53 452 53 c 0
 448 53 445 54 442 57 c 2
 293 207 l 2
 291 209 288 209 286 207 c 2
 143 64 l 10
 138 59 129 59 125 63 c 0
 120 68 103 87 103 102 c 0
 103 106 105 111 108 114 c 2
 242 248 l 2
 247 252 246 254 241 258 c 2
 120 379 l 2
 116 383 115 388 115 393 c 0
 115 409 128 430 131 434 c 0
 136 439 145 439 150 434 c 18
 285 299 l 2
EndSplineSet
Validated: 1
Substitution2: "Smallcaps subtable" multiply.sc
EndChar

StartChar: Oslash
Encoding: 216 216 1010
Width: 827
VWidth: 0
Flags: W
HStem: -14 39<340.764 522.614> 625 39<318.234 503.762>
VStem: 48 126<215.981 444.186> 653 126<210.575 440.054>
AnchorPoint: "cedilla" 439 8 basechar 0
AnchorPoint: "below_accent" 397 -100 basechar 0
AnchorPoint: "top_accent" 410 700 basechar 0
LayerCount: 3
Fore
SplineSet
407 625 m 0
 259 625 174 490 174 350 c 0
 174 281 188 215 218 161 c 1
 595 529 l 1
 554 590 490 625 407 625 c 0
82 -14 m 0
 64 -14 47 -4 47 6 c 0
 47 13 52 20 60 26 c 2
 157 100 l 1
 89 158 48 234 48 320 c 0
 48 501 175 664 410 664 c 0
 498 664 583 633 646 579 c 1
 748 658 l 2
 757 665 775 663 779 654 c 0
 780 650 783 644 783 639 c 0
 783 632 780 626 774 621 c 2
 680 549 l 1
 741 494 779 420 779 335 c 0
 779 155 655 -14 425 -14 c 0
 339 -14 257 17 193 69 c 1
 93 -11 l 2
 91 -13 87 -14 82 -14 c 0
616 492 m 1
 243 123 l 1
 288 64 354 25 427 25 c 0
 577 25 653 134 653 305 c 0
 653 377 641 441 616 492 c 1
EndSplineSet
Validated: 33
Substitution2: "c2sc subtable" Oslash.sc
EndChar

StartChar: Thorn
Encoding: 222 222 1006
Width: 607
VWidth: 0
Flags: W
HStem: -5 29<21.6016 99.3985 270.602 348.398> 133 30<238.168 362.873> 490 34<243.154 374.556> 622 31<44.0745 113.782 266.835 346.926>
VStem: 133 104<47.125 135.998 165.377 484.423 512.007 601.154> 449 120<270.253 420.284>
LayerCount: 3
Fore
SplineSet
283 133 m 0
 268 133 256 136 246 136 c 0
 242 136 237 133 237 127 c 2
 237 95 l 2
 237 53 266 33 316 24 c 0
 339 20 349 15 349 6 c 0
 349 -2 336 -5 318 -5 c 0
 260 -5 241 0 191 0 c 24
 137 0 110 -5 52 -5 c 0
 34 -5 21 -2 21 6 c 0
 21 15 31 20 54 24 c 0
 104 33 133 51 133 99 c 2
 133 549 l 2
 133 588 126 613 76 622 c 0
 53 626 43 633 43 642 c 0
 43 650 56 653 74 653 c 0
 133 653 142 650 187 650 c 24
 237 650 257 653 316 653 c 0
 334 653 348 650 348 642 c 0
 348 633 338 626 315 622 c 0
 265 613 237 597 237 549 c 2
 237 532 l 2
 237 521 236 512 243 512 c 0
 246 512 268 517 269 517 c 0
 290 522 318 524 347 524 c 0
 466 524 569 465 569 347 c 0
 569 302 531 219 483 185 c 0
 433 150 343 133 283 133 c 0
261 165 m 0
 270 164 279 163 288 163 c 0
 328 163 365 174 385 189 c 8
 435 226 449 276 449 334 c 0
 449 411 398 490 322 490 c 0
 319 490 315 490 312 490 c 0
 278 490 240 489 237 461 c 1
 236 401 234 352 234 300 c 0
 234 263 236 226 236 183 c 0
 236 175 253 166 261 165 c 0
EndSplineSet
Validated: 1
Substitution2: "c2sc subtable" Thorn.sc
EndChar

StartChar: germandbls
Encoding: 223 223 21
Width: 572
VWidth: 0
Flags: W
HStem: -12 56<331.082 438.72> -3 27<25.0382 73.9714 195.029 243.908> 352 24<27.0248 63.1752> 665 41<250.38 389.323>
VStem: 89 91<32.4474 350 389.856 531.802> 266 103<322.647 379.628> 436 82<504.76 622.8> 476 68<79.8976 145.45>
LayerCount: 3
Fore
SplineSet
314 264 m 2xbd
 286 286 266 305 266 336 c 0
 266 383 334 410 388 458 c 0
 415 482 436 519 436 555 c 0
 436 600 414 665 304 665 c 0
 234 665 180 609 180 475 c 2
 180 69 l 2
 180 41 202 30 222 24 c 0
 233 20 245 16 245 6 c 0
 245 -4 225 -3 219 -3 c 0
 176 -3 174 2 135 2 c 0
 96 2 92 -3 49 -3 c 0
 43 -3 24 -4 24 6 c 0
 24 16 36 20 47 24 c 0
 67 30 89 41 89 69 c 2
 89 350 l 1
 76 350 58 350 37 352 c 0
 33 353 26 362 26 369 c 0
 26 372 28 375 30 376 c 0
 60 384 71 392 89 402 c 1
 89 633 243 706 345 706 c 0
 445 706 518 643 518 572 c 0x7e
 518 520 488 492 465 473 c 2
 427 443 l 1
 403 421 369 406 369 364 c 0
 369 353 372 338 390 323 c 2
 494 233 l 1
 529 205 544 179 544 140 c 0
 544 71 458 16 420 0 c 0
 391 -12 376 -12 332 -12 c 0
 313 -12 262 6 262 29 c 0
 262 46 275 84 296 84 c 0
 300 84 303 82 307 80 c 0
 339 59 371 44 408 44 c 0
 439 44 476 58 476 98 c 0
 476 134 447 156 397 196 c 2
 314 264 l 2xbd
EndSplineSet
Validated: 1
Substitution2: "Smallcaps subtable" germandbls.sc
EndChar

StartChar: ae
Encoding: 230 230 1013
Width: 608
VWidth: 0
Flags: W
HStem: -14 60<375.967 509.478> -14 46<107.5 221.807> 365 49<168.391 265.5> 378 35<381.413 475.093>
VStem: 33 104<42.662 118.552> 263 90<69.2289 171.994 243.909 350.475> 502 90<289.173 356.371>
AnchorPoint: "top_accent" 339 550 basechar 0
LayerCount: 3
Fore
SplineSet
143 332 m 0x6e
 140 327 139 320 139 313 c 0
 139 308 140 304 140 299 c 0
 140 285 67 264 50 264 c 0
 42 264 40 270 40 273 c 0
 40 294 57 320 85 342 c 0
 120 370 194 414 254 414 c 0x6e
 277 414 316 395 325 381 c 0
 328 375 331 375 339 380 c 0
 366 397 423 413 460 413 c 0
 519 413 592 383 592 318 c 0
 592 296 581 291 566 284 c 0
 552 277 401 218 364 203 c 0
 357 200 352 190 352 185 c 2
 352 129 l 2
 352 63 401 46 449 46 c 0
 493 46 536 57 571 94 c 0
 574 97 578 98 581 98 c 0
 589 98 595 93 595 87 c 0
 595 86 595 84 594 83 c 0
 544 19 495 -14 409 -14 c 0x9e
 365 -14 320 0 285 26 c 0
 282 29 272 38 270 38 c 0
 268 38 264 37 261 34 c 0
 243 22 208 -13 131 -14 c 0
 84 -14 33 26 33 65 c 0
 33 107 60 133 115 155 c 10
 231 202 l 18
 260 214 263 217 263 233 c 2
 263 299 l 26
 263 334 240 365 203 365 c 0
 179 365 151 346 143 332 c 0x6e
353 321 m 1
 353 254 l 2
 353 244 363 242 368 244 c 0
 417 264 476 284 495 292 c 0
 501 294 502 300 502 306 c 0
 502 315 499 325 498 328 c 0
 483 365 458 378 428 378 c 0x1e
 411 378 354 356 353 321 c 1
137 87 m 1
 137 49 167 32 186 32 c 0x4e
 212 32 232 45 248 59 c 0
 255 65 262 71 262 96 c 2
 262 148 l 2
 262 164 262 172 254 172 c 0
 238 172 139 139 137 87 c 1
EndSplineSet
Validated: 1
Substitution2: "Smallcaps subtable" ae.sc
Ligature2: "LATliga subtable" a e
LCarets2: 1 0 
EndChar

StartChar: ccedilla
Encoding: 231 231 159
Width: 411
VWidth: 0
Flags: W
HStem: -274 49<157.685 243.74> -14 52<214.584 228> 376 37<182.164 308.199>
VStem: 33 90<134.4 277.741> 255 65<-202.882 -134.075>
AnchorPoint: "below_accent" 218 -100 basechar 0
AnchorPoint: "top_accent" 249 550 basechar 0
LayerCount: 3
Back
SplineSet
164 -129 m 0
 163 -129 163 -129 162 -129 c 0
 154 -129 138 -118 149 -104 c 2
 220 -14 l 1
 215 -14 211 -14 206 -14 c 0
 105 -14 35 77 35 180 c 0
 35 303 123 413 246 413 c 0
 289 413 336 402 366 365 c 0
 379 349 361 333 346 323 c 0
 342 320 337 319 332 319 c 0
 323 319 313 324 308 329 c 0
 275 365 264 376 214 376 c 0
 141 376 104 299 104 226 c 0
 104 130 167 38 263 38 c 0
 305 38 325 54 351 88 c 0
 354 91 357 93 360 93 c 0
 367 93 374 85 372 77 c 0
 364 49 320 7 255 -8 c 1
 229 -43 l 2
 222 -52 231 -61 236 -63 c 0
 268 -77 297 -106 297 -139 c 0
 297 -219 208 -274 172 -274 c 0
 145 -274 139 -249 144 -224 c 0
 146 -217 152 -212 159 -215 c 0
 174 -221 186 -225 208 -225 c 0
 234 -225 247 -206 247 -180 c 0
 247 -144 215 -129 180 -127 c 0
 173 -127 169 -127 164 -129 c 0
EndSplineSet
Fore
SplineSet
170 -129 m 0
 163 -129 152 -123 152 -114 c 0
 152 -111 154 -108 157 -104 c 2
 228 -14 l 2
 227 -14 226 -14 225 -14 c 0
 112 -14 33 77 33 180 c 0
 33 303 131 413 267 413 c 0
 315 413 367 402 400 365 c 0
 403 361 405 357 405 353 c 0
 405 336 376 319 365 319 c 0
 355 319 344 324 339 329 c 0
 304 365 292 376 239 376 c 0
 162 376 123 299 123 226 c 0
 123 130 190 38 291 38 c 0
 335 38 357 54 384 88 c 0
 387 91 391 93 394 93 c 0
 400 93 406 86 406 79 c 0
 406 47 342 2 264 -11 c 1
 238 -43 l 2
 236 -45 233 -49 233 -51 c 0
 233 -57 242 -62 247 -63 c 0
 286 -77 320 -106 320 -139 c 0
 320 -219 222 -274 183 -274 c 0
 153 -274 150 -252 150 -233 c 0
 150 -219 159 -214 163 -214 c 0
 170 -214 183 -225 216 -225 c 0
 242 -225 255 -206 255 -180 c 0
 255 -144 231 -123 196 -123 c 0
 183 -123 177 -129 170 -129 c 0
EndSplineSet
Validated: 1
Substitution2: "Smallcaps subtable" ccedilla.sc
EndChar

StartChar: eth
Encoding: 240 240 1032
Width: 532
VWidth: 0
Flags: W
HStem: -14 30<223.666 320.983> 380 34<200.389 327.327> 678 27<74.1497 140.485>
VStem: 24 108<113.216 278.98> 402 101<143.944 306.968>
LayerCount: 3
Fore
SplineSet
258 380 m 0
 173 380 132 293 132 210 c 0
 132 111 196 16 276 16 c 0
 356 16 402 130 402 219 c 0
 402 322 339 380 258 380 c 0
503 250 m 0
 503 133 420 -14 253 -14 c 0
 129 -14 24 66 24 186 c 0
 24 310 135 414 267 414 c 0
 301 414 336 406 366 391 c 0
 378 387 378 390 375 400 c 0
 359 459 337 516 307 552 c 1
 152 472 l 2
 144 468 138 475 138 480 c 0
 138 489 138 511 146 515 c 2
 278 584 l 1
 219 636 149 667 96 678 c 0
 87 680 74 683 74 693 c 0
 74 702 87 705 102 705 c 0
 166 705 256 671 333 612 c 1
 447 665 l 2
 456 670 476 674 476 664 c 0
 476 646 473 630 454 622 c 2
 366 583 l 1
 434 522 503 427 503 250 c 0
EndSplineSet
Validated: 1
Substitution2: "Smallcaps subtable" eth.sc
EndChar

StartChar: divide
Encoding: 247 247 1027
Width: 613
VWidth: 0
Flags: W
HStem: 69 92<255.486 356.514> 232 50<51.1638 559.626> 353 92<254.486 355.35>
VStem: 246 120<79.635 150.365 364.354 433.983>
CounterMasks: 1 e0
LayerCount: 3
Fore
SplineSet
306 161 m 24
 339 161 366 140 366 115 c 24
 366 90 339 69 306 69 c 24
 273 69 246 90 246 115 c 24
 246 140 273 161 306 161 c 24
307 445 m 24
 340 445 365 424 365 399 c 24
 365 374 338 353 305 353 c 24
 272 353 245 374 245 399 c 24
 245 425 273 445 307 445 c 24
62 232 m 10
 55 232 48 238 48 244 c 0
 48 253 54 282 73 282 c 18
 552 282 l 2
 558 282 566 277 566 271 c 0
 566 270 565 269 565 268 c 8
 559 251 553 232 533 232 c 18
 62 232 l 10
EndSplineSet
Validated: 1
Substitution2: "Smallcaps subtable" divide.sc
EndChar

StartChar: oslash
Encoding: 248 248 1009
Width: 532
VWidth: 0
Flags: W
HStem: -14 30<222.998 337.435> 380 34<198.84 314.528>
VStem: 29 108<117.968 279.815> 397 107<112.851 279.654>
AnchorPoint: "top_accent" 269 550 basechar 0
LayerCount: 3
Fore
SplineSet
257 380 m 0
 221 380 189 364 170 340 c 0
 144 307 137 258 137 210 c 0
 137 177 143 145 155 117 c 1
 362 316 l 1
 337 354 301 380 257 380 c 0
55 -15 m 0
 40 -15 24 -4 24 5 c 0
 24 12 28 20 36 25 c 2
 87 63 l 1
 51 99 29 142 29 186 c 0
 29 310 134 414 267 414 c 0
 321 414 372 394 412 361 c 1
 479 411 l 2
 483 414 488 415 493 415 c 0
 506 415 511 408 511 400 c 0
 511 391 506 380 497 374 c 2
 446 335 l 1
 481 300 504 258 504 213 c 0
 504 96 423 -14 261 -14 c 0
 209 -14 162 5 124 34 c 1
 63 -12 l 2
 60 -14 59 -15 55 -15 c 0
380 281 m 1
 174 79 l 1
 198 41 234 16 275 16 c 0
 320 16 358 33 378 72 c 0
 394 103 397 150 397 189 c 0
 397 221 391 252 380 281 c 1
EndSplineSet
Validated: 1
Substitution2: "Smallcaps subtable" oslash.sc
EndChar

StartChar: thorn
Encoding: 254 254 1005
Width: 547
VWidth: 0
Flags: W
HStem: -285 27<16.0658 69.377 182.03 235.934> -14 31<211.606 338.603> 369 45<252.453 355.171> 639 25<27.0088 53.5653> 685 20G<167 172>
VStem: 85 88<-248.689 17.9674 44.6526 337.269 348.056 616.781> 420 104<132.017 298.226>
AnchorPoint: "top_accent" 280 550 basechar 0
LayerCount: 3
Fore
SplineSet
290 17 m 0
 329 17 420 59 420 193 c 0
 420 347 327 369 284 369 c 0
 250 369 223 359 198 340 c 0
 183 329 174 310 172 269 c 1
 172 205 l 2
 172 171 172 136 173 115 c 0
 174 97 178 60 197 42 c 0
 212 28 246 17 290 17 c 0
171 -219 m 2
 171 -247 194 -252 214 -258 c 0
 225 -262 237 -266 237 -276 c 0
 237 -284 224 -285 215 -285 c 0
 214 -285 213 -285 212 -285 c 0
 169 -285 164 -280 126 -280 c 0
 88 -280 83 -285 40 -285 c 0
 39 -285 38 -285 37 -285 c 0
 28 -285 15 -284 15 -276 c 0
 15 -266 27 -262 38 -258 c 0
 58 -252 80 -247 80 -219 c 0
 83 -83 85 69 85 210 c 0
 85 351 84 479 81 566 c 0
 80 581 67 632 35 639 c 0
 30 640 27 646 27 652 c 0
 27 658 30 663 35 664 c 0
 94 676 130 692 167 704 c 0
 168 704 169 705 169 705 c 1
 175 705 178 700 178 694 c 0
 178 663 173 469 173 386 c 0
 173 363 173 349 174 348 c 1
 194 367 280 414 348 414 c 0
 459 414 524 319 524 225 c 0
 524 106 417 -14 282 -14 c 0
 252 -14 198 0 177 18 c 1
 174 18 171 -27 171 -33 c 2
 171 -219 l 2
EndSplineSet
Validated: 1
Substitution2: "Smallcaps subtable" thorn.sc
EndChar

StartChar: Aogonek
Encoding: 260 260 182
Width: 825
VWidth: 0
Flags: W
HStem: -287 71<578.519 677.391> -5 36<-0.227119 85.1579 248.015 319.475 448.124 551.151 736.021 834.722> 244 43<294.006 494.998>
VStem: -2 231<4 93.5> 447 111<-194.805 -116.603> 568 270<1 90.5>
AnchorPoint: "cedilla" 162 8 basechar 0
AnchorPoint: "below_accent" 387 -100 basechar 0
AnchorPoint: "top_accent" 416 700 basechar 0
LayerCount: 3
Fore
SplineSet
392 542 m 2
 296 302 l 2
 295 299 294 296 294 294 c 0
 294 287 302 287 316 287 c 2
 481 287 l 2
 492 287 495 287 495 292 c 0
 495 294 494 298 493 302 c 2
 410 541 l 2
 406 553 403 559 400 559 c 0
 398 559 396 553 392 542 c 2
594 -287 m 0
 513 -287 447 -237 447 -174 c 0
 447 -99 566 -30 629 1 c 1
 579 2 518 0 486 0 c 0
 464 0 448 4 448 12 c 0
 448 21 467 28 490 31 c 0
 546 38 568 54 568 76 c 0
 568 105 543 183 527 233 c 0
 524 243 517 244 498 244 c 2
 291 244 l 2
 285 244 277 240 272 226 c 0
 262 200 229 100 229 87 c 0
 229 58 255 38 287 30 c 0
 310 24 320 19 320 10 c 0
 320 2 305 -1 285 -1 c 0
 263 -1 220 1 176 1 c 0
 123 1 73 -5 33 -5 c 0
 13 -5 -2 0 -2 8 c 0
 -2 17 12 24 38 31 c 0
 79 41 115 58 141 108 c 0
 231 279 285 393 366 578 c 0
 386 620 381 635 383 636 c 0
 397 640 412 643 426 651 c 0
 443 660 445 676 451 676 c 0
 457 676 459 671 463 662 c 0
 540 459 637 223 677 128 c 0
 711 48 750 35 798 28 c 0
 826 24 838 14 838 5 c 0
 838 -3 822 -5 800 -5 c 0
 773 -5 718 -2 669 0 c 1
 627 -28 558 -85 558 -155 c 0
 558 -190 598 -216 643 -216 c 0
 688 -216 735 -181 747 -176 c 0
 753 -173 763 -174 763 -182 c 0
 763 -225 664 -287 594 -287 c 0
EndSplineSet
Validated: 33
Substitution2: "c2sc subtable" Aogonek.sc
EndChar

StartChar: aogonek
Encoding: 261 261 183
Width: 441
VWidth: 0
Flags: W
HStem: -287 66<310.794 384.913> -14 46<109 225.67> 365 49<170.591 286.5>
VStem: 33 104<42.662 119.323> 199 96<-205.013 -116.311> 260 95<109 168.996 200.77 353.486> 260 88<59.2835 168.996 200.77 325>
LayerCount: 3
Back
SplineSet
80 343 m 0xf4
 110 371 176 414 229 414 c 0
 277 414 312 372 311 325 c 2
 306 109 l 2xf4
 305 76 312 32 342 32 c 0
 360 32 371 36 382 46 c 0
 389 53 397 45 397 34 c 0
 397 31 373 6 352 -4 c 9
 316.509765625 -58.2099609375 261 -108 261 -143 c 0
 261 -187 290 -202 313 -202 c 0
 341 -202 363 -187 372 -179 c 0
 376 -176 387 -185 385 -191 c 4
 376 -217 332 -262 282 -262 c 0
 240 -262 193 -241 193 -167 c 0xf8
 193 -108 241 -58 310 -14 c 1
 260 -9 252 38 244 38 c 0
 231 38 203 -13 121 -14 c 0
 80 -14 35 26 35 65 c 0
 35 107 59 135 108 155 c 2
 210 197 l 2
 236 208 237 210 238 237 c 2
 240 299 l 2
 241 334 218 365 181 365 c 0
 157 365 127 347 120 333 c 0
 117 328 116 321 116 314 c 0
 116 309 117 305 117 300 c 0
 117 286 61 265 48 265 c 0
 42 265 40 271 40 274 c 0
 40 295 55 321 80 343 c 0xf4
115 87 m 0
 115 49 145 32 164 32 c 0
 190 32 208 45 224 59 c 0
 231 65 236 74 236 99 c 1
 238 148 l 2
 239 163 235 168 227 168 c 0
 224 168 220 167 215 166 c 0
 139 144 115 110 115 87 c 0
EndSplineSet
Fore
SplineSet
317 -287 m 0xf8
 249 -287 199 -253 199 -179 c 0xf8
 199 -109 281 -47 339 -12 c 1
 291 -2 283 38 275 38 c 0
 260 38 228 -13 133 -14 c 0
 85 -14 33 26 33 65 c 0
 33 107 60 135 115 155 c 2
 229 197 l 2
 258 208 259 210 260 237 c 2
 263 299 l 1
 263 301 l 2
 263 335 240 365 204 365 c 0
 180 365 151 347 143 333 c 0
 140 328 139 321 139 314 c 0
 139 309 140 305 140 300 c 0
 140 286 67 265 50 265 c 0
 42 265 40 271 40 274 c 0
 40 295 57 321 86 343 c 0
 122 371 197 414 259 414 c 0
 314 414 356 374 355 325 c 2xf4
 348 109 l 2
 348 107 348 105 348 103 c 0xf2
 348 66 357 32 384 32 c 0
 402 32 413 36 424 46 c 0
 430 52 440 45 440 37 c 0
 440 36 439 35 439 34 c 0
 437 29 413 3 385 -9 c 1
 346 -37 295 -85 295 -152 c 0
 295 -196 324 -221 361 -221 c 0
 399 -221 420 -200 425 -200 c 0
 429 -200 434 -201 434 -207 c 0
 434 -226 382 -287 317 -287 c 0xf8
137 87 m 0
 137 49 167 32 186 32 c 0
 212 32 230 45 246 59 c 0
 253 65 257 74 258 99 c 2
 260 148 l 2xf4
 261 163 259 169 251 169 c 0
 248 169 242 168 237 166 c 0
 160 140 137 110 137 87 c 0
EndSplineSet
Validated: 33
Substitution2: "Smallcaps subtable" aogonek.sc
EndChar

StartChar: dcaron
Encoding: 271 271 193
Width: 551
VWidth: 0
Flags: W
HStem: -19 50<206.668 306.219> 21 24<470.008 544.824> 379 35<194.976 311.977> 639 25<313.013 350.52> 684 20<454 464.5> 685 20G<554.5 576>
VStem: 33 96<111.575 283.185> 372 91<62.7966 323.828 384.004 628.506> 499 89<588.276 689.048>
LayerCount: 3
Fore
SplineSet
499 657 m 4x3780
 499 683 541 705 568 705 c 4
 584 705 588 691 588 675 c 4
 588 670 588 666 587 661 c 4
 574 592 557 568 538 537 c 4
 530 525 515 512 509 512 c 4
 504 512 501 522 501 535 c 0
 501 554 505 578 505 584 c 4
 505 601 499 624 499 657 c 4x3780
EndSplineSet
Refer: 11 100 N 1 0 0 1 0 0 2
Validated: 1
Substitution2: "Smallcaps subtable" dcaron.sc
EndChar

StartChar: Dcroat
Encoding: 272 272 995
Width: 803
VWidth: 0
Flags: W
HStem: -7 35<29.1115 111.208 274.726 470.613> 316 37<45.0348 128 233 410.244> 628 31<28.2342 94.1585 252.999 454.54>
VStem: 128 105<62.1482 316 353 605.889> 632 124<218.473 461.507>
LayerCount: 3
Fore
SplineSet
632 346 m 0
 632 503 525 628 368 628 c 0
 281 628 233 627 233 567 c 2
 233 353 l 1
 400 353 l 2
 406 353 414 348 414 342 c 0
 414 341 413 340 413 339 c 0
 406 326 397 316 382 316 c 2
 233 316 l 1
 233 121 l 2
 233 80 247 66 268 50 c 0
 292 32 315 28 340 28 c 0
 358 28 377 30 399 30 c 0
 552 30 632 193 632 346 c 0
396 -7 m 0
 374 -7 257 0 172 0 c 0
 129 0 116 -5 59 -5 c 0
 41 -5 28 -2 28 6 c 0
 28 15 38 20 61 24 c 0
 111 33 128 51 128 99 c 2
 128 316 l 1
 59 316 l 2
 50 316 45 328 45 334 c 0
 45 343 57 353 69 353 c 2
 128 353 l 1
 128 549 l 2
 128 597 111 613 61 622 c 0
 38 626 28 633 28 642 c 0
 28 650 41 653 59 653 c 0
 117 653 127 651 171 651 c 2
 179 651 l 2
 225 651 334 659 363 659 c 0
 655 659 756 530 756 335 c 0
 756 149 602 -7 396 -7 c 0
EndSplineSet
Validated: 1
Substitution2: "c2sc subtable" Dcroat.sc
EndChar

StartChar: Eogonek
Encoding: 280 280 200
Width: 601
VWidth: 0
Flags: W
HStem: -287 71<419.318 500.474> -5 40<246.04 457 471.678 512.297> -5 29<22.6016 98.9253> 319 33<234.152 414.414> 388 20G<457 463> 622 31<30.0745 106.441 245.477 478.234>
VStem: 129 104<47.5038 318.172 352 605.889> 290 111<-197.784 -115.892> 525 33<526.116 577.02>
LayerCount: 3
Fore
SplineSet
424 -287 m 0xdf80
 350 -287 290 -237 290 -174 c 0
 290 -103 395 -37 457 -4 c 1
 358 -2 273 1 187 1 c 0
 135 1 117 -5 55 -5 c 0
 35 -5 22 -2 22 6 c 0
 22 15 32 20 55 24 c 0xbf80
 105 33 129 51 129 99 c 2
 129 549 l 2
 129 597 112 613 62 622 c 0
 39 626 29 633 29 642 c 0
 29 650 42 653 62 653 c 0
 148 653 185 650 265 650 c 0
 369 650 509 653 520 653 c 0
 528 653 540 651 541 644 c 0
 549 606 558 568 558 541 c 0
 558 529 547 526 539 526 c 0
 530 526 528 529 525 536 c 0
 517 558 510 581 500 591 c 0
 478 612 452 618 423 618 c 2
 274 618 l 2
 261 618 233 605 233 586 c 2
 233 374 l 2
 233 362 242 352 254 352 c 2
 367 352 l 2
 401 352 427 368 439 391 c 0
 441 396 454 408 460 408 c 0
 466 408 475 402 475 392 c 0
 475 383 471 353 471 337 c 0
 471 317 474 276 474 268 c 0
 474 259 472 251 462 251 c 0
 445 251 435 267 432 274 c 0
 420 305 399 319 379 319 c 2
 272 319 l 2
 246 319 233 316 233 293 c 2
 233 102 l 2
 233 51 257 35 308 35 c 2
 427 35 l 2xdf80
 484 35 498 43 513 53 c 0
 534 67 552 99 561 116 c 0
 566 124 569 127 577 126 c 0
 585 125 592 123 592 115 c 0
 592 97 581 38 573 12 c 0
 571 3 567 -5 558 -5 c 0xbf80
 536 -5 515 -5 494 -5 c 1
 457 -34 401 -88 401 -155 c 0
 401 -190 435 -216 474 -216 c 0
 513 -216 556 -181 566 -176 c 0
 572 -173 579 -174 579 -182 c 0
 579 -225 488 -287 424 -287 c 0xdf80
EndSplineSet
Validated: 1
Substitution2: "c2sc subtable" Eogonek.sc
EndChar

StartChar: eogonek
Encoding: 281 281 201
Width: 445
VWidth: 0
Flags: W
HStem: -287 66<272.08 347.796> -14 60<197.938 312.958> 256 32<128.038 321.874> 383 31<186.439 302.725>
VStem: 28 82<137.147 255.179> 160 96<-205.013 -110.417> 334 82<292.5 361.258>
LayerCount: 3
Fore
SplineSet
279 -287 m 0
 210 -287 160 -253 160 -179 c 0
 160 -107 234 -43 284 -9 c 1
 267 -12 249 -14 229 -14 c 0
 121 -14 28 70 28 203 c 0
 28 316 130 414 264 414 c 0
 360 414 416 375 416 322 c 0
 416 289 408 274 392 267 c 0
 376 260 353 256 328 256 c 2
 138 256 l 2
 120 256 110 253 110 219 c 0
 110 129 179 46 283 46 c 0
 312 46 362 56 392 90 c 0
 395 93 401 97 404 97 c 0
 413 97 414 85 411 77 c 0
 405 59 386 35 354 16 c 1
 336 4 256 -55 256 -152 c 0
 256 -196 284 -221 322 -221 c 0
 361 -221 382 -200 388 -200 c 0
 392 -200 397 -201 397 -207 c 0
 397 -226 345 -287 279 -287 c 0
243 383 m 0
 180 383 128 329 128 303 c 0
 128 295 134 288 150 288 c 2
 242 288 l 2
 274 288 299 289 323 293 c 0
 331 294 334 310 334 321 c 0
 334 361 287 383 243 383 c 0
EndSplineSet
Validated: 1
Substitution2: "Smallcaps subtable" eogonek.sc
EndChar

StartChar: Hbar
Encoding: 294 294 994
Width: 854
VWidth: 0
Flags: W
HStem: -5 29<35.6367 107.801 272.294 343.398 523.602 594.618 744.673 815.302> 301 49<232 623.919> 455 37<50.0348 128 232 624 728 805.273> 622 31<43.0745 114.701 257.842 331.926 526.074 598.241 743.262 812.926>
VStem: 128 104<53.5983 301 350 455 492 603.314> 624 104<44.8548 301 350 455 492 604.033>
AnchorPoint: "below_accent" 445 -100 basechar 0
AnchorPoint: "top_accent" 428 700 basechar 0
LayerCount: 3
Back
SplineSet
715 100 m 1
 716 51 720 33 770 24 c 0
 793 20 803 15 803 6 c 0
 803 -2 791 -5 774 -5 c 0
 720 -5 711 0 670 0 c 0
 628 0 617 -5 563 -5 c 0
 546 -5 534 -2 534 6 c 0
 534 15 544 20 567 24 c 0
 609 32 635 54 635 97 c 1
 636 122 636 147 636 170 c 0
 636 216 635 258 635 297 c 0
 635 304 633 304 630 304 c 0
 552 304 491 305 430 305 c 0
 368 305 306 304 226 304 c 0
 221 304 221 301 221 293 c 0
 221 235 222 183 222 106 c 0
 222 64 254 32 300 24 c 0
 323 20 333 15 333 6 c 0
 333 -2 321 -5 304 -5 c 0
 250 -5 233 0 187 0 c 0
 144 0 131 -5 77 -5 c 0
 60 -5 48 -2 48 6 c 0
 48 15 58 20 81 24 c 0
 131 33 141 51 141 99 c 2
 141 456 l 5
 76 456 l 6
 67 456 62 468 62 474 c 4
 62 483 74 492 86 492 c 6
 141 492 l 5
 141 551 l 2
 141 597 138 613 88 622 c 0
 65 626 55 633 55 642 c 0
 55 650 67 653 84 653 c 0
 138 653 147 650 187 650 c 0
 228 650 239 653 293 653 c 0
 310 653 322 650 322 642 c 0
 322 633 312 626 289 622 c 0
 239 613 221 590 221 551 c 2
 221 492 l 5
 634 492 l 5
 634 552 l 2
 634 588 619 613 569 622 c 0
 546 626 536 633 536 642 c 0
 536 650 548 653 565 653 c 0
 619 653 636 650 681 650 c 0
 717 650 718 653 772 653 c 0
 789 653 801 650 801 642 c 0
 801 633 791 626 768 622 c 0
 718 613 715 590 715 552 c 2
 715 492 l 5
 782 492 l 6
 789 492 798 485 795 478 c 4
 788 465 779 456 764 456 c 6
 715 456 l 5
 715 100 l 1
634 456 m 5
 221 456 l 5
 221 359 l 2
 221 351 229 350 235 350 c 0
 312 348 372 348 432 348 c 0
 492 348 552 348 628 350 c 0
 633 350 635 353 635 362 c 0
 635 395 635 423 634 456 c 5
EndSplineSet
Fore
SplineSet
728 100 m 2
 728 51 733 33 783 24 c 0
 806 20 816 15 816 6 c 0
 816 -2 804 -5 785 -5 c 0
 726 -5 716 0 671 0 c 24
 625 0 614 -5 555 -5 c 0
 536 -5 523 -2 523 6 c 0
 523 15 533 20 556 24 c 0
 598 32 624 54 624 97 c 2
 624 286 l 2
 624 293 627 301 619 301 c 2
 237 301 l 2
 232 301 232 298 232 290 c 2
 232 106 l 2
 232 64 265 32 311 24 c 0
 334 20 344 15 344 6 c 0
 344 -2 331 -5 313 -5 c 0
 254 -5 236 0 186 0 c 24
 139 0 126 -5 67 -5 c 0
 49 -5 35 -2 35 6 c 0
 35 15 45 20 68 24 c 0
 118 33 128 51 128 99 c 2
 128 455 l 1
 64 455 l 2
 55 455 50 468 50 474 c 0
 50 483 62 492 74 492 c 2
 128 492 l 1
 128 551 l 2
 128 597 125 613 75 622 c 0
 52 626 42 633 42 642 c 0
 42 650 55 653 74 653 c 0
 133 653 142 650 186 650 c 24
 231 650 243 653 302 653 c 0
 321 653 333 650 333 642 c 0
 333 633 323 626 300 622 c 0
 250 613 232 590 232 551 c 2
 232 492 l 1
 624 492 l 1
 624 552 l 2
 624 588 608 613 558 622 c 0
 535 626 525 633 525 642 c 0
 525 650 538 653 557 653 c 0
 616 653 634 650 683 650 c 24
 722 650 724 653 783 653 c 0
 802 653 814 650 814 642 c 0
 814 633 804 626 781 622 c 0
 731 613 728 590 728 552 c 2
 728 492 l 1
 795 492 l 2
 802 492 812 485 808 478 c 0
 801 465 792 455 777 455 c 2
 728 455 l 1
 728 100 l 2
624 455 m 1
 232 455 l 1
 232 359 l 2
 232 351 240 350 246 350 c 2
 617 350 l 2
 622 350 624 353 624 362 c 2
 624 362 624 388 624 416 c 0
 624 430 624 444 624 455 c 1
EndSplineSet
Validated: 1
Substitution2: "c2sc subtable" Hbar.sc
EndChar

StartChar: Iogonek
Encoding: 302 302 220
Width: 388
VWidth: 0
Flags: W
HStem: -287 71<166.456 252.426> -5 29<18.8649 114.717 292.602 370.361> 622 31<30.3909 126.854 284.205 361.926>
VStem: 37 111<-197.268 -116.951> 155 104<48.9625 602.258>
LayerCount: 3
Fore
SplineSet
174 -287 m 0
 98 -287 37 -237 37 -174 c 0
 37 -100 156 -31 219 0 c 1
 218 0 216 0 215 0 c 0
 152 0 122 -5 54 -5 c 0
 33 -5 18 -2 18 6 c 0
 18 15 31 20 59 24 c 0
 121 33 155 51 155 98 c 2
 155 550 l 2
 155 597 134 613 71 622 c 0
 42 626 29 633 29 642 c 0
 29 650 43 653 63 653 c 0
 127 653 147 650 201 650 c 0
 252 650 265 653 329 653 c 0
 349 653 363 650 363 642 c 0
 363 633 353 626 330 622 c 0
 280 613 259 597 259 550 c 2
 259 98 l 2
 259 51 288 33 338 24 c 0
 361 20 371 15 371 6 c 0
 371 -2 357 -5 338 -5 c 0
 295 -5 273 -2 245 -1 c 1
 208 -29 148 -85 148 -155 c 0
 148 -190 184 -216 224 -216 c 0
 264 -216 308 -181 318 -176 c 0
 324 -173 332 -174 332 -182 c 0
 332 -225 239 -287 174 -287 c 0
EndSplineSet
Validated: 1
Substitution2: "c2sc subtable" Iogonek.sc
EndChar

StartChar: iogonek
Encoding: 303 303 221
Width: 288
VWidth: 0
Flags: W
HStem: -298 66<132.593 213.86> -3 27<25.3266 95.6206 213.023 268.997> 352 25<39.0117 79.2715> 513 101<93.9638 201.256>
VStem: 19 96<-213.969 -116.41> 82 131<525.854 601.043> 110 91<33.6801 334.282>
LayerCount: 3
Fore
SplineSet
143 -298 m 0xf8
 72 -298 19 -264 19 -190 c 0xf8
 19 -98 123 -19 153 2 c 1
 110 2 99 -3 50 -3 c 0
 40 -3 24 -2 24 6 c 0
 24 16 40 20 54 24 c 0
 80 30 110 35 110 62 c 2
 110 279 l 2xf2
 110 315 93 345 49 352 c 0
 43 353 39 359 39 365 c 0
 39 370 43 376 48 377 c 0
 135 393 194 434 204 434 c 0
 209 434 213 432 213 429 c 0xf4
 208 388 201 339 201 294 c 2
 201 62 l 2xf2
 201 35 225 30 246 24 c 0
 258 20 270 16 270 6 c 0
 270 -2 258 -3 248 -3 c 0
 219 -3 206 0 188 1 c 1
 168 -17 115 -74 115 -163 c 0
 115 -207 146 -232 186 -232 c 0
 227 -232 250 -211 256 -211 c 0
 261 -211 265 -212 265 -218 c 0
 265 -237 212 -298 143 -298 c 0xf8
82 563 m 0xf4
 82 592 111 614 147 614 c 0
 185 614 213 592 213 563 c 0
 213 535 185 513 147 513 c 0
 111 513 82 535 82 563 c 0xf4
EndSplineSet
Validated: 1
Substitution2: "Smallcaps subtable" iogonek.sc
EndChar

StartChar: dotlessi
Encoding: 305 305 76
Width: 263
VWidth: 0
Flags: W
HStem: -3 27<24.0658 77.9702 191.03 245.003> 352 25<34.0088 66.6384>
VStem: 89 91<31.1488 339.165>
AnchorPoint: "top_accent" 121 550 basechar 0
LayerCount: 3
Fore
SplineSet
181 434 m 4
 186 434 189 432 189 429 c 4
 185 388 180 339 180 294 c 6
 180 62 l 6
 180 35 203 30 223 24 c 0
 234 20 246 16 246 6 c 0
 246 -2 234 -3 224 -3 c 0
 182 -3 173 2 134 2 c 0
 95 2 88 -3 45 -3 c 0
 36 -3 23 -2 23 6 c 0
 23 16 35 20 46 24 c 0
 66 30 89 35 89 62 c 6
 89 279 l 6
 89 315 76 345 42 352 c 4
 37 353 34 359 34 365 c 4
 34 370 37 376 42 377 c 4
 120 393 172 434 181 434 c 4
EndSplineSet
Validated: 1
Substitution2: "Smallcaps subtable" dotlessi.sc
EndChar

StartChar: kgreenlandic
Encoding: 312 312 1031
Width: 494
VWidth: 0
Flags: W
HStem: -3 27<24.0382 75.766 189.421 236.908 446.448 479.176 481 501.704> 351 26<34.0349 66.6384> 378 22<298.492 331.513> 384 28<414.276 470.679>
VStem: 89 91<32.0327 204.138 222.955 336.993>
AnchorPoint: "below_accent" 249 -100 basechar 0
AnchorPoint: "top_accent" 251 550 basechar 0
LayerCount: 3
Fore
SplineSet
180 65 m 2xd8
 180 38 195 30 215 24 c 0
 226 20 238 16 238 6 c 0
 238 -4 218 -3 212 -3 c 0
 169 -3 174 2 135 2 c 0
 96 2 91 -3 48 -3 c 0
 42 -3 23 -4 23 6 c 0
 23 16 35 20 46 24 c 0
 66 30 89 38 89 65 c 2
 89 278 l 2
 89 314 76 344 42 351 c 0
 37 352 34 359 34 365 c 0
 34 370 37 376 42 377 c 0
 120 393 172 434 181 434 c 0
 186 434 189 432 189 429 c 0
 185 388 180 339 180 294 c 2
 180 230 l 2
 180 223 182 222 186 223 c 0
 195 225 206 234 221 247 c 0
 275 294 322 342 333 358 c 0
 334 359 334 360 334 361 c 0
 334 368 324 375 310 378 c 0
 307 379 298 383 298 386 c 0
 298 398 316 400 320 400 c 10
 369 400 l 2xe8
 405 400 438 409 465 412 c 0
 468 412 473 409 473 405 c 0
 473 397 462 386 453 384 c 0
 428 379 401 364 383 353 c 0
 370 345 303 289 255 247 c 0
 249 243 247 234 252 230 c 0
 304 167 378 89 399 70 c 0
 421 49 461 28 481 22 c 0
 492 18 504 14 504 4 c 0
 504 -4 491 -5 484 -5 c 0
 483 -5 482 -5 481 -5 c 0
 442 -5 409 0 360 -0 c 2
 302 -0 l 2
 297 0 279 -1 279 9 c 0
 279 30 323 26 323 46 c 0
 323 50 320 55 316 60 c 2
 190 204 l 2
 187 207 180 206 180 194 c 2
 180 65 l 2xd8
EndSplineSet
Validated: 1
Substitution2: "Smallcaps subtable" kgreenlandic.sc
EndChar

StartChar: lcommaaccent
Encoding: 316 316 229
Width: 260
VWidth: 0
Flags: W
HStem: -276 22<63.2938 96.3733> -146 89<61.2897 128.785> -3 27<18.9975 72.9702 186.03 240.003> 639 25<30.0088 61.7542> 685 20<174.5 176.5>
VStem: 84 91<31.1488 627.687> 130 70<-217.843 -148.582>
LayerCount: 3
Back
SplineSet
155 62 m 0xf0
 155 35 178 30 198 24 c 0
 209 20 221 16 221 6 c 0
 221 -2 208 -3 201 -3 c 0
 162 -3 155 2 120 2 c 4
 85 2 78 -3 39 -3 c 0
 32 -3 19 -2 19 6 c 0
 19 16 31 20 42 24 c 0
 62 30 85 35 85 62 c 2
 85 566 l 2
 85 605 72 632 39 639 c 0
 34 640 31 646 31 652 c 0
 31 658 34 663 38 664 c 0
 89 676 122 692 154 704 c 0
 155 704 155 705 156 705 c 0
 159 705 162 701 162 698 c 0
 162 686 156 652 156 562 c 0
 156 389 155 260 155 62 c 0xf0
78 -275 m 0xe8
 70 -275 65 -271 65 -266 c 0
 65 -261 70 -256 79 -253 c 0
 118 -239 132 -202 132 -174 c 0
 132 -156 120 -149 102 -145 c 0
 79 -140 52 -122 52 -100 c 0
 52 -76 69 -57 98 -57 c 0
 146 -57 186 -98 186 -154 c 0
 186 -239 103 -275 78 -275 c 0xe8
EndSplineSet
Fore
Refer: 128 806 N 1 0 0 1 14 0 2
Refer: 2 108 N 1 0 0 1 0 0 3
Validated: 1
Substitution2: "Smallcaps subtable" lcommaaccent.sc
EndChar

StartChar: Lcaron
Encoding: 317 317 230
Width: 575
VWidth: 0
Flags: W
HStem: -5 29<26.3576 93.228> -5 40<243.001 503.636> 622 31<36.0745 115.488 261.822 353.926>
VStem: 129 104<47.25 603.136> 448 92<550.084 650.304>
LayerCount: 3
Fore
SplineSet
455 472 m 0x38
 450 472 448 482 448 495 c 0
 448 514 452 538 452 544 c 0
 452 561 445 584 445 617 c 0
 445 644 490 665 519 665 c 0
 535 665 540 651 540 635 c 0
 540 630 539 626 538 621 c 0
 525 552 508 528 489 497 c 0
 481 485 461 472 455 472 c 0x38
EndSplineSet
Refer: 36 76 N 1 0 0 1 0 0 2
Validated: 1
Substitution2: "c2sc subtable" Lcaron.sc
EndChar

StartChar: lcaron
Encoding: 318 318 231
Width: 286
VWidth: 0
Flags: W
HStem: -3 27<18.9975 72.9702 186.03 240.003> 639 25<30.0088 61.7542> 685 20G<174.5 176.5 266.5 288>
VStem: 84 91<31.1488 627.687> 212 89<590.084 689.048>
LayerCount: 3
Fore
SplineSet
212 657 m 4
 212 683 253 705 280 705 c 4
 296 705 301 691 301 675 c 4
 301 670 301 666 300 661 c 4
 287 592 269 568 250 537 c 4
 242 525 228 512 222 512 c 4
 217 512 214 522 214 535 c 0
 214 554 218 578 218 584 c 4
 218 601 212 624 212 657 c 4
EndSplineSet
Refer: 2 108 N 1 0 0 1 0 0 2
Validated: 1
Substitution2: "Smallcaps subtable" lcaron.sc
EndChar

StartChar: Ldot
Encoding: 319 319 232
Width: 606
VWidth: 0
Flags: W
HStem: -5 29<26.3576 93.228> -5 40<243.001 503.636> 314 100<386.074 493.926> 622 31<36.0745 115.488 261.822 353.926>
VStem: 129 104<47.25 603.136> 375 130<326.854 401.146>
LayerCount: 3
Fore
SplineSet
440 414 m 24x3c
 476 414 505 392 505 364 c 24
 505 336 476 314 440 314 c 24
 404 314 375 336 375 364 c 24
 375 392 404 414 440 414 c 24x3c
EndSplineSet
Refer: 36 76 N 1 0 0 1 0 0 3
Validated: 1
Ligature2: "liga_standard subtable" L.CAT periodcentered
Substitution2: "c2sc subtable" Ldot.sc
EndChar

StartChar: ldot
Encoding: 320 320 233
Width: 308
VWidth: 0
Flags: W
HStem: -3 27<18.9975 72.9702 186.03 240.003> 314 100<227.074 334.926> 639 25<30.0088 61.7542> 685 20<174.5 176.5>
VStem: 84 91<31.1488 627.687> 216 130<326.854 401.146>
LayerCount: 3
Fore
SplineSet
281 414 m 24
 317 414 346 392 346 364 c 24
 346 336 317 314 281 314 c 24
 245 314 216 336 216 364 c 24
 216 392 245 414 281 414 c 24
EndSplineSet
Refer: 2 108 N 1 0 0 1 0 0 2
Validated: 1
Ligature2: "liga_standard subtable" l.CAT periodcentered
Substitution2: "Smallcaps subtable" ldot.sc
LCarets2: 1 0 
EndChar

StartChar: Lslash
Encoding: 321 321 1008
Width: 618
VWidth: 0
Flags: W
HStem: -5 40<238.001 498.636> -5 29<21.3143 88.228> 622 31<31.0745 110.488 256.822 348.926>
VStem: 124 104<47.25 281 352 603.136>
AnchorPoint: "cedilla" 199 8 basechar 0
AnchorPoint: "below_accent" 337 -100 basechar 0
AnchorPoint: "top_accent" 203 700 basechar 0
LayerCount: 3
Fore
SplineSet
228 567 m 2x70
 228 352 l 1
 398 415 l 2
 405 418 416 416 416 409 c 0
 416 389 407 375 398 372 c 2
 228 310 l 1
 228 96 l 2
 228 55 239 35 305 35 c 2
 451 35 l 2xb0
 456 35 489 45 507 61 c 0
 533 84 542 96 559 132 c 0
 563 140 575 162 587 162 c 0
 597 162 603 152 603 144 c 0
 603 142 602 140 602 139 c 0
 587 87 577 54 573 12 c 0
 572 3 569 -5 558 -5 c 0
 416 -5 300 0 194 0 c 0
 141 0 51 -5 51 -5 c 2
 32 -5 21 0 21 7 c 0
 21 19 39 23 43 24 c 0
 95 34 124 52 124 96 c 2
 124 281 l 1
 59 257 l 2
 51 254 38 255 38 263 c 0
 38 277 41 292 52 296 c 2
 124 322 l 1
 124 560 l 2
 124 608 113 613 63 622 c 0
 40 626 30 633 30 642 c 0
 30 650 43 653 61 653 c 0
 119 653 134 650 182 650 c 0
 235 650 261 653 319 653 c 0
 337 653 350 650 350 642 c 0
 350 633 340 626 317 622 c 0
 267 613 228 606 228 567 c 2x70
EndSplineSet
Validated: 1
Substitution2: "c2sc subtable" Lslash.sc
EndChar

StartChar: lslash
Encoding: 322 322 1007
Width: 263
VWidth: 0
Flags: W
HStem: -3 27<20.9975 74.9702 188.03 242.003> 405 20G<241 245> 639 25<31.0145 59.6319> 685 20G<176.5 178.5>
VStem: 86 91<31.1488 317 393 623.225>
AnchorPoint: "below_accent" 123 -100 basechar 0
LayerCount: 3
Fore
SplineSet
177 62 m 2
 177 35 200 30 220 24 c 0
 231 20 243 16 243 6 c 0
 243 -2 229 -3 221 -3 c 0
 220 -3 219 -3 218 -3 c 0
 175 -3 171 2 132 2 c 0
 93 2 89 -3 46 -3 c 0
 45 -3 43 -3 42 -3 c 0
 34 -3 20 -2 20 6 c 0
 20 16 32 20 43 24 c 0
 63 30 86 35 86 62 c 2
 86 317 l 1
 32 288 l 2
 24 284 12 296 12 304 c 0
 12 313 20 319 25 322 c 2
 86 355 l 1
 86 566 l 2
 86 581 73 632 40 639 c 0
 35 640 31 646 31 652 c 0
 31 658 36 663 41 664 c 0
 100 676 138 692 175 704 c 0
 176 704 176 705 177 705 c 0
 180 705 184 701 184 698 c 0
 184 686 179 652 179 562 c 2
 179 393 l 1
 235 423 l 2
 237 424 240 425 242 425 c 0
 248 425 253 420 253 405 c 0
 253 398 244 390 235 385 c 2
 177 355 l 1
 177 62 l 2
EndSplineSet
Validated: 1
Substitution2: "Smallcaps subtable" lslash.sc
EndChar

StartChar: Eng
Encoding: 330 330 1034
Width: 793
VWidth: 0
Flags: W
HStem: -255 44<515.284 591.437> -5 29<37.6952 94.8125 222.064 289.305> 619 31<552.111 617.83 714.75 794.979> 620 38<17.6632 91.8053>
VStem: 623 79<-122.311 21.0128> 646 56<136.004 598.805>
AnchorPoint: "below_accent" 409 -100 basechar 0
AnchorPoint: "top_accent" 408 700 basechar 0
LayerCount: 3
Fore
SplineSet
555 -255 m 4xe8
 501 -255 428 -239 428 -199 c 4
 428 -181 438 -151 455 -151 c 4
 477 -151 491 -157 503 -174 c 4
 523 -202 537 -211 566 -211 c 4
 594 -211 623 -144 623 -50 c 4
 623 -12 617 0 606 15 c 0
 588 40 253 456 230 484 c 0
 220 496 215 500 210 500 c 0
 203 500 201 487 201 479 c 0
 198 380 194 227 194 104 c 0
 194 68 208 33 257 24 c 0
 280 20 290 15 290 6 c 0
 290 -2 278 -5 260 -5 c 0
 204 -5 201 0 162 0 c 24
 125 0 123 -5 67 -5 c 0
 49 -5 37 -2 37 6 c 0
 37 15 47 20 70 24 c 0
 108 31 126 94 128 107 c 0
 137 182 146 342 146 507 c 0
 146 578 106 601 47 620 c 0
 41 622 16 632 16 644 c 0
 16 656 33 658 40 658 c 0xd8
 119 656 123 653 196 653 c 0
 208 653 214 645 221 636 c 0
 240 609 588 180 608 156 c 0
 613 150 625 136 633 136 c 0
 638 136 643 142 644 157 c 0
 645 189 646 365 646 477 c 2
 646 564 l 1
 645 590 608 615 585 619 c 0
 561 623 551 630 551 639 c 0
 551 647 564 650 582 650 c 2
 643 650 l 2
 695 650 701 653 767 653 c 0
 785 653 798 650 798 642 c 0
 798 633 788 626 765 622 c 0
 715 613 702 601 702 568 c 2xe4
 702 14 l 6
 702 -7 691 -255 555 -255 c 4xe8
EndSplineSet
Validated: 1
Substitution2: "c2sc subtable" Eng.sc
EndChar

StartChar: eng
Encoding: 331 331 1033
Width: 550
VWidth: 0
Flags: W
HStem: -288 32<261.935 338.343> -3 27<11.092 62.5168 183.029 231.962> 348 26<13.0549 54.6327> 365 49<254.797 386> 410 20G<165.5 168>
VStem: 77 91<32.543 331.355> 380 91<-166.238 331.919>
AnchorPoint: "below_accent" 285 -100 basechar 0
AnchorPoint: "top_accent" 278 550 basechar 0
LayerCount: 3
Fore
SplineSet
168 69 m 2xd6
 168 41 190 30 210 24 c 0
 221 20 233 16 233 6 c 0
 233 -4 214 -3 208 -3 c 0
 165 -3 161 2 122 2 c 0
 83 2 79 -3 36 -3 c 0
 30 -3 10 -4 10 6 c 0
 10 16 22 20 33 24 c 0
 53 30 75 38 77 66 c 1
 78 113 79 153 79 190 c 0
 79 221 78 248 77 276 c 0
 74 312 68 341 24 348 c 0
 17 349 13 356 13 362 c 0
 13 367 16 373 22 374 c 0
 89 386 134 412 164 429 c 0
 165 430 165 430 166 430 c 0xee
 170 430 174 424 175 421 c 1
 175 411 168 372 168 355 c 0
 168 351 168 348 169 347 c 1
 189 366 283 414 351 414 c 0
 421 414 467 373 468 295 c 0
 468 260 471 177 471 90 c 0
 471 -16 467 -128 451 -173 c 0
 420 -259 355 -288 297 -288 c 0
 270 -288 252 -288 226 -278 c 0
 215 -274 196 -262 196 -255 c 0
 196 -239 211 -207 223 -207 c 0
 247 -207 255 -256 298 -256 c 0
 323 -256 355 -236 365 -201 c 0
 377 -160 380 -53 380 50 c 0
 380 148 377 242 377 272 c 0
 377 330 339 365 286 365 c 0
 252 365 218 353 193 334 c 0
 178 323 168 309 168 268 c 2
 168 69 l 2xd6
EndSplineSet
Validated: 1
Substitution2: "Smallcaps subtable" eng.sc
EndChar

StartChar: OE
Encoding: 338 338 579
Width: 1001
VWidth: 0
Flags: W
HStem: -14 39<337.088 538.936> -5 40<671.047 918.344> 319 33<659.98 816.461> 388 20G<858.5 863.5> 618 31<665.95 888.322> 625 39<312.759 505.451>
VStem: 43 126<219.261 441.114> 555 104<46.2937 318.486 352 586.744> 832 42<252.771 308.125> 925 33<526.116 580.219>
LayerCount: 3
Fore
SplineSet
613 1 m 0x7bc0
 562 1 500 -5 498 -5 c 0x7bc0
 470 -11 438 -14 407 -14 c 0
 216 -14 43 130 43 320 c 0
 43 501 174 664 417 664 c 0xb7c0
 451 664 485 659 515 652 c 0
 528 649 570 649 605 649 c 16
 704 649 911 653 922 653 c 0
 930 653 940 651 941 644 c 0
 949 606 958 568 958 541 c 0
 958 529 947 526 939 526 c 0
 930 526 928 529 925 536 c 0
 918 558 911 581 902 591 c 0
 882 612 858 618 832 618 c 2
 696 618 l 2
 685 618 659 605 659 586 c 2
 659 374 l 2
 659 362 668 352 678 352 c 2
 778 352 l 2
 808 352 832 368 842 391 c 0
 844 396 856 408 861 408 c 0
 866 408 875 402 875 392 c 0
 875 383 871 353 871 337 c 0
 871 317 874 276 874 268 c 0
 874 259 872 251 862 251 c 8
 845 251 835 267 832 274 c 0
 822 305 803 319 786 319 c 2
 693 319 l 2
 670 319 659 316 659 293 c 2
 659 102 l 2
 659 51 681 35 729 35 c 2
 838 35 l 2
 891 35 905 43 919 53 c 0
 938 67 955 99 963 116 c 0
 967 124 971 127 978 126 c 16
 985 125 992 123 992 115 c 0
 992 97 981 38 973 12 c 0
 971 3 967 -5 958 -5 c 8
 824 -5 721 1 613 1 c 0x7bc0
555 540 m 0
 548 601 485 625 402 625 c 0
 254 625 169 490 169 350 c 0
 169 179 274 25 422 25 c 0xb7c0
 494 25 555 27 555 80 c 2
 555 81 l 2
 555 158 556 264 556 322 c 0
 556 373 555 538 555 540 c 0
EndSplineSet
Validated: 1
Substitution2: "c2sc subtable" OE.sc
EndChar

StartChar: oe
Encoding: 339 339 580
Width: 820
VWidth: 0
Flags: W
HStem: -14 62<585.668 715.056> -14 30<227.555 342.397> 256 32<525.555 698.013> 383 31<199.258 314.012 574.875 687.203>
VStem: 33 107<109.934 274.74> 401 105<129.638 255.13> 707 85<293.056 368.901> 760 27<75.3443 87.7159>
LayerCount: 3
Fore
SplineSet
260 383 m 0x7c
 224 383 196 374 172 343 c 0
 145 309 140 258 140 210 c 0
 140 111 198 16 278 16 c 0
 323 16 361 32 381 71 c 0
 397 102 401 150 401 189 c 0
 401 284 345 383 260 383 c 0x7c
272 414 m 0
 341 414 406 384 447 338 c 0
 454 330 457 328 462 335 c 0
 503 388 560 413 633 414 c 1
 750 414 792 371 792 322 c 0x7e
 792 289 785 274 770 267 c 0
 755 260 733 256 709 256 c 18
 533 256 l 2
 516 256 506 253 506 219 c 0
 506 123 571 48 665 48 c 16
 691 48 733 54 760 88 c 0
 764 91 768 93 772 93 c 0
 781 93 790 85 787 77 c 0
 776 42 717 -14 616 -14 c 0xbd
 556 -14 492 15 455 65 c 0
 450 72 448 72 443 65 c 0
 402 18 338 -14 252 -14 c 0
 129 -14 33 70 33 187 c 0
 33 298 138 414 272 414 c 0
529 318 m 0
 526 313 525 308 525 303 c 0
 525 295 530 288 544 288 c 2
 626 288 l 10
 654 288 678 289 699 293 c 0
 706 294 707 308 707 319 c 2
 707 333 l 1
 704 365 675 383 627 383 c 0
 571 383 541 340 529 318 c 0
EndSplineSet
Validated: 1
Substitution2: "Smallcaps subtable" oe.sc
Ligature2: "LATliga subtable" o e
LCarets2: 1 0 
EndChar

StartChar: Scedilla
Encoding: 350 350 256
Width: 524
VWidth: 0
Flags: W
HStem: -275 53<173.196 280.226> -16 33<162.834 255> 631 33<218.026 357.242>
VStem: 57 100<470.646 566.376> 285 69<-214.272 -136.134> 375 109<84.4009 192.913>
LayerCount: 3
Fore
SplineSet
245 17 m 0
 330 17 375 62 375 132 c 0
 375 198 295 263 202 318 c 0
 122 365 57 417 57 497 c 0
 57 584 152 664 292 664 c 0
 367 664 419 644 431 644 c 0
 442 644 449 631 451 621 c 0
 452 618 462 568 462 537 c 0
 462 522 460 512 454 512 c 0
 432 512 417 525 414 540 c 0
 403 598 350 631 287 631 c 0
 217 631 157 590 157 523 c 0
 157 459 251 408 309 375 c 0
 374 338 484 262 484 160 c 0
 484 91 431 10 297 -11 c 1
 262 -54 l 2
 256 -61 268 -68 274 -70 c 0
 308 -82 354 -112 354 -159 c 0
 354 -227 262 -275 213 -275 c 0
 175 -275 164 -258 164 -243 c 0
 164 -220 172 -209 180 -209 c 0
 188 -209 194 -222 243 -222 c 0
 260 -222 285 -212 285 -183 c 0
 285 -159 273 -129 238 -129 c 0
 226 -129 221 -132 212 -132 c 0
 195 -132 186 -121 186 -115 c 0
 186 -108 189 -104 192 -100 c 2
 255 -15 l 1
 248 -15 241 -16 233 -16 c 0
 151 -16 102 0 83 8 c 0
 68 14 61 20 59 25 c 0
 47 48 39 104 39 140 c 0
 39 149 51 169 63 169 c 0
 73 169 86 135 97 103 c 0
 118 42 179 17 245 17 c 0
EndSplineSet
Validated: 1
Substitution2: "c2sc subtable" Scedilla.sc
EndChar

StartChar: scedilla
Encoding: 351 351 257
Width: 365
VWidth: 0
Flags: W
HStem: -274 49<106.665 191.049> -14 27<124.023 178> 388 26<161.88 239.017>
VStem: 28 42<51.13 91.9451> 58 78<280.588 361.252> 202 64<-202.882 -134.075> 248 88<35.1828 127.878> 266 52<314.635 370.728>
LayerCount: 3
Fore
SplineSet
119 -129 m 0xe4
 112 -129 102 -123 102 -114 c 0
 102 -111 104 -108 107 -104 c 2
 178 -14 l 1
 173 -14 169 -14 164 -14 c 0
 103 -14 50 9 43 22 c 0
 35 36 29 60 28 83 c 0
 28 89 41 92 51 92 c 0
 60 92 69 90 70 85 c 0
 78 51 127 13 172 13 c 0
 224 13 248 43 248 83 c 0xf2
 248 119 214 143 165 174 c 0
 112 208 58 247 58 296 c 0
 58 353 99 414 211 414 c 0
 257 414 285 401 296 391 c 1
 312 376 318 341 318 313 c 0
 318 310 316 309 311 309 c 0
 298 309 266 321 266 330 c 0xe9
 265 358 236 388 202 388 c 0xe4
 163 388 136 362 136 322 c 0
 136 282 195 251 231 231 c 0
 264 212 336 172 336 106 c 0xea
 336 48 308 3 218 -10 c 1
 188 -43 l 2
 186 -45 183 -49 183 -51 c 0
 183 -57 190 -62 195 -63 c 0
 232 -77 266 -106 266 -139 c 0
 266 -219 170 -274 131 -274 c 0
 102 -274 99 -252 99 -233 c 0
 99 -219 108 -214 112 -214 c 0
 119 -214 131 -225 163 -225 c 0
 188 -225 202 -206 202 -180 c 0
 202 -144 178 -123 144 -123 c 0
 131 -123 126 -129 119 -129 c 0xe4
EndSplineSet
Validated: 1
Substitution2: "Smallcaps subtable" scedilla.sc
EndChar

StartChar: uni0162
Encoding: 354 354 260
Width: 703
VWidth: 0
Flags: W
HStem: -265 53<243.245 365.243> -5 29<184.602 260.52 435.781 516.342> 604 38<109.639 291.507 401.966 626.53>
VStem: 295 104<48.375 600.468> 372 69<-201.595 -129.568> 642 46<517.392 589.959>
LayerCount: 3
Fore
SplineSet
255 -105 m 0xec
 255 -98 258 -94 261 -90 c 2
 338 0 l 1
 294 -1 267 -5 215 -5 c 0
 197 -5 184 -2 184 6 c 0
 184 15 194 20 217 24 c 0
 267 33 295 54 295 102 c 2
 295 557 l 2
 295 575 293 597 277 600 c 0
 258 604 237 604 203 604 c 2
 156 604 l 2
 124 604 88 591 74 565 c 0
 68 554 48 527 33 527 c 0
 28 527 26 533 26 540 c 0
 26 546 28 554 31 560 c 0
 50 598 58 629 64 671 c 0
 67 693 77 694 82 694 c 0
 87 694 102 673 108 662 c 0
 116 648 152 642 182 642 c 2
 583 642 l 2
 614 642 634 649 645 656 c 0
 666 670 681 692 697 692 c 0
 701 692 705 679 705 669 c 0
 705 666 704 662 704 660 c 0
 695 623 688 587 688 561 c 0
 688 557 688 553 688 549 c 0
 688 537 680 517 667 517 c 0
 654 517 649 532 642 558 c 0
 637 586 614 604 550 604 c 0
 498 604 433 602 415 600 c 0
 401 598 399 575 399 557 c 2
 399 102 l 2xf4
 399 54 429 33 482 24 c 0
 506 20 517 15 517 6 c 0
 517 -2 503 -5 485 -5 c 0
 435 -5 415 -1 379 0 c 1
 342 -44 l 2
 336 -51 348 -58 355 -60 c 0
 391 -72 441 -102 441 -149 c 0
 441 -217 340 -265 286 -265 c 0
 244 -265 233 -248 233 -233 c 0
 233 -210 242 -199 251 -199 c 0
 260 -199 267 -212 323 -212 c 0
 343 -212 372 -202 372 -173 c 0
 372 -149 357 -119 316 -119 c 0
 302 -119 296 -122 285 -122 c 0
 265 -122 255 -111 255 -105 c 0xec
EndSplineSet
Validated: 1
Substitution2: "c2sc subtable" uni0162.sc
EndChar

StartChar: uni0163
Encoding: 355 355 261
Width: 347
VWidth: 0
Flags: W
HStem: -274 49<106.77 201.323> 352 48<176.344 337.931> 352 27<34.6315 69.6948>
VStem: 83 91<63.4562 351.422> 220 65<-199.955 -136.072>
LayerCount: 3
Fore
SplineSet
121 -129 m 0xd8
 113 -129 100 -123 100 -114 c 0
 100 -111 102 -108 106 -104 c 2
 193 -13 l 1
 126 -8 83 29 83 105 c 2
 83 337 l 2
 83 349 76 352 45 352 c 0
 41 352 33 365 33 372 c 0
 33 375 37 378 39 379 c 0xb8
 101 394 150 468 162 468 c 0
 169 468 178 467 178 458 c 2
 176 414 l 2
 176 405 188 400 202 400 c 2
 327 400 l 2
 332 400 338 388 338 376 c 0
 338 364 333 352 327 352 c 2
 218 352 l 2
 181 352 174 351 174 324 c 2
 174 135 l 2
 174 61 213 41 247 41 c 0
 290 41 311 48 329 60 c 0
 336 64 340 55 340 47 c 0
 340 37 288 -5 227 -13 c 1
 202 -43 l 2
 200 -45 198 -49 198 -51 c 0
 198 -57 207 -62 212 -63 c 0
 251 -77 285 -106 285 -139 c 0
 285 -219 178 -274 134 -274 c 0
 101 -274 98 -252 98 -233 c 0
 98 -219 108 -214 113 -214 c 0
 121 -214 136 -225 175 -225 c 0
 205 -225 220 -206 220 -180 c 0
 220 -144 192 -123 151 -123 c 0
 136 -123 129 -129 121 -129 c 0xd8
EndSplineSet
Validated: 1
Substitution2: "Smallcaps subtable" uni0163.sc
EndChar

StartChar: tcaron
Encoding: 357 357 263
Width: 314
VWidth: 0
Flags: W
HStem: -14 55<194.016 277.393> 352 27<34.6315 69.6948> 352 48<176.344 322.943> 456 21G<241.5 247> 630 20G<289.5 311>
VStem: 83 91<60.25 351.513> 234 89<532.823 634.048>
LayerCount: 3
Fore
SplineSet
234 602 m 4x9e
 234 628 276 650 303 650 c 4
 319 650 323 636 323 620 c 4
 323 615 323 611 322 606 c 4
 309 537 292 512 273 481 c 4
 265 469 250 456 244 456 c 4
 239 456 236 466 236 479 c 0
 236 498 240 522 240 528 c 4
 240 545 234 569 234 602 c 4x9e
EndSplineSet
Refer: 1 116 N 1 0 0 1 0 0 2
Validated: 1
Substitution2: "Smallcaps subtable" tcaron.sc
EndChar

StartChar: Tbar
Encoding: 358 358 999
Width: 702
VWidth: 0
Flags: W
HStem: -5 29<184.602 260.52 434.207 510.363> 362 36<156.009 295 399 541.625> 604 38<109.639 291.507 401.966 627.406>
VStem: 295 104<48.75 362 398 600.363> 643 44<527.397 591.427>
AnchorPoint: "cedilla" 373 18 basechar 0
AnchorPoint: "below_accent" 344 -100 basechar 0
AnchorPoint: "top_accent" 353 700 basechar 0
LayerCount: 3
Fore
SplineSet
295 105 m 2
 295 362 l 1
 170 362 l 2
 161 362 156 374 156 380 c 0
 156 389 168 398 180 398 c 2
 295 398 l 1
 295 557 l 2
 295 575 293 597 277 600 c 0
 258 604 236 604 201 604 c 2
 156 604 l 2
 124 604 88 591 74 565 c 0
 68 554 48 527 33 527 c 0
 28 527 26 533 26 540 c 0
 26 546 28 554 31 560 c 0
 50 598 58 629 64 671 c 0
 67 693 76 694 81 694 c 0
 86 694 102 673 108 662 c 0
 116 648 152 643 181 642 c 0
 246 640 300 639 352 639 c 0
 425 639 493 641 585 645 c 0
 617 646 651 650 662 664 c 0
 674 679 683 686 690 686 c 0
 695 686 703 680 703 672 c 0
 703 634 687 592 687 557 c 2
 687 552 l 2
 687 542 682 527 670 527 c 2
 667 527 l 1
 651 529 648 549 643 558 c 0
 634 577 631 604 567 604 c 0
 515 604 433 602 415 600 c 0
 401 598 399 575 399 557 c 2
 399 398 l 1
 531 398 l 2
 538 398 548 391 544 384 c 0
 537 371 528 362 513 362 c 2
 399 362 l 1
 399 105 l 2
 399 54 428 33 478 24 c 0
 501 20 511 15 511 6 c 0
 511 -2 497 -5 479 -5 c 0
 421 -5 403 0 353 0 c 24
 299 0 273 -5 215 -5 c 0
 197 -5 184 -2 184 6 c 0
 184 15 194 20 217 24 c 0
 267 33 295 54 295 105 c 2
EndSplineSet
Validated: 1
Substitution2: "c2sc subtable" Tbar.sc
EndChar

StartChar: tbar
Encoding: 359 359 1000
Width: 336
VWidth: 0
Flags: W
HStem: -14 45<185.938 277.14> 207 39<17.597 72 163 267.557> 352 48<166.164 313.965> 352 24<31.8007 59.8138> 442 20G<161 167.5>
VStem: 72 91<55.5864 207 246 351.431>
LayerCount: 3
Fore
SplineSet
39 352 m 0xdc
 33 353 22 373 32 376 c 0xdc
 81 393 113 423 135 450 c 0
 141 457 157 462 165 462 c 0
 170 462 172 461 172 459 c 2
 166 414 l 2
 165 405 175 400 188 400 c 2
 306 400 l 2xec
 311 400 314 388 314 376 c 0xdc
 314 364 311 352 306 352 c 2
 203 352 l 2xec
 167 352 163 352 163 338 c 0
 163 307 163 277 163 246 c 1
 258 246 l 2
 265 246 275 239 271 232 c 0
 264 219 255 207 240 207 c 2
 163 207 l 1
 163 107 l 2
 163 67 197 31 233 31 c 0
 277 31 292 42 308 54 c 0
 314 58 318 49 318 41 c 0
 318 38 317 36 316 34 c 0
 306 19 246 -14 189 -14 c 0
 128 -14 72 27 72 83 c 2
 72 207 l 1
 30 207 l 2
 21 207 16 214 16 220 c 0
 16 229 28 246 40 246 c 2
 72 246 l 1
 72 337 l 2
 72 356 60 350 39 352 c 0xdc
EndSplineSet
Validated: 1
Substitution2: "Smallcaps subtable" tbar.sc
EndChar

StartChar: Uogonek
Encoding: 370 370 274
Width: 802
VWidth: 0
Flags: W
HStem: -287 71<421.5 527.68> -14 50<340.769 508.022> 620 33<24.5505 82.9594 225.114 279.84 563.111 614.939 727.499 791.313>
VStem: 102 104<167.122 606.064> 330 111<-200.158 -115.291> 641 56<161.07 469.913>
LayerCount: 3
Fore
SplineSet
710 547 m 0
 701 432 701 342 697 250 c 0
 694 143 639 57 555 15 c 1
 533 0 441 -67 441 -155 c 0
 441 -190 471 -216 506 -216 c 0
 541 -216 579 -181 588 -176 c 0
 593 -173 600 -174 600 -182 c 0
 600 -225 516 -287 456 -287 c 0
 387 -287 330 -237 330 -174 c 0
 330 -106 423 -42 484 -8 c 1
 463 -12 442 -14 420 -14 c 0
 199 -14 102 87 102 281 c 2
 102 547 l 2
 102 595 78 614 56 620 c 0
 33 626 23 633 23 642 c 0
 23 650 36 653 55 653 c 0
 88 653 120 650 161 650 c 0
 195 650 226 652 249 652 c 0
 268 652 281 649 281 641 c 0
 281 632 270 628 248 621 c 0
 232 616 206 589 206 549 c 2
 206 253 l 2
 206 132 311 36 440 36 c 0
 575 36 641 140 641 296 c 0
 641 340 638 434 636 511 c 0
 635 562 623 612 595 620 c 0
 581 624 562 631 562 640 c 0
 562 648 575 651 593 651 c 0
 625 651 643 650 674 650 c 0
 708 650 737 653 762 653 c 0
 780 653 793 650 793 642 c 0
 793 633 783 627 760 622 c 0
 725 615 712 587 710 547 c 0
EndSplineSet
Validated: 1
Substitution2: "c2sc subtable" Uogonek.sc
EndChar

StartChar: uogonek
Encoding: 371 371 275
Width: 589
VWidth: 0
Flags: W
HStem: -287 66<401.233 481.564> -14 51<210.78 326.036> 21 24<506 579.807> 365 32<28.0317 66.3555 303.066 388.327> 395 20G<468.5 499.5>
VStem: 84 91<74.2999 353.476> 289 96<-205.013 -111.887> 410 91<79.9029 349.507>
LayerCount: 3
Fore
SplineSet
411 -287 m 0xb7
 341 -287 289 -253 289 -179 c 0
 289 -114 352 -55 402 -19 c 1
 404 -9 404 44 404 57 c 1
 344 6 286 -14 215 -14 c 0
 140 -14 84 27 84 105 c 2
 84 308 l 2
 84 337 71 353 41 365 c 0
 38 366 28 370 28 380 c 0
 28 393 39 396 45 397 c 0
 108 399 119 405 164 414 c 1
 176 415 182 410 181 400 c 0
 177 369 175 353 175 323 c 2
 175 128 l 2
 175 80 220 37 267 37 c 0
 305 37 332 38 360 57 c 0
 377 68 410 91 410 132 c 2
 410 315 l 2
 410 356 355 364 331 365 c 0
 325 365 303 368 303 382 c 0
 303 394 326 397 331 397 c 0xd7
 456 402 446 405 491 415 c 1
 494 415 l 2x8f
 505 415 515 405 509 397 c 0
 505 390 501 342 501 326 c 2
 501 114 l 2
 501 73 503 45 519 45 c 0
 529 45 555 46 565 48 c 0
 570 49 580 47 580 35 c 0
 580 24 569 21 564 21 c 0
 521 16 487 6 460 -4 c 5
 428 -31 385 -82 385 -152 c 0
 385 -196 414 -221 454 -221 c 0
 495 -221 517 -200 523 -200 c 0
 528 -200 533 -201 533 -207 c 0
 533 -226 479 -287 411 -287 c 0xb7
EndSplineSet
Validated: 1
Substitution2: "Smallcaps subtable" uogonek.sc
EndChar

StartChar: uni0180
Encoding: 384 384 2168
Width: 558
VWidth: 0
Flags: W
HStem: -14 31<236.048 357.261> -2 21G<83.5 91> 373 41<231.903 352.337> 530 37<-15.2437 76 167 318.965> 639 25<21.0088 55.4626> 685 20G<163.5 166>
VStem: 76 91<69.4872 337.995 355.054 530 567 627.64> 427 98<116.575 288.838>
LayerCount: 3
Fore
SplineSet
167 388 m 2x7f
 167 367 167 356 176 355 c 1
 225 406 296 414 332 414 c 0
 443 414 525 325 525 217 c 0
 525 100 445 -14 278 -14 c 0xbf
 209 -14 142 13 127 13 c 0
 114 13 94 -2 88 -2 c 0
 79 -2 69 3 69 9 c 0
 69 11 76 52 76 105 c 2
 76 530 l 1
 -5 530 l 2
 -11 530 -19 535 -19 541 c 0
 -19 542 -18 543 -18 544 c 0
 -11 557 -2 567 13 567 c 2
 76 567 l 1
 76 573 l 2
 76 608 62 632 29 639 c 0
 24 640 21 646 21 652 c 0
 21 658 24 663 29 664 c 0
 89 676 125 692 162 704 c 0
 163 704 163 705 164 705 c 0
 168 705 171 701 171 698 c 0
 171 693 167 649 167 593 c 2
 167 567 l 1
 305 567 l 2
 314 567 319 554 319 548 c 0
 319 539 307 530 295 530 c 2
 167 530 l 1
 167 388 l 2x7f
304 17 m 0
 380 17 427 94 427 195 c 0
 427 272 382 373 287 373 c 0
 259 373 210 362 188 338 c 0
 174 323 167 306 167 253 c 2
 167 132 l 2
 167 62 234 17 304 17 c 0
EndSplineSet
Validated: 1
EndChar

StartChar: uni0181
Encoding: 385 385 2170
Width: 648
VWidth: 0
Flags: W
HStem: -5 29<38.6044 118.136> -4 41<267.575 406.026> 342 29<264.559 372.348> 458 21G<13 38.5> 625 30<183.104 377.91>
VStem: -36 86<521.881 583.407> 152 101<50.5126 334.62 374.069 611.192> 445 112<436.869 573.552> 488 122<115.164 267.121>
LayerCount: 3
Fore
SplineSet
297 371 m 0x3f
 322 371 364 376 402 400 c 0
 415 408 445 440 445 498 c 0
 445 555 414 625 307 625 c 0
 255 625 253 612 253 582 c 2
 253 408 l 2
 253 373 282 371 297 371 c 0x3f
332 37 m 0x7e80
 410 37 488 103 488 189 c 0
 488 266 441 302 414 317 c 0
 396 327 360 342 310 342 c 0
 267 342 253 319 253 306 c 2
 253 108 l 2
 253 52 281 37 332 37 c 0x7e80
258 655 m 0
 460 655 557 618 557 508 c 0xbf
 557 463 533 427 513 412 c 0
 487 392 471 382 431 369 c 0
 425 367 423 361 431 359 c 0
 507 340 610 310 610 194 c 0
 610 84 540 51 495 30 c 0
 449 9 392 -4 319 -4 c 0x7e80
 299 -4 258 0 214 0 c 0
 157 0 134 -5 70 -5 c 0
 51 -5 38 -2 38 6 c 0
 38 15 48 20 72 24 c 0xbe80
 123 33 152 51 152 99 c 2
 152 549 l 2
 152 597 148 613 118 613 c 0
 88 613 50 582 50 557 c 0
 50 524 84 524 84 501 c 0
 84 477 48 458 29 458 c 0
 -3 458 -36 494 -36 531 c 0
 -36 621 109 655 258 655 c 0
EndSplineSet
Validated: 1
EndChar

StartChar: uni0182
Encoding: 386 386 2061
Width: 616
VWidth: 0
Flags: W
HStem: -5 29<9.69801 87.1038> -4 41<242.883 375.358> 342 16<240.25 266.318> 611 39<229.814 437.495> 622 31<21.0745 97.4412>
VStem: 120 104<55.0049 336.827 358.013 605.956> 457 117<115.164 267.656> 457 49<521.953 594.237>
LayerCount: 3
Fore
SplineSet
40 -5 m 0xa6
 21 -5 9 -2 9 6 c 0
 9 15 19 20 42 24 c 0
 92 33 120 51 120 98 c 2
 120 550 l 2
 120 597 103 613 53 622 c 0
 30 626 20 633 20 642 c 0
 20 650 33 653 51 653 c 0xae
 109 653 127 650 177 650 c 18
 444 650 l 2
 447 650 480 655 486 655 c 0
 494 655 497 645 497 641 c 0
 498 598 506 573 506 540 c 0
 506 526 493 519 487 519 c 0
 478 519 460 536 457 547 c 0x35
 453 570 444 611 385 611 c 2
 253 611 l 2
 242 611 224 588 224 576 c 2
 224 408 l 2
 224 376 225 358 237 358 c 0
 239 358 240 358 242 359 c 0
 268 367 303 376 358 376 c 0
 489 376 574 310 574 194 c 0
 574 84 504 51 464 30 c 0
 420 6 361 -4 288 -4 c 0x76
 266 -4 204 4 156 4 c 0
 110 4 99 -5 40 -5 c 0xa6
224 108 m 2
 224 63 252 37 301 37 c 0x66
 379 37 457 103 457 189 c 0
 457 266 410 302 383 317 c 0
 365 327 329 342 279 342 c 0
 249 342 224 334 224 306 c 2
 224 108 l 2
EndSplineSet
Validated: 1
EndChar

StartChar: uni0183
Encoding: 387 387 2169
Width: 566
VWidth: 0
Flags: W
HStem: -14 31<235.764 362.244> -2 21G<81.5 89> 373 41<232.344 356.989> 660 40<168.952 375.338> 675 29<18.1302 58.8595>
VStem: 74 91<69.4872 337.995 355.054 657.041> 393 42<568.789 643.232> 435 98<116.575 288.838>
LayerCount: 3
Fore
SplineSet
121 700 m 2x35
 348 700 l 2
 395 700 427 703 429 703 c 0
 432 703 440 700 440 694 c 0
 440 676 435 630 435 609 c 0
 435 591 434 568 418 568 c 0
 408 568 401 580 393 606 c 0x36
 388 628 365 660 344 660 c 2
 197 660 l 2
 178 660 165 640 165 625 c 2
 165 388 l 2
 165 367 165 356 174 355 c 1
 225 406 298 414 335 414 c 0
 450 414 533 325 533 217 c 0
 533 100 452 -14 281 -14 c 0xb5
 211 -14 142 13 126 13 c 0
 112 13 92 -2 86 -2 c 0
 77 -2 67 3 67 9 c 0
 67 11 74 52 74 105 c 2
 74 566 l 2
 74 649 66 668 33 675 c 0
 28 676 18 682 18 688 c 0
 18 694 23 704 31 704 c 0x6d
 37 704 92 700 121 700 c 2x35
307 17 m 0xa5
 386 17 435 94 435 195 c 0
 435 272 389 373 290 373 c 0
 261 373 210 362 187 338 c 0
 172 323 165 306 165 253 c 2
 165 132 l 2
 165 62 234 17 307 17 c 0xa5
EndSplineSet
Validated: 1
EndChar

StartChar: uni0186
Encoding: 390 390 2178
Width: 692
VWidth: 0
Flags: W
HStem: -15 39<232.677 400.919> 628 35<216.412 382.212>
VStem: 44 111<86.2562 191.374> 545 129<233.881 446.362>
LayerCount: 3
Fore
SplineSet
44 137 m 0
 44 172 50 206 92 206 c 0
 125 206 155 181 155 149 c 0
 155 108 188 24 333 24 c 0
 469 24 545 209 545 332 c 0
 545 462 454 628 306 628 c 0
 188 628 110 549 83 498 c 0
 77 487 62 484 57 480 c 0
 56 479 56 479 55 479 c 0
 51 479 48 488 48 497 c 0
 48 500 49 503 49 505 c 0
 53 530 69 586 85 609 c 0
 90 617 112 620 139 630 c 0
 178 644 273 663 356 663 c 0
 539 663 674 550 674 353 c 0
 674 173 526 -15 313 -15 c 0
 129 -15 44 73 44 137 c 0
EndSplineSet
Validated: 1
EndChar

StartChar: uni0187
Encoding: 391 391 2159
Width: 684
VWidth: 0
Flags: W
HStem: -15 31<355.5 516.54> 632 31<344.478 511.666> 678 47<656.427 735.272>
VStem: 44 130<217.847 434.419> 604 48<474.647 565.8>
LayerCount: 3
Fore
SplineSet
641 603 m 0
 646 576 651 546 652 494 c 0
 653 485 650 470 637 471 c 0
 623 472 609 485 604 508 c 1
 599 548 581 570 569 581 c 0
 559 591 514 632 422 632 c 8
 275 632 174 494 174 347 c 8
 174 184 274 16 434 16 c 0
 549 16 597 86 624 137 c 0
 630 148 644 152 649 156 c 0
 650 157 651 157 652 157 c 0
 656 157 659 147 659 138 c 0
 659 135 658 132 658 130 c 0
 654 105 638 49 622 26 c 0
 617 18 596 16 570 5 c 0
 534 -11 454 -15 390 -15 c 8
 195 -15 44 141 44 323 c 0
 44 517 224 663 429 663 c 0
 463 663 522 657 541 651 c 0
 543 650 577 639 594 639 c 0
 599 639 602 640 603 643 c 0
 620 704 671 725 715 725 c 0
 750 725 776 712 790 696 c 0
 796 689 799 683 799 677 c 0
 799 655 780 636 761 636 c 0
 734 636 741 678 691 678 c 0
 669 678 652 652 645 639 c 0
 641 632 640 624 640 617 c 0
 640 612 641 607 641 603 c 0
EndSplineSet
Validated: 1
EndChar

StartChar: uni0188
Encoding: 392 392 2162
Width: 500
VWidth: 0
Flags: W
HStem: -14 52<215.32 331.206> 376 37<179.044 309.455> 676 30<451.592 524.876>
VStem: 33 90<136.69 277.741> 322 88<328.563 363.158 409.815 575.542>
LayerCount: 3
Fore
SplineSet
410 353 m 2
 410 336 374 319 361 319 c 0
 349 319 330 332 326 338 c 0
 314 363 284 376 234 376 c 8
 161 376 123 299 123 226 c 16
 123 130 191 38 294 38 c 16
 339 38 361 54 389 88 c 0
 392 91 396 93 399 93 c 0
 405 93 412 86 412 79 c 0
 412 42 322 -14 225 -14 c 8
 112 -14 33 77 33 180 c 8
 33 303 128 413 261 413 c 16
 277 413 295 411 311 408 c 0
 322 406 322 412 322 418 c 26
 322 465 l 18
 322 612 420 706 513 706 c 0
 549 706 582 702 596 686 c 0
 602 679 604 673 604 667 c 0
 604 645 586 622 567 622 c 0
 540 622 537 676 488 676 c 0
 445 676 410 631 410 506 c 2
 410 353 l 2
EndSplineSet
Validated: 1
EndChar

StartChar: uni018A
Encoding: 394 394 2171
Width: 796
VWidth: 0
Flags: W
HStem: -7 35<52.1899 134.208 244.442 514.862> 458 21G<5 30.5> 624 32<272.744 459.598>
VStem: -44 86<521.712 589.97> 151 105<55.2312 611.929> 639 124<212.71 463.494>
LayerCount: 3
Fore
SplineSet
151 550 m 2
 151 597 148 613 118 613 c 0
 88 613 42 582 42 557 c 0
 42 524 76 524 76 501 c 0
 76 477 40 458 21 458 c 0
 -11 458 -44 499 -44 536 c 0
 -44 626 83 656 346 656 c 0
 633 656 763 556 763 353 c 0
 763 135 627 -7 421 -7 c 0
 399 -7 281 0 196 0 c 0
 153 0 140 -5 83 -5 c 0
 65 -5 51 -2 51 6 c 0
 51 15 61 20 84 24 c 0
 134 33 151 51 151 99 c 2
 151 550 l 2
639 323 m 0
 639 496 567 624 343 624 c 0
 267 624 256 611 256 551 c 2
 256 121 l 2
 256 80 268 58 291 44 c 0
 317 29 408 28 433 28 c 0
 581 28 639 154 639 323 c 0
EndSplineSet
Validated: 1
EndChar

StartChar: uni018B
Encoding: 395 395 2107
Width: 616
VWidth: 0
Flags: W
HStem: -4 28<246.841 358.341 531.48 607.075> 341 34<212.725 352.712> 611 39<172.086 387.186> 622 31<519.559 595.926>
VStem: 43 117<99.0767 259.194> 111 49<522.522 601.981> 393 104<49.125 310.592 356.015 605.956>
LayerCount: 3
Fore
SplineSet
43 178 m 0xda
 43 294 159 375 290 375 c 0
 328 375 356 369 374 359 c 0
 377 357 383 356 385 356 c 0
 393 356 393 376 393 408 c 2
 393 576 l 2
 393 588 375 611 364 611 c 2
 232 611 l 2
 173 611 168 599 160 547 c 0
 157 536 138 519 129 519 c 0
 123 519 111 526 111 540 c 0
 111 573 118 598 119 641 c 0
 119 645 122 655 130 655 c 0
 136 655 169 650 172 650 c 2
 439 650 l 10xe6
 489 650 507 653 565 653 c 0
 583 653 597 650 597 642 c 0
 597 633 587 626 564 622 c 0
 514 613 497 597 497 550 c 2
 497 98 l 2
 497 51 525 33 575 24 c 0
 598 20 608 15 608 6 c 0
 608 -2 595 -5 576 -5 c 0
 517 -5 506 4 460 4 c 0
 412 4 305 -4 283 -4 c 0
 129 -4 43 68 43 178 c 0xda
393 108 m 2
 393 259 l 2
 393 321 329 341 277 341 c 0
 244 341 217 330 202 316 c 0
 179 294 160 274 160 197 c 0xca
 160 91 218 24 313 24 c 0
 362 24 393 63 393 108 c 2
EndSplineSet
Validated: 1
EndChar

StartChar: uni018C
Encoding: 396 396 2172
Width: 557
VWidth: 0
Flags: W
HStem: -19 50<208.1 313.779> 21 24<480.008 554.824> 379 35<198.679 318.948> 659 37<201.976 376.404> 684 20G<478.5 488>
VStem: 33 96<113.803 283.185> 382 91<63.8739 321.35 384.004 655.456>
LayerCount: 3
Fore
SplineSet
233 696 m 2xb6
 415 696 l 1xb6
 444 697 471 704 486 704 c 0
 490 704 502 692 502 687 c 0
 502 675 473 652 473 562 c 2
 473 110 l 2
 473 68 478 45 494 45 c 0
 504 45 530 46 540 48 c 0
 545 49 555 47 555 35 c 0
 555 24 545 21 539 21 c 0x6e
 480 14 440 -1 407 -13 c 0
 402 -15 387 -19 380 -19 c 0
 375 -19 376 -18 376 -15 c 0
 376 -2 381 34 381 51 c 2
 381 57 l 1
 359 26 310 -14 237 -14 c 0
 112 -14 33 89 33 190 c 0
 33 306 127 414 281 414 c 0
 312 414 360 400 367 393 c 0
 371 388 376 384 378 384 c 0
 381 384 382 390 382 408 c 2
 382 623 l 2
 382 639 366 659 347 659 c 2
 228 659 l 2
 210 659 196 632 176 606 c 0
 169 600 154 581 141 581 c 0
 129 581 128 595 133 603 c 0
 142 622 152 668 152 693 c 0
 152 703 164 711 168 711 c 0
 171 711 178 707 185 702 c 0
 192 697 212 696 233 696 c 2xb6
254 379 m 0
 213 379 129 347 129 213 c 0
 129 62 237 31 283 31 c 0
 341 31 382 72 382 120 c 2
 382 255 l 2
 382 311 335 379 254 379 c 0
EndSplineSet
Validated: 1
EndChar

StartChar: uni018D
Encoding: 397 397 2233
Width: 527
VWidth: 0
Flags: W
HStem: -264 76<103.238 310.302> 384 30<206.621 309.883>
VStem: 33 107<126.625 281.383> 371 51<-193.607 -138.143> 387 107<130.715 296.376>
LayerCount: 3
Fore
SplineSet
296 -5 m 0xe8
 354 -50 422 -77 422 -145 c 0
 422 -204 358 -247 290 -255 c 0
 236 -261 187 -264 163 -264 c 0
 94 -264 94 -266 72 -280 c 0
 71 -281 58 -287 57 -287 c 0
 53 -287 50 -278 50 -274 c 0
 50 -248 109 -188 170 -188 c 0
 225 -188 255 -200 313 -200 c 0
 350 -200 371 -188 371 -169 c 0xf0
 371 -133 274 -93 204 -43 c 0
 120 17 33 81 33 187 c 0
 33 304 125 411 293 414 c 0
 294 414 296 414 297 414 c 0
 388 414 494 329 494 213 c 0
 494 122 419 36 296 4 c 0
 288 2 291 -2 296 -5 c 0xe8
140 209 m 0
 140 110 234 23 277 23 c 0
 305 23 335 45 355 71 c 0
 382 105 387 142 387 190 c 0xe8
 387 289 332 384 269 384 c 0
 226 384 187 368 167 332 c 1
 149 302 140 258 140 209 c 0
EndSplineSet
Validated: 1
EndChar

StartChar: uni018E
Encoding: 398 398 2106
Width: 575
VWidth: 0
Flags: W
HStem: -5 40<95.6557 342.953> -5 29<489.075 565.363> 319 33<197.592 354.02> 388 20G<149.5 154.5> 618 32<124.559 347.798 475.792 555.664>
VStem: 56 33<526.055 580.219> 140 42<252.771 308.125> 355 104<45.7994 318.486 352 605.889>
LayerCount: 3
Fore
SplineSet
355 102 m 2xbf
 355 293 l 2
 355 316 344 319 321 319 c 2
 228 319 l 2
 211 319 192 305 182 274 c 0
 179 267 169 251 152 251 c 16
 142 251 140 259 140 268 c 0
 140 276 142 317 142 337 c 0
 142 353 139 383 139 392 c 0
 139 402 147 408 152 408 c 0
 157 408 169 396 171 391 c 0
 181 368 205 352 235 352 c 2
 336 352 l 2
 346 352 355 362 355 374 c 2
 355 586 l 2
 355 605 328 618 317 618 c 2
 181 618 l 2
 155 618 132 612 112 591 c 0
 103 581 96 558 89 536 c 0
 86 529 83 526 74 526 c 0
 66 526 56 529 56 541 c 0
 56 568 64 606 72 644 c 0
 73 651 84 653 92 653 c 0
 103 653 235 650 334 650 c 0
 410 650 445 653 527 653 c 0
 546 653 559 650 559 642 c 0
 559 633 549 626 526 622 c 0
 476 613 459 597 459 549 c 2
 459 99 l 2
 459 51 483 33 533 24 c 0
 556 20 566 15 566 6 c 0
 566 -2 552 -5 534 -5 c 0
 475 -5 459 1 410 1 c 16
 302 1 194 -5 55 -5 c 16x7f
 46 -5 42 3 40 12 c 0
 32 38 22 97 22 115 c 0
 22 123 29 125 36 126 c 8
 43 127 46 124 50 116 c 0
 58 99 76 67 95 53 c 0
 109 43 122 35 175 35 c 2
 285 35 l 2
 333 35 355 51 355 102 c 2xbf
EndSplineSet
Validated: 1
EndChar

StartChar: uni018F
Encoding: 399 399 2161
Width: 692
VWidth: 0
Flags: W
HStem: -15 39<221.949 398.216> 265 52<136.941 533.738> 628 35<212.436 391.574>
VStem: 19 105<116.585 253.451> 544 129<324.142 459.391>
LayerCount: 3
Fore
SplineSet
311 24 m 0
 413 24 512 97 533 232 c 0
 534 237 534 241 534 245 c 0
 534 257 531 265 522 265 c 2
 179 265 l 2
 145 265 124 239 124 205 c 0
 124 107 192 24 311 24 c 0
19 212 m 0
 19 259 84 317 162 317 c 2
 525 317 l 2
 541 317 544 334 544 350 c 0
 544 356 543 361 543 366 c 0
 525 527 444 628 298 628 c 0
 182 628 119 549 92 498 c 0
 86 487 71 484 66 480 c 0
 65 479 65 479 64 479 c 0
 60 479 57 488 57 497 c 0
 57 500 58 503 58 505 c 0
 62 530 77 586 93 609 c 0
 98 617 119 620 146 630 c 0
 185 644 278 663 360 663 c 0
 540 663 673 538 673 341 c 0
 673 161 494 -15 283 -15 c 0
 248 -15 181 -9 161 -3 c 0
 73 24 19 108 19 212 c 0
EndSplineSet
Validated: 1
EndChar

StartChar: uni0190
Encoding: 400 400 2173
Width: 548
VWidth: 0
Flags: W
HStem: -14 35<248.88 388.378> 338 34<240.17 395.826> 629 35<254.041 388.643>
VStem: 33 127<105.634 252.931> 84 112<431.176 568.02>
LayerCount: 3
Fore
SplineSet
280 338 m 0xe8
 202 338 160 268 160 191 c 0
 160 105 224 21 313 21 c 0
 376 21 423 46 451 116 c 0
 467 145 477 160 482 160 c 0
 495 160 508 153 508 145 c 0
 508 109 500 80 496 52 c 0
 493 34 473 21 459 15 c 0
 424 0 366 -14 277 -14 c 0
 161 -14 33 54 33 169 c 0xf0
 33 285 133 340 209 359 c 0
 217 361 215 367 209 369 c 0
 168 382 152 392 126 412 c 0
 106 427 84 450 84 495 c 0
 84 604 204 664 311 664 c 0
 376 664 407 653 454 642 c 0
 464 640 466 632 468 622 c 0
 474 588 478 565 478 530 c 0
 478 521 474 505 469 505 c 0
 464 505 446 515 443 530 c 0
 419 621 360 629 306 629 c 0
 238 629 196 560 196 506 c 0
 196 439 230 372 280 372 c 0
 321 372 319 378 358 378 c 0
 371 378 396 370 396 353 c 0
 396 334 369 332 355 332 c 0
 316 332 299 338 280 338 c 0xe8
EndSplineSet
Validated: 1
EndChar

StartChar: uni0191
Encoding: 401 401 2105
Width: 353
VWidth: 0
Flags: W
HStem: -200 42<26.5825 105.101> 318 37<238.107 411.604> 391 20G<444.5 449.5> 611 39<241.722 466.331> 622 31<40.0745 108.304>
VStem: 133 104<-45.8831 315.741 352.008 603.448> 423 42<257.035 308.563> 498 31<523.517 572.193>
AnchorPoint: "top_accent" 306 700 basechar 0
LayerCount: 3
Fore
SplineSet
133 522 m 2xf7
 133 582 122 613 72 622 c 0
 49 626 39 633 39 642 c 0
 39 650 52 653 71 653 c 0xef
 151 653 184 650 259 650 c 0xf7
 358 650 502 653 504 653 c 0xef
 512 653 523 651 524 644 c 0
 528 621 529 558 529 544 c 0
 529 532 526 523 518 523 c 0
 509 523 501 528 498 535 c 0
 491 557 484 574 475 584 c 0
 455 605 431 611 405 611 c 2
 273 611 l 2
 241 611 238 587 237 561 c 0
 236 536 236 502 236 467 c 0
 236 433 236 398 237 374 c 0
 237 363 239 352 248 352 c 0
 291 352 341 355 366 355 c 0
 396 355 419 371 429 394 c 0
 431 399 442 411 447 411 c 0
 452 411 461 404 460 395 c 0
 461 372 462 356 462 340 c 0
 462 320 462 301 465 272 c 0
 465 263 464 255 454 255 c 8
 437 255 426 271 423 278 c 0
 413 309 392 317 376 317 c 0
 359 317 342 318 326 318 c 0
 303 318 282 317 261 316 c 0
 248 315 237 308 237 291 c 2
 237 127 l 2
 237 21 209 -95 180 -134 c 0
 151 -173 110 -200 46 -200 c 0
 -25 -200 -66 -179 -66 -158 c 0
 -66 -131 -48 -103 -30 -103 c 0
 -4 -103 8 -111 20 -129 c 0
 35 -152 50 -158 67 -158 c 0
 114 -158 133 -97 133 0 c 2
 133 522 l 2xf7
EndSplineSet
Validated: 1
EndChar

StartChar: florin
Encoding: 402 402 2104
Width: 339
VWidth: 0
Flags: W
HStem: -288 37<-14.641 62.5156> 352 48<189 334.239> 352 24<36.0961 68.3357> 665 41<241.149 359.799>
VStem: 95 94<-172.986 350 400.148 539.479>
LayerCount: 3
Fore
SplineSet
189 478 m 2xb8
 189 422 l 2
 189 404 201 400 214 400 c 10
 332 400 l 18
 335 400 336 395 336 389 c 0
 336 375 330 352 323 352 c 10
 229 352 l 18xd8
 193 352 189 345 189 335 c 2
 189 82 l 6
 189 -21 184 -128 168 -173 c 4
 137 -259 73 -288 14 -288 c 4
 -29 -288 -92 -272 -92 -249 c 4
 -92 -219 -76 -193 -54 -193 c 4
 -30 -193 -22 -251 21 -251 c 4
 46 -251 73 -234 83 -199 c 4
 95 -158 95 -43 95 60 c 6
 95 350 l 1
 82 350 64 350 43 352 c 0
 37 353 26 374 36 376 c 0
 66 384 75 392 94 402 c 1
 94 633 235 706 328 706 c 0
 376 706 398 705 429 681 c 16
 441 672 446 659 446 646 c 0
 446 624 430 606 412 606 c 0
 385 606 371 665 294 665 c 0
 232 665 189 610 189 478 c 2xb8
EndSplineSet
Validated: 1
EndChar

StartChar: uni0193
Encoding: 403 403 2160
Width: 781
VWidth: 0
Flags: W
HStem: -14 37<341.923 523.711> 255 35<465.046 563.328 689.75 742.797> 625 38<339.845 546.361> 675 50<683.311 758.625>
VStem: 43 129<219.486 438.212> 588 85<72.2344 236.12> 633 49<493.03 558.637>
LayerCount: 3
Fore
SplineSet
682 512 m 0xfa
 682 502 672 492 662 492 c 8
 644 492 638 507 633 519 c 0xfa
 625 540 617 553 601 572 c 0
 588 588 535 625 438 625 c 8
 285 625 172 504 172 346 c 0
 172 186 266 23 425 23 c 0
 502 23 547 51 561 60 c 0
 579 72 585 102 585 137 c 0
 585 154 588 176 588 194 c 0
 588 208 587 219 583 224 c 0
 566 246 505 255 485 255 c 0
 480 255 465 262 465 272 c 0
 465 282 481 290 486 290 c 8
 539 290 563 286 623 286 c 8
 661 286 681 290 720 290 c 0
 725 290 743 287 743 274 c 0
 743 265 726 256 721 255 c 0
 691 247 682 233 678 206 c 0
 674 177 673 156 673 131 c 2
 673 105 l 10xfc
 673 98 676 95 679 89 c 24
 683 82 694 77 694 72 c 0
 694 67 688 57 679 54 c 24
 582 23 513 -14 427 -14 c 8
 218 -14 43 137 43 329 c 16
 43 522 229 663 437 663 c 16
 491 663 593 644 610 640 c 0
 615 639 629 638 630 643 c 0
 648 704 704 725 749 725 c 0
 788 725 827 711 827 681 c 0
 827 659 806 625 787 625 c 0
 759 625 769 675 719 675 c 4
 697 675 681 652 674 639 c 0
 670 632 669 624 669 617 c 0
 669 612 670 607 670 603 c 0
 675 576 682 538 682 512 c 0xfa
EndSplineSet
Validated: 1
EndChar

StartChar: uni0194
Encoding: 404 404 2365
Width: 711
VWidth: 0
Flags: W
HStem: -286 47<302.727 366.155> 620 33<1.78247 67.7197 207.279 297.715 440.117 518.358 638.09 715.162>
VStem: 218 73<-230.541 -95.4136> 374 96<-221.595 -60.2197>
LayerCount: 3
Fore
SplineSet
306 72 m 6
 109 547 l 2
 94 584 71 610 35 620 c 0
 12 627 0 633 0 642 c 0
 0 650 13 653 31 653 c 0
 64 653 111 650 160 650 c 0
 202 650 247 652 268 652 c 0
 286 652 299 649 299 641 c 0
 299 632 287 625 260 621 c 0
 225 615 186 598 186 580 c 0
 186 572 193 542 196 533 c 2
 339 197 l 2
 357 156 365 148 383 189 c 2
 537 547 l 2
 539 551 546 575 546 579 c 0
 546 595 500 613 474 620 c 0
 459 624 439 631 439 640 c 0
 439 648 452 651 469 651 c 0
 496 651 531 650 570 650 c 0
 610 650 660 653 687 653 c 0
 704 653 717 650 717 642 c 0
 717 633 706 627 682 622 c 0
 630 611 594 571 579 535 c 2
 403 95 l 2
 393 76 395 69 409 41 c 0
 462 -65 470 -87 470 -155 c 0
 470 -224 405 -286 321 -286 c 0
 252 -286 218 -237 218 -174 c 0
 218 -139 249 -64 307 42 c 4
 315 54 312 59 306 72 c 6
327 -28 m 4
 311 -65 291 -119 291 -161 c 0
 291 -206 307 -239 333 -239 c 0
 361 -239 374 -215 374 -173 c 0
 374 -148 361 -83 342 -28 c 4
 339 -20 331 -20 327 -28 c 4
EndSplineSet
Validated: 33
EndChar

StartChar: uni0195
Encoding: 405 405 2174
Width: 754
VWidth: 0
Flags: W
HStem: -14 43<479.309 594.07> -3 27<18.9975 70.3797 186.237 234.934> 362 52<252.512 374> 639 25<31.0088 63.1195> 685 20G<175 179>
VStem: 84 91<32.0327 331.372 351.291 626.703> 363 91<53.875 327.903> 649 91<141.147 294.601>
LayerCount: 3
Fore
SplineSet
649 218 m 0xbf
 649 313 561 360 561 370 c 0
 561 389 607 414 626 414 c 0
 648 414 740 357 740 249 c 0
 740 132 663 -14 494 -14 c 0xbf
 431 -14 363 45 363 114 c 2
 363 272 l 10
 363 319 318 362 281 362 c 0
 256 362 221 351 202 336 c 0
 181 319 175 309 175 268 c 2
 175 65 l 1
 176 38 193 30 213 24 c 0
 224 20 236 16 236 6 c 0
 236 -2 223 -3 214 -3 c 0
 213 -3 212 -3 211 -3 c 0
 168 -3 169 2 130 2 c 0
 91 2 87 -3 44 -3 c 0
 43 -3 41 -3 40 -3 c 0
 32 -3 18 -2 18 6 c 0
 18 16 30 20 41 24 c 0x7f
 61 30 83 38 84 65 c 1
 84 566 l 2
 84 602 73 632 39 639 c 0
 34 640 31 646 31 652 c 0
 31 658 34 663 39 664 c 0
 99 676 138 692 175 704 c 0
 176 704 177 705 177 705 c 1
 181 705 182 701 184 698 c 1
 184 686 175 669 175 562 c 2
 175 388 l 2
 175 376 178 357 183 351 c 1
 217 374 274 414 342 414 c 0
 406 414 454 372 454 294 c 2
 454 114 l 2
 454 67 486 29 530 29 c 0
 636 29 649 124 649 218 c 0xbf
EndSplineSet
Validated: 1
EndChar

StartChar: uni0196
Encoding: 406 406 2382
Width: 397
VWidth: 0
Flags: W
HStem: -11 45<213.101 343.995> 622 31<29.1899 106.103 257.866 335.018>
VStem: 128 104<57.874 604.158>
AnchorPoint: "top_accent" 195 700 basechar 0
AnchorPoint: "below_accent" 195 -100 basechar 0
LayerCount: 3
Fore
SplineSet
232 179 m 2
 232 76 251 34 298 34 c 0
 335 34 369 84 384 84 c 0
 392 84 398 80 398 57 c 0
 398 43 345 -11 257 -11 c 0
 171 -11 128 42 128 120 c 2
 128 550 l 2
 128 597 112 613 62 622 c 0
 39 626 28 633 28 642 c 0
 28 650 42 653 60 653 c 0
 119 653 137 650 187 650 c 24
 233 650 246 653 305 653 c 0
 323 653 336 650 336 642 c 0
 336 633 327 626 304 622 c 0
 254 613 232 597 232 550 c 2
 232 179 l 2
EndSplineSet
Validated: 1
EndChar

StartChar: uni0197
Encoding: 407 407 2175
Width: 340
VWidth: 0
Flags: W
HStem: -5 29<18.6016 96.1038 266.602 344.398> 316 37<43.6938 319.195> 622 31<30.0745 106.441 258.205 335.926>
VStem: 129 104<46.75 604.158>
LayerCount: 3
Fore
SplineSet
68 353 m 26
 306 353 l 18
 313 353 320 347 320 341 c 0
 320 320 302 316 286 316 c 26
 57 316 l 26
 49 316 42 322 42 328 c 0
 42 337 54 353 68 353 c 26
EndSplineSet
Refer: 33 73 S 1 0 0 1 0 0 2
Validated: 5
EndChar

StartChar: uni0198
Encoding: 408 408 2176
Width: 724
VWidth: 0
Flags: W
HStem: -5 29<29.6367 103.863 268.436 334.406 647.445 730.251> 322 23<233.527 254.475> 621 46<551.613 641.5> 622 31<30.0745 106.441 248.967 318.926>
VStem: 129 111<45.0373 298.058> 129 104<113.727 321.99 345.01 605.863> 605 92<535.591 619.926>
LayerCount: 3
Fore
SplineSet
697 575 m 0xe6
 697 528 644 511 621 511 c 0
 607 511 594 522 594 539 c 0
 594 549 605 576 605 588 c 0
 605 602 605 621 581 621 c 0
 561 621 538 600 495 558 c 1
 495 558 384 448 320 371 c 24
 314 365 317 360 326 353 c 2
 581 95 l 1
 626 47 637 36 697 24 c 0
 721 19 731 15 731 6 c 0
 731 -2 718 -5 700 -5 c 0
 637 -5 610 0 551 0 c 0
 524 0 512 -1 464 -1 c 0
 446 -1 432 2 432 10 c 0
 432 19 440 23 459 27 c 0
 479 32 487 39 487 47 c 0
 487 55 480 63 472 72 c 2
 260 305 l 26
 253 313 242 322 237 322 c 0
 231 322 233 308 233 301 c 0xe6
 233 238 236 190 240 110 c 0
 242 67 254 33 303 24 c 0
 326 20 335 15 335 6 c 0
 335 -2 322 -5 304 -5 c 0
 245 -5 239 2 198 2 c 24
 145 2 120 -5 61 -5 c 0
 43 -5 29 -2 29 6 c 0
 29 15 39 20 62 24 c 0
 112 33 129 51 129 101 c 2xea
 129 551 l 2
 129 597 112 613 62 622 c 0
 39 626 29 633 29 642 c 0
 29 650 42 653 61 653 c 0
 120 653 135 651 183 651 c 24
 224 651 230 653 289 653 c 0
 308 653 320 650 320 642 c 0
 320 633 310 626 287 622 c 0xd6
 237 613 233 590 233 551 c 2
 233 364 l 2
 233 359 234 345 239 345 c 0
 246 345 260 355 267 363 c 2
 459 567 l 1
 524 631 569 667 618 667 c 0
 665 667 697 645 697 575 c 0xe6
EndSplineSet
Validated: 1
EndChar

StartChar: uni0199
Encoding: 409 409 2108
Width: 489
VWidth: 0
Flags: W
HStem: -3 27<19.092 70.766 184.421 231.962 441.448 496.704> 378 22<293.492 328.089> 384 28<409.276 465.679> 676 30<226.361 292.376>
VStem: 84 91<32.0327 205.138 223.955 582.473>
LayerCount: 3
Fore
SplineSet
175 231 m 2xb8
 175 224 177 223 181 224 c 0
 190 226 201 232 216 245 c 0
 270 292 319 342 330 358 c 0
 331 359 331 360 331 361 c 0
 331 368 319 375 305 378 c 0
 302 379 293 383 293 386 c 0
 293 398 311 400 315 400 c 10
 364 400 l 2xd8
 400 400 433 409 460 412 c 0
 463 412 468 409 468 405 c 0
 468 397 457 386 448 384 c 0
 423 379 396 364 378 353 c 0
 365 345 298 289 250 247 c 0
 244 243 242 234 247 230 c 0
 299 167 373 89 394 70 c 0
 416 49 456 28 476 22 c 0
 487 18 499 14 499 4 c 0
 499 -4 486 -5 479 -5 c 0
 478 -5 477 -5 476 -5 c 0
 437 -5 404 0 355 0 c 2
 297 0 l 2
 292 0 274 -1 274 9 c 0
 274 30 318 26 318 46 c 0
 318 50 315 55 311 60 c 2
 185 205 l 2
 182 208 175 207 175 199 c 0
 174 180 174 158 174 135 c 0
 174 112 174 88 175 65 c 1
 175 38 190 30 210 24 c 0
 221 20 233 16 233 6 c 0
 233 -4 214 -3 208 -3 c 0
 165 -3 169 2 130 2 c 0
 91 2 87 -3 44 -3 c 0
 38 -3 18 -4 18 6 c 0
 18 16 30 20 41 24 c 0
 61 30 84 38 84 65 c 2
 84 465 l 2
 84 634 187 706 280 706 c 0
 316 706 349 702 363 686 c 0
 369 679 372 673 372 667 c 0
 372 645 354 622 335 622 c 0
 308 622 305 676 256 676 c 0
 213 676 176 594 175 500 c 2
 175 231 l 2xb8
EndSplineSet
Validated: 1
EndChar

StartChar: uni019A
Encoding: 410 410 2177
Width: 260
VWidth: 0
Flags: W
HStem: -3 27<18.9975 72.9702 186.03 240.003> 321 39<12.7812 84 176 248.149> 639 25<30.0116 62.7004> 685 20G<174.5 176.5>
VStem: 84 92<31.1488 321 360 627.687>
LayerCount: 3
Fore
SplineSet
175 62 m 0
 175 35 198 30 218 24 c 0
 229 20 241 16 241 6 c 0
 241 -2 227 -3 219 -3 c 0
 176 -3 169 2 130 2 c 0
 91 2 83 -3 40 -3 c 0
 32 -3 18 -2 18 6 c 0
 18 16 30 20 41 24 c 0
 61 30 84 35 84 62 c 2
 84 321 l 1
 25 321 l 2
 18 321 11 327 11 333 c 0
 11 342 21 360 35 360 c 2
 84 360 l 1
 84 566 l 2
 84 605 71 632 38 639 c 0
 33 640 30 646 30 652 c 0
 30 658 34 663 39 664 c 0
 98 676 136 692 173 704 c 0
 174 704 174 705 175 705 c 0
 178 705 182 701 182 698 c 0
 182 686 176 652 176 562 c 2
 176 360 l 1
 236 360 l 2
 242 360 249 354 249 348 c 0
 249 327 234 321 218 321 c 2
 176 321 l 1
 176 242 175 161 175 62 c 0
EndSplineSet
Validated: 1
EndChar

StartChar: uni019C
Encoding: 412 412 2380
Width: 1115
VWidth: 0
Flags: W
HStem: -13 50<274.27 401.538 668.679 790.927> -3 31<1009.9 1086.8> 621 31<11.4434 69.8555 234.047 294.675 403.59 463.855 628.047 686.932 785.938 854.864 1012.14 1094.77>
VStem: 96 104<138.711 594.53> 490 104<143.452 594.53> 884 104<43.1817 79.9963 149.348 599.888>
CounterMasks: 1 1c
LayerCount: 3
Fore
SplineSet
490 547 m 2xbc
 490 595 458 614 436 620 c 0
 413 626 402 633 402 642 c 0
 402 650 415 653 434 653 c 0
 467 653 504 650 548 650 c 24
 591 650 634 652 657 652 c 0
 676 652 688 649 688 641 c 0
 688 632 678 628 656 621 c 0
 640 616 594 589 594 549 c 2
 594 266 l 10
 594 162 628 37 732 37 c 16xbc
 851 37 884 182 884 301 c 18
 884 550 l 1
 883 601 846 613 818 621 c 0
 804 625 784 632 784 641 c 0
 784 649 798 652 816 652 c 0
 842 652 869 651 900 651 c 0
 964 651 1002 655 1067 655 c 0
 1085 655 1098 652 1098 644 c 0
 1098 635 1089 630 1066 626 c 0
 1016 617 988 599 988 552 c 2
 988 100 l 2
 988 53 1004 37 1054 28 c 0
 1077 24 1088 17 1088 8 c 0
 1088 0 1074 -3 1055 -3 c 0x7c
 1001 -3 994 0 967 0 c 0
 939 0 906 -6 890 -6 c 0
 883 -6 878 -1 878 8 c 0
 878 14 884 25 884 40 c 2
 884 63 l 18
 884 75 882 80 870 80 c 0
 863 80 853 59 837 44 c 0
 798 7 763 -13 707 -13 c 16
 542 -13 515 108 503 108 c 0
 496 108 474 67 458 52 c 0
 419 15 386 -13 313 -13 c 8
 172 -13 96 60 96 258 c 2
 96 547 l 2
 96 595 64 614 42 620 c 0
 19 626 10 633 10 642 c 0
 10 650 22 653 41 653 c 0
 74 653 111 650 155 650 c 24
 198 650 241 652 264 652 c 0
 283 652 296 649 296 641 c 0
 296 632 284 628 262 621 c 0
 246 616 200 589 200 549 c 2
 200 282 l 10
 200 172 228 37 338 37 c 16
 458 37 490 174 490 288 c 18
 490 547 l 2xbc
EndSplineSet
Validated: 1
EndChar

StartChar: uni019D
Encoding: 413 413 2109
Width: 802
VWidth: 0
Flags: W
HStem: -200 42<24.849 97.1594> -17 21G<666 677> 619 31<551.074 614.256 718.915 790.398> 620 38<7.66321 81.8053>
VStem: 136 69<-89.2146 391.624> 136 55<260.221 499.991> 641 56<136.004 599.75>
LayerCount: 3
Fore
SplineSet
41 -200 m 0xea
 -28 -200 -68 -179 -68 -158 c 0
 -68 -131 -50 -103 -32 -103 c 0
 -6 -103 6 -111 18 -129 c 0
 33 -152 48 -158 65 -158 c 0
 112 -158 136 -63 136 32 c 2xea
 136 507 l 2
 136 578 96 601 37 620 c 0
 31 622 6 632 6 644 c 0
 6 656 22 658 29 658 c 0xd6
 109 656 113 653 187 653 c 0
 199 653 205 645 212 636 c 0
 231 609 582 180 602 156 c 0
 607 150 620 136 628 136 c 0
 633 136 637 142 638 157 c 0
 639 189 641 365 641 477 c 2
 641 564 l 1
 640 590 605 615 583 619 c 0
 560 623 550 630 550 639 c 0
 550 647 562 650 580 650 c 2
 640 650 l 2
 691 650 698 653 762 653 c 0
 780 653 793 650 793 642 c 0
 793 633 781 621 758 617 c 0
 715 609 698 594 697 561 c 0
 696 537 694 63 694 8 c 0
 694 -13 682 -17 672 -17 c 0
 660 -17 622 2 589 46 c 0
 570 71 246 456 222 484 c 0
 212 496 205 500 200 500 c 0
 193 500 191 487 191 479 c 0xe6
 191 419 196 274 202 158 c 0
 203 133 205 109 205 85 c 0
 205 -81 171 -200 41 -200 c 0xea
EndSplineSet
Validated: 1
EndChar

StartChar: uni019E
Encoding: 414 414 2098
Width: 567
VWidth: 0
Flags: W
HStem: -285 27<323.997 377.97 495.03 548.934> -3 27<24.0658 77.5549 191.445 244.934> 348 26<25.0354 66.5542> 365 49<262.67 394.911> 410 20G<177.5 180>
VStem: 89 91<31.1488 335.218> 389 95<-250.851 334.946>
LayerCount: 3
Fore
SplineSet
299 365 m 0xd6
 232 365 180 347 180 268 c 2
 180 62 l 1
 181 35 203 30 223 24 c 0
 234 20 246 16 246 6 c 0
 246 -2 233 -3 224 -3 c 0
 223 -3 221 -3 220 -3 c 0
 177 -3 173 2 134 2 c 0
 95 2 91 -3 48 -3 c 0
 47 -3 46 -3 45 -3 c 0
 36 -3 23 -2 23 6 c 0
 23 16 35 20 46 24 c 0
 66 30 88 35 89 62 c 1
 89 276 l 2
 89 312 79 341 35 348 c 0
 28 349 25 356 25 362 c 0
 25 367 28 373 34 374 c 0
 101 386 145 412 175 429 c 0
 176 430 177 430 178 430 c 0xee
 182 430 186 424 187 421 c 1
 187 411 180 372 180 355 c 0
 180 351 180 348 181 347 c 1
 212 371 291 414 359 414 c 0
 429 414 484 373 484 295 c 2
 484 -220 l 2
 484 -247 507 -252 527 -258 c 0
 538 -262 550 -266 550 -276 c 0
 550 -284 537 -285 528 -285 c 0
 527 -285 525 -285 524 -285 c 0
 481 -285 475 -280 436 -280 c 0
 397 -280 391 -285 348 -285 c 0
 347 -285 346 -285 345 -285 c 0
 337 -285 323 -284 323 -276 c 0
 323 -266 335 -262 346 -258 c 0
 366 -252 389 -247 389 -220 c 2
 389 272 l 2
 389 330 352 365 299 365 c 0xd6
EndSplineSet
Validated: 1
EndChar

StartChar: uni019F
Encoding: 415 415 2135
Width: 816
VWidth: 0
Flags: W
HStem: -14 39<337.035 513.81> 275 78<407.585 559.196> 320 77<266.954 400.8> 625 39<312.759 495.095>
VStem: 43 126<257.71 441.114> 648 126<210.575 405.751>
LayerCount: 3
Fore
SplineSet
43 320 m 0xbc
 43 501 174 664 417 664 c 0
 606 664 774 532 774 335 c 0
 774 155 647 -14 409 -14 c 0
 217 -14 43 130 43 320 c 0xbc
402 625 m 0
 254 625 169 490 169 350 c 0
 169 332 170 313 172 296 c 1
 200 327 280 397 317 397 c 0xbc
 363 397 437 353 516 353 c 0xdc
 553 353 616 392 639 405 c 1
 613 539 532 625 402 625 c 0
645 366 m 1
 615 334 542 275 504 275 c 0xdc
 456 275 354 320 300 320 c 0
 257 320 187 268 178 264 c 1
 206 131 299 25 422 25 c 0
 572 25 648 134 648 305 c 0
 648 326 647 346 645 366 c 1
EndSplineSet
Validated: 1
EndChar

StartChar: Ohorn
Encoding: 416 416 287
Width: 850
VWidth: 0
Flags: W
HStem: -14 39<337.902 513.81> 546 43<690.817 774.996> 625 39<314.659 497.119>
VStem: 43 126<219.261 440.908> 648 126<210.144 441.341> 777 73<602.737 672.5>
AnchorPoint: "cedilla" 439 8 basechar 0
AnchorPoint: "ogonek" 547 18 basechar 0
AnchorPoint: "below_accent" 397 -100 basechar 0
AnchorPoint: "top_accent" 410 700 basechar 0
LayerCount: 3
Back
SplineSet
375 625 m 4
 227 625 142 490 142 350 c 4
 142 179 247 25 395 25 c 4
 545 25 621 134 621 305 c 4
 621 495 535 625 375 625 c 4
45 320 m 4
 45 501 166 664 390 664 c 4
 564 664 718 532 718 335 c 4
 718 155 601 -14 382 -14 c 4
 205 -14 45 130 45 320 c 4
EndSplineSet
Fore
SplineSet
707 546 m 0
 689 546 687 538 691 533 c 0
 743 473 774 420 774 334 c 0
 774 154 647 -14 409 -14 c 0
 217 -14 43 130 43 320 c 0
 43 500 171 664 409 664 c 0
 562 664 631 608 677 598 c 0
 685 596 712 589 721 589 c 0
 748 589 777 601 777 615 c 0
 777 647 723 630 723 663 c 0
 723 688 773 721 801 721 c 0
 824 721 850 684 850 661 c 0
 850 584 752 546 707 546 c 0
402 625 m 0
 254 625 169 490 169 350 c 0
 169 179 274 25 422 25 c 0
 572 25 648 134 648 305 c 0
 648 495 562 625 402 625 c 0
EndSplineSet
Validated: 1
EndChar

StartChar: ohorn
Encoding: 417 417 288
Width: 557
VWidth: 0
Flags: W
HStem: -14 30<226.535 341.892> 336 38<467.131 485.941> 383 31<200.97 314.923>
VStem: 33 107<109.934 274.74> 401 107<115.494 288.331> 490 78<382.627 449>
AnchorPoint: "ogonek" 360 18 basechar 0
AnchorPoint: "below_accent" 269 -100 basechar 0
AnchorPoint: "top_accent" 269 550 basechar 0
LayerCount: 3
Back
SplineSet
237 383 m 4
 201 383 173 374 149 343 c 4
 122 309 117 258 117 210 c 4
 117 111 175 16 255 16 c 4
 300 16 338 32 358 71 c 4
 374 102 378 150 378 189 c 4
 378 284 322 383 237 383 c 4
254 414 m 4
 370 414 460 321 460 213 c 4
 460 96 384 -14 234 -14 c 4
 122 -14 35 70 35 187 c 4
 35 298 131 414 254 414 c 4
EndSplineSet
Fore
SplineSet
260 383 m 0xf8
 224 383 196 374 172 343 c 0
 145 309 140 258 140 210 c 0
 140 111 198 16 278 16 c 0
 323 16 361 32 381 71 c 0
 397 102 401 150 401 189 c 0
 401 284 345 383 260 383 c 0xf8
508 212 m 0
 508 95 424 -14 256 -14 c 0
 131 -14 33 70 33 187 c 0
 33 298 140 414 277 414 c 0
 306 414 337 407 358 401 c 0
 392 390 444 374 461 374 c 0
 481 374 490 391 490 405 c 0
 490 421 466 435 452 439 c 0
 445 441 441 447 441 454 c 0
 441 472 476 497 515 497 c 0
 541 497 568 466 568 432 c 0xf4
 568 390 511 336 459 336 c 0
 453 336 457 326 461 322 c 0
 495 288 508 247 508 212 c 0
EndSplineSet
Validated: 1
EndChar

StartChar: uni01A2
Encoding: 418 418 2367
Width: 966
VWidth: 0
Flags: W
HStem: -286 29<606.806 695.442 870.602 948.361> -15 31<318.352 444.442> 612 38<608.977 726.267> 622 31<862.205 939.926> 632 31<322.645 455.825>
VStem: 39 130<192.441 423.186> 559 116<194.525 494.61> 733 104<-233.158 604.12>
LayerCount: 3
Fore
SplineSet
391 632 m 8xcf
 244 632 169 473 169 326 c 8
 169 177 237 16 393 16 c 0
 494 16 559 150 559 291 c 0
 559 457 535 632 391 632 c 8xcf
700 650 m 16xe7
 747 650 850 653 909 653 c 0
 928 653 941 650 941 642 c 0
 941 633 931 626 908 622 c 0xd7
 858 613 837 597 837 550 c 2
 837 -183 l 2
 837 -230 866 -248 916 -257 c 0
 939 -261 949 -266 949 -275 c 0
 949 -283 935 -286 916 -286 c 0
 855 -286 836 -281 784 -281 c 24
 727 -281 700 -286 639 -286 c 0
 620 -286 606 -283 606 -275 c 0
 606 -266 618 -261 644 -257 c 0
 701 -248 733 -230 733 -183 c 2
 733 550 l 2
 733 597 727 612 668 612 c 0xe7
 640 612 629 608 608 597 c 28
 599 593 598 583 603 578 c 0
 662 519 675 434 675 326 c 8
 675 158 571 -15 385 -15 c 0
 198 -15 39 120 39 302 c 0
 39 496 197 663 410 663 c 0xcf
 481 663 557 638 565 638 c 0
 576 638 647 650 700 650 c 16xe7
EndSplineSet
Validated: 1
EndChar

StartChar: uni01A3
Encoding: 419 419 2368
Width: 715
VWidth: 0
Flags: W
HStem: -287 27<491.997 546.563 660.03 714.003> -14 38<227.511 345.534> 336 40<478.032 546.5> 382 32<222.849 332.105> 406 20G<631.5 651.5>
VStem: 33 107<108.761 275.684> 399 98<106.646 300.497> 558 91<-252.459 328.829>
LayerCount: 3
Fore
SplineSet
478 292 m 0xef
 483 279 497 243 497 203 c 0
 497 78 403 -14 256 -14 c 0
 140 -14 33 54 33 178 c 0
 33 319 146 414 311 414 c 0xf7
 349 414 409 401 427 396 c 0
 466 385 504 376 546 376 c 0
 588 376 613 426 650 426 c 0
 653 426 656 422 656 419 c 0
 656 407 649 373 649 283 c 2
 649 -222 l 2
 649 -249 672 -254 692 -260 c 0
 703 -264 715 -268 715 -278 c 0
 715 -286 701 -287 693 -287 c 0
 650 -287 642 -282 603 -282 c 0
 564 -282 556 -287 513 -287 c 0
 505 -287 491 -286 491 -278 c 0
 491 -268 503 -264 514 -260 c 0
 534 -254 558 -249 558 -222 c 2
 558 268 l 2
 558 307 541 336 517 336 c 0
 494 336 465 323 478 292 c 0xef
280 382 m 16
 208 382 140 320 140 205 c 0
 140 72 235 24 295 24 c 8
 373 24 399 117 399 195 c 16
 399 281 366 382 280 382 c 16
EndSplineSet
Validated: 33
EndChar

StartChar: uni01A4
Encoding: 420 420 2179
Width: 623
VWidth: 0
Flags: W
HStem: -5 29<45.6016 122.368 285.305 355.363> 254 26<304.431 406.575> 458 21G<13 38.5> 625 32<189.952 396.323>
VStem: -36 86<521.881 582.952> 152 104<45.1651 611.523> 495 114<388.404 545.892>
LayerCount: 3
Fore
SplineSet
359 254 m 0
 342 254 304 257 304 269 c 0
 304 275 311 280 318 280 c 2
 320 280 l 1
 327 279 333 279 340 279 c 0
 375 279 411 291 432 307 c 0
 479 343 495 407 495 467 c 0
 495 577 395 625 320 625 c 0
 282 625 256 616 256 586 c 2
 256 111 l 2
 256 63 273 33 323 24 c 0
 346 20 356 15 356 6 c 0
 356 -2 342 -5 324 -5 c 0
 265 -5 259 2 218 2 c 24
 163 2 135 -5 76 -5 c 0
 58 -5 45 -2 45 6 c 0
 45 15 55 20 78 24 c 0
 129 33 152 51 152 100 c 2
 152 548 l 2
 152 597 148 613 118 613 c 0
 88 613 50 582 50 557 c 0
 50 524 84 524 84 501 c 0
 84 477 48 458 29 458 c 0
 -3 458 -36 494 -36 531 c 0
 -36 621 116 657 267 657 c 0
 351 657 459 646 496 629 c 0
 535 611 609 570 609 484 c 0
 609 439 588 358 528 304 c 0
 483 264 411 254 359 254 c 0
EndSplineSet
Validated: 1
EndChar

StartChar: uni01A5
Encoding: 421 421 2110
Width: 561
VWidth: 0
Flags: W
HStem: -285 27<19.0147 72.9702 192.131 254.981> -14 31<216.255 342.603> 369 45<256.453 359.171> 676 30<223.432 292.376>
VStem: 84 91<-246.875 17.9674 48.5384 335.473 348 573.484> 424 104<132.017 298.226>
LayerCount: 3
Fore
SplineSet
178 357 m 2
 178 352 178 349 178 348 c 1
 198 367 284 414 352 414 c 0
 463 414 528 319 528 225 c 0
 528 106 421 -14 286 -14 c 0
 256 -14 200 0 179 18 c 1
 176 18 175 -27 175 -33 c 2
 175 -220 l 2
 175 -247 213 -252 233 -258 c 0
 244 -262 256 -266 256 -276 c 0
 256 -284 241 -285 232 -285 c 0
 189 -285 167 -280 129 -280 c 0
 91 -280 84 -285 41 -285 c 0
 33 -285 18 -284 18 -276 c 0
 18 -266 30 -262 41 -258 c 0
 61 -252 84 -247 84 -220 c 2
 83 462 l 2
 83 612 187 706 280 706 c 0
 316 706 349 702 363 686 c 0
 369 679 372 673 372 667 c 0
 372 645 354 622 335 622 c 0
 308 622 305 676 256 676 c 0
 213 676 178 609 178 500 c 2
 178 357 l 2
294 17 m 0
 333 17 424 59 424 193 c 0
 424 347 331 369 288 369 c 0
 254 369 227 359 202 340 c 0
 187 329 178 310 176 269 c 0
 176 252 175 229 175 205 c 0
 175 171 177 136 178 115 c 0
 179 97 183 60 202 42 c 0
 217 28 250 17 294 17 c 0
EndSplineSet
Validated: 1
EndChar

StartChar: uni01A6
Encoding: 422 422 2111
Width: 683
VWidth: 0
Flags: W
HStem: -124 46<637.984 746.987> -5 29<18.6016 96.1038 266.602 344.398> 523 31<247.344 370.023> 622 31<30.0745 106.441 262.393 335.926>
VStem: 129 104<46.75 199.04 228.637 513.087 549 601.267> 435 117<319.339 466.701>
LayerCount: 3
Fore
SplineSet
233 261 m 2
 233 229 253 226 286 226 c 0
 340 226 366 243 390 265 c 0
 418 292 435 327 435 385 c 0
 435 442 414 523 301 523 c 0
 246 523 233 499 233 469 c 2
 233 261 l 2
233 98 m 2
 233 51 262 33 312 24 c 0
 335 20 345 15 345 6 c 0
 345 -2 332 -5 314 -5 c 0
 256 -5 237 0 187 0 c 24
 133 0 107 -5 49 -5 c 0
 31 -5 18 -2 18 6 c 0
 18 15 28 20 51 24 c 0
 101 33 129 51 129 98 c 2
 129 550 l 2
 129 597 112 613 62 622 c 0
 39 626 29 633 29 642 c 0
 29 650 43 653 61 653 c 0
 120 653 137 650 187 650 c 24
 234 650 247 653 306 653 c 0
 324 653 337 650 337 642 c 0
 337 633 327 626 304 622 c 0
 254 613 233 589 233 550 c 0
 233 549 234 549 235 549 c 0
 239 549 257 554 307 554 c 0
 467 554 552 495 552 386 c 0
 552 341 515 291 495 276 c 0
 470 256 422 224 408 218 c 0
 402 216 402 214 408 209 c 0
 470 147 553 8 622 -45 c 0
 657 -76 690 -78 737 -78 c 0
 747 -78 752 -81 752 -89 c 0
 752 -118 693 -124 667 -124 c 0
 607 -124 570 -113 533 -70 c 0
 481 -10 439 59 378 138 c 0
 365 155 353 167 332 177 c 24
 301 191 268 197 249 199 c 0
 237 200 233 191 233 179 c 2
 233 98 l 2
EndSplineSet
Validated: 1
EndChar

StartChar: uni01A7
Encoding: 423 423 2379
Width: 513
VWidth: 0
Flags: W
HStem: -16 33<221.775 358.404> 631 33<175.607 293.277>
VStem: 39 116<78.5967 223.958> 354 111<443.815 578.809>
AnchorPoint: "top_accent" 248 700 basechar 0
AnchorPoint: "below_accent" 263 -100 basechar 0
LayerCount: 3
Fore
SplineSet
283 17 m 16
 346 17 396 42 417 103 c 0
 428 135 440 169 450 169 c 0
 462 169 473 149 473 140 c 0
 473 104 465 48 452 25 c 0
 450 20 444 14 429 8 c 0
 410 0 344 -16 261 -16 c 0
 138 -16 39 28 39 141 c 0
 39 288 197 330 259 367 c 0
 315 400 354 444 354 509 c 16
 354 576 302 631 232 631 c 16
 172 631 124 584 113 526 c 0
 110 511 95 498 75 498 c 0
 70 498 68 508 68 523 c 0
 68 554 77 604 78 607 c 0
 80 617 87 630 97 630 c 0
 108 630 194 664 259 664 c 16
 362 664 465 622 465 539 c 0
 465 396 363 372 287 325 c 0
 219 283 155 236 155 154 c 16
 155 83 206 17 283 17 c 16
EndSplineSet
Validated: 1
EndChar

StartChar: uni01A8
Encoding: 424 424 2180
Width: 368
VWidth: 0
Flags: W
HStem: -14 29<159.168 268.539> 386 28<117.722 204.368>
VStem: 23 105<36.5415 143.235> 45 42<312.058 364.627> 231 104<270.468 367.665> 307 33<46.517 91.9165>
LayerCount: 3
Fore
SplineSet
157 386 m 0xe8
 122 386 89 354 87 330 c 0
 86 321 66 309 53 309 c 0
 48 309 45 310 45 313 c 0
 45 341 51 376 67 391 c 1
 79 401 140 414 187 414 c 0
 281 414 335 383 335 326 c 0xd8
 335 265 274 236 219 204 c 0
 182 183 128 152 128 101 c 0
 128 40 159 15 217 15 c 0
 256 15 299 40 307 74 c 0
 308 79 313 92 321 92 c 0
 330 92 340 89 340 83 c 0xe4
 339 60 332 36 324 22 c 0
 317 9 253 -14 189 -14 c 0
 58 -14 23 44 23 89 c 4
 23 154 109 195 158 222 c 0
 194 242 231 268 231 308 c 0
 231 349 212 386 157 386 c 0xe8
EndSplineSet
Validated: 1
EndChar

StartChar: uni01AA
Encoding: 426 426 2374
Width: 383
VWidth: 0
Flags: W
HStem: -288 28<313.655 383.75> -189 20G<463.5 482> 549 32<95.0104 179> 676 30<81.0303 144.35>
VStem: 6 66<597.891 671.029> 186 91<-212.856 550.714> 395 94<-245.88 -193.215>
LayerCount: 3
Fore
SplineSet
6 625 m 0
 6 678 71 706 132 706 c 0
 198 706 240 663 260 592 c 1
 281 597 300 604 316 612 c 0
 331 619 337 601 337 593 c 0
 337 587 307 575 267 565 c 1
 273 535 277 502 277 465 c 2
 277 -45 l 2
 277 -211 301 -260 345 -260 c 0
 381 -260 395 -238 395 -219 c 0
 395 -201 450 -169 477 -169 c 0
 487 -169 489 -182 489 -195 c 0
 489 -258 415 -288 323 -288 c 0
 232 -288 186 -211 186 -104 c 2
 186 500 l 2
 186 519 185 536 183 552 c 1
 166 550 150 549 134 549 c 0
 76 549 6 572 6 625 c 0
179 582 m 1
 168 642 144 676 113 676 c 0
 91 676 72 659 72 637 c 0
 72 599 114 581 152 581 c 0
 161 581 170 581 179 582 c 1
EndSplineSet
Validated: 1
EndChar

StartChar: uni01AB
Encoding: 427 427 2181
Width: 354
VWidth: 0
Flags: W
HStem: -288 37<127.737 215.582> -14 55<197.921 252.171> 352 48<176.344 344.931> 352 27<34.6315 69.6948>
VStem: 83 91<63.197 351.32> 253 94<-163.315 -6>
LayerCount: 3
Fore
SplineSet
202 -14 m 0xec
 131 -14 83 22 83 105 c 2
 83 337 l 2
 83 349 76 352 45 352 c 0
 41 352 33 365 33 372 c 0
 33 375 37 378 39 379 c 0xdc
 101 394 150 468 162 468 c 0
 169 468 178 467 178 458 c 2
 176 414 l 2
 176 405 188 400 203 400 c 2
 333 400 l 2
 339 400 345 388 345 376 c 0
 345 364 339 352 333 352 c 2
 220 352 l 2
 181 352 174 351 174 324 c 2
 174 135 l 2
 174 61 214 41 250 41 c 0
 295 41 318 48 336 60 c 0
 343 64 347 55 347 47 c 0
 347 -14 339 -128 322 -173 c 0
 288 -259 219 -288 156 -288 c 0
 109 -288 42 -272 42 -249 c 0
 42 -219 60 -193 84 -193 c 0
 111 -193 120 -251 168 -251 c 0
 196 -251 226 -234 237 -199 c 0
 249 -162 253 -95 253 -6 c 1
 237 -11 219 -14 202 -14 c 0xec
EndSplineSet
Validated: 1
EndChar

StartChar: uni01AC
Encoding: 428 428 2182
Width: 637
VWidth: 0
Flags: W
HStem: -5 29<205.602 281.52 455.207 531.363> 451 21G<56 81.5> 604 39<115.841 312.76 422.75 648.266>
VStem: 8 86<514.7 584.138> 316 104<48.375 600.468> 663 46<517.392 589.959>
LayerCount: 3
Fore
SplineSet
245 643 m 2
 601 642 l 2
 632 642 653 649 664 656 c 0
 686 670 702 692 718 692 c 0
 722 692 726 679 726 669 c 0
 726 666 725 662 725 660 c 0
 716 623 709 587 709 561 c 0
 709 557 709 553 709 549 c 0
 709 537 701 517 688 517 c 0
 675 517 670 532 663 558 c 0
 658 586 635 604 571 604 c 0
 519 604 454 602 436 600 c 0
 422 598 420 575 420 557 c 2
 420 102 l 2
 420 54 449 33 499 24 c 0
 522 20 532 15 532 6 c 0
 532 -2 518 -5 500 -5 c 0
 442 -5 424 0 374 0 c 24
 320 0 294 -5 236 -5 c 0
 218 -5 205 -2 205 6 c 0
 205 15 215 20 238 24 c 0
 288 33 316 54 316 102 c 2
 316 557 l 2
 316 575 314 597 298 600 c 0
 279 604 258 604 224 604 c 2
 162 604 l 2
 132 604 94 574 94 549 c 0
 94 516 128 517 128 494 c 0
 128 470 91 451 72 451 c 0
 40 451 8 487 8 524 c 0
 8 614 100 643 245 643 c 2
EndSplineSet
Validated: 1
EndChar

StartChar: uni01AD
Encoding: 429 429 2112
Width: 329
VWidth: 0
Flags: W
HStem: -14 55<195.016 278.393> 352 48<175.176 321.965> 352 24<20.0171 57.4493> 676 30<223.457 292.376>
VStem: 84 91<60.25 350 400.148 573.484>
LayerCount: 3
Fore
SplineSet
175 414 m 18xb8
 175 405 187 400 200 400 c 10
 314 400 l 18xd8
 319 400 322 388 322 376 c 0xb8
 322 364 319 352 314 352 c 10
 215 352 l 18xd8
 181 352 175 351 175 324 c 10
 175 135 l 18
 175 61 210 41 241 41 c 0
 280 41 300 48 316 60 c 0
 322 64 326 55 326 47 c 0
 326 36 265 -14 198 -14 c 0
 130 -14 84 22 84 105 c 10
 84 350 l 1
 71 350 53 350 32 352 c 0
 28 353 18 363 18 370 c 0
 18 373 23 375 25 376 c 0
 55 384 64 392 84 402 c 1
 84 465 l 2
 84 612 187 706 280 706 c 0
 316 706 349 702 363 686 c 0
 369 679 372 673 372 667 c 0
 372 645 354 622 335 622 c 0
 308 622 305 676 256 676 c 0
 213 676 178 609 175 500 c 1
 175 414 l 18xb8
EndSplineSet
Validated: 1
EndChar

StartChar: uni01AE
Encoding: 430 430 2183
Width: 728
VWidth: 0
Flags: W
HStem: -201 38<431.786 525.565> 603 39<112.455 291.76 401.875 650.67>
VStem: 295 104<-118.554 599.363> 554 109<-132.255 -78.2501> 667 46<516.392 587.338>
LayerCount: 3
Fore
SplineSet
295 -17 m 6
 295 556 l 2
 295 574 293 596 277 599 c 0
 258 603 237 603 203 603 c 2
 156 603 l 2
 124 603 88 590 74 564 c 0
 68 553 48 526 33 526 c 0
 28 526 26 532 26 539 c 0
 26 545 28 553 31 559 c 0
 51 597 58 629 65 671 c 0
 68 693 79 694 84 694 c 0
 89 694 104 673 111 662 c 0
 120 648 156 642 187 642 c 2
 604 642 l 2
 636 642 656 649 667 656 c 0
 689 670 706 692 722 692 c 0
 726 692 730 679 730 669 c 0
 730 666 729 662 729 660 c 0
 720 623 713 586 713 560 c 0
 713 556 713 552 713 548 c 0
 713 536 705 516 692 516 c 0
 679 516 674 531 667 557 c 0
 661 585 636 603 565 603 c 0
 508 603 436 601 416 599 c 0
 401 597 399 574 399 556 c 2
 399 43 l 6
 399 -123 426 -163 473 -163 c 4
 526 -163 554 -120 554 -101 c 4
 554 -83 625 -47 652 -47 c 4
 662 -47 663 -60 663 -73 c 4
 663 -159 558 -201 440 -201 c 4
 350 -201 295 -124 295 -17 c 6
EndSplineSet
Validated: 1
EndChar

StartChar: Uhorn
Encoding: 431 431 289
Width: 791
VWidth: 0
Flags: W
HStem: -14 50<339.634 507.016> 620 33<24.5505 82.9594 225.114 279.84 537.111 588.939>
VStem: 102 104<187.656 606.064> 615 56<164.061 475.328> 766 68<656.502 724.5>
AnchorPoint: "ogonek" 512 18 basechar 0
AnchorPoint: "below_accent" 415 -100 basechar 0
AnchorPoint: "top_accent" 412 700 basechar 0
LayerCount: 3
Fore
SplineSet
721 724 m 0
 721 743 757 777 790 777 c 0
 813 777 834 736 834 713 c 0
 834 655 782 624 718 609 c 8
 690 602 686 587 684 547 c 0
 675 432 675 346 671 254 c 0
 666 99 552 -14 398 -14 c 16
 193 -14 102 128 102 322 c 2
 102 547 l 2
 102 595 78 614 56 620 c 0
 33 626 23 633 23 642 c 0
 23 650 36 653 55 653 c 0
 88 653 120 650 161 650 c 24
 195 650 226 652 249 652 c 0
 268 652 281 649 281 641 c 0
 281 632 270 628 248 621 c 0
 232 616 206 589 206 549 c 2
 206 294 l 10
 206 162 294 36 426 36 c 16
 553 36 615 144 615 300 c 0
 615 344 612 434 610 511 c 0
 609 562 597 612 569 620 c 0
 555 624 536 631 536 640 c 0
 536 648 549 651 567 651 c 0
 593 651 609 650 630 650 c 2
 731 650 l 18
 755 650 766 674 766 680 c 0
 766 699 721 699 721 724 c 0
EndSplineSet
Validated: 1
EndChar

StartChar: uhorn
Encoding: 432 432 290
Width: 586
VWidth: 0
Flags: W
HStem: -19 56<171.488 298.48> 21 24<484.883 561.806> 365 32<28.0317 66.3555 300.06 370.803>
VStem: 84 91<71.1627 353.476> 388 91<78.3695 352.826> 544 75<430.4 494.5>
AnchorPoint: "ogonek" 472 18 basechar 0
AnchorPoint: "below_accent" 279 -100 basechar 0
AnchorPoint: "top_accent" 271 550 basechar 0
LayerCount: 3
Fore
SplineSet
479 326 m 2xbc
 479 114 l 2
 479 73 480 45 497 45 c 0
 508 45 535 46 546 48 c 0
 551 49 562 47 562 35 c 0
 562 24 551 21 545 21 c 0x7c
 485 14 444 -1 410 -13 c 0
 405 -15 389 -19 382 -19 c 0
 377 -19 379 -18 379 -15 c 0
 379 -2 382 34 382 51 c 2
 382 57 l 1
 326 6 272 -14 206 -14 c 0
 136 -14 84 27 84 105 c 2
 84 308 l 2
 84 337 71 353 41 365 c 0
 38 366 28 370 28 380 c 0
 28 393 39 396 45 397 c 0
 108 399 119 405 164 414 c 1
 176 415 182 410 181 400 c 0
 177 369 175 353 175 323 c 2
 175 128 l 2
 175 80 216 37 259 37 c 0
 293 37 318 38 343 57 c 0
 358 68 388 91 388 132 c 2
 388 315 l 2
 388 356 343 364 323 365 c 0
 318 365 300 368 300 382 c 0
 300 394 321 397 325 397 c 0
 436 402 458 412 467 414 c 4
 486 419 544 430 544 442 c 4
 544 456 540 460 529 467 c 4
 514 477 507 483 507 501 c 4
 507 526 537 534 571 534 c 4
 608 534 619 506 619 483 c 4
 619 425 564 402 489 378 c 4
 480 375 477 363 477 351 c 0
 477 342 479 333 479 326 c 2xbc
EndSplineSet
Validated: 1
EndChar

StartChar: uni01B1
Encoding: 433 433 2320
Width: 860
VWidth: 0
Flags: W
HStem: -14 33<364.868 523.172> 622 31<49.3711 191.779 640.033 817.795>
VStem: 77 130<186.168 401.331> 253 99<589 644.5> 511 98<588.797 643.5> 652 130<198.013 418.175>
LayerCount: 3
Fore
SplineSet
352 641 m 0
 352 615 324 582 297 558 c 0
 214 485 207 419 207 294 c 0
 207 174 292 19 443 19 c 16
 596 19 652 149 652 286 c 0
 652 391 631 477 565 545 c 0
 552 558 511 607 511 641 c 0
 511 646 513 652 521 652 c 0
 527 652 612 650 658 650 c 0
 705 650 753 653 784 653 c 0
 805 653 819 650 819 642 c 0
 819 633 808 627 781 622 c 0
 724 611 609 614 609 592 c 0
 609 577 616 571 626 565 c 0
 725 503 782 426 782 303 c 0
 782 137 625 -14 436 -14 c 8
 241 -14 77 105 77 283 c 0
 77 402 137 501 220 554 c 0
 245 570 253 586 253 592 c 0
 253 606 127 610 87 620 c 0
 61 627 48 633 48 642 c 0
 48 650 63 653 84 653 c 0
 122 653 166 650 222 650 c 0
 270 650 337 652 343 652 c 0
 350 652 352 648 352 641 c 0
EndSplineSet
Validated: 1
EndChar

StartChar: uni01B2
Encoding: 434 434 2381
Width: 785
VWidth: 0
Flags: W
HStem: -14 50<300.328 465.917> 619 45<463.769 556.445> 620 33<24.5505 82.9594 225.114 279.84>
VStem: 102 104<141.25 606.064> 618 118<255.54 507.184>
LayerCount: 3
Fore
SplineSet
736 386 m 8xd8
 736 178 579 -14 353 -14 c 16
 178 -14 102 118 102 222 c 2
 102 547 l 2
 102 595 78 614 56 620 c 0
 33 626 23 633 23 642 c 0
 23 650 36 653 55 653 c 0xb8
 88 653 120 650 161 650 c 24
 195 650 226 652 249 652 c 0
 268 652 281 649 281 641 c 0
 281 632 270 628 248 621 c 0
 232 616 206 589 206 549 c 2
 206 253 l 2
 206 124 277 36 380 36 c 0
 529 36 618 199 618 336 c 8
 618 456 615 619 495 619 c 8
 452 619 448 538 420 538 c 0
 405 538 385 562 385 580 c 4
 385 640 461 664 526 664 c 16
 652 664 736 529 736 386 c 8xd8
EndSplineSet
Validated: 1
EndChar
